<svg xmlns="http://www.w3.org/2000/svg">
<defs>
<font id="PlantagenetCherokee" horiz-adv-x="1065" >
  <font-face 
    font-family="Plantagenet Cherokee"
    font-weight="400"
    font-stretch="normal"
    units-per-em="2048"
    panose-1="2 2 6 2 7 1 0 0 0 0"
    ascent="1638"
    descent="-410"
    x-height="924"
    cap-height="1382"
    bbox="-527 -761 2353 1954"
    underline-thickness="123"
    underline-position="-460"
    unicode-range="U+0020-2122"
  />
<missing-glyph horiz-adv-x="1374" 
d="M1199 -459l34 -59q14 -26 34.5 -47t28.5 -21q6 0 14 6q15 21 22 23l6 1q13 0 23.5 -11.5t10.5 -29.5q0 -14 -15 -21q-20 -14 -42 -14q-19 0 -40.5 16t-40 40.5t-47.5 85.5l-21 39q-12 0 -18.5 -5t-14.5 -23q-14 6 -17 36q-9 62 -57 62q-27 0 -46 -22t-21 -43
q0 -20 23 -43q10 -10 39 -16q26 -7 32 -19q-18 -8 -21 -13t-3 -18l78 -42q39 -20 72 -51t33 -59q0 -16 -11.5 -35t-29.5 -19q-37 1 -37 32l1 8l11 12l14 13l6 15q0 10 -22.5 29t-48.5 33l-66 35h-750l-65 -35q-28 -15 -50 -34t-22 -30q0 -4 6 -13l14 -13l11 -12l1 -8
q0 -31 -37 -32q-18 0 -29.5 18.5t-11.5 35.5q0 28 33.5 59.5t72.5 50.5l77 42q0 13 -3 18t-21 13q6 12 33 19q29 6 39.5 17.5t16 21.5t5.5 20q0 23 -23 44t-44 21q-24 0 -42 -20q-10 -10 -14 -42q-4 -30 -18 -36q-8 18 -14.5 23t-18.5 5l-20 -39q-30 -61 -48.5 -85.5
t-40 -40.5t-40.5 -16q-22 0 -42 14q-15 7 -15 21t9 27.5t25 13.5l6 -1q7 -2 22 -23q8 -6 15 -6q8 0 28 21t34 47l34 59v1762q-17 29 -34 59t-42 55q-14 14 -20 14q-7 -1 -15 -8q-17 -20 -22 -22l-6 -1q-13 0 -23.5 11.5t-10.5 29.5q0 14 15 21q20 14 42 14q62 0 129 -142
l20 -40q12 0 18.5 5t14.5 24q14 -8 18 -35q4 -32 14 -42.5t18.5 -15.5t22.5 -6q26 0 47 23t21 43t-23 43q-10 10 -38 17q-27 6 -33 18q18 7 21 12t3 19l-77 42q-40 20 -73 51t-33 59q0 16 11.5 35.5t29.5 19.5q16 -1 26.5 -9.5t10.5 -23.5l-1 -8q-3 -7 -11 -13
q-21 -15 -21 -27q0 -10 21.5 -28t51.5 -33l65 -37h750l66 37q27 14 49.5 32.5t22.5 28.5q0 12 -21 27q-8 6 -11 13l-1 8q0 15 10.5 23.5t26.5 9.5q18 0 29.5 -19t11.5 -36q0 -28 -33.5 -59.5t-71.5 -50.5l-78 -42q0 -14 3 -19t21 -12q-6 -12 -32 -18q-30 -7 -40.5 -18.5

<glyph glyph-name=".notdef" horiz-adv-x="1374" 
d="M1199 -459l34 -59q14 -26 34.5 -47t28.5 -21q6 0 14 6q15 21 22 23l6 1q13 0 23.5 -11.5t10.5 -29.5q0 -14 -15 -21q-20 -14 -42 -14q-19 0 -40.5 16t-40 40.5t-47.5 85.5l-21 39q-12 0 -18.5 -5t-14.5 -23q-14 6 -17 36q-9 62 -57 62q-27 0 -46 -22t-21 -43
q0 -20 23 -43q10 -10 39 -16q26 -7 32 -19q-18 -8 -21 -13t-3 -18l78 -42q39 -20 72 -51t33 -59q0 -16 -11.5 -35t-29.5 -19q-37 1 -37 32l1 8l11 12l14 13l6 15q0 10 -22.5 29t-48.5 33l-66 35h-750l-65 -35q-28 -15 -50 -34t-22 -30q0 -4 6 -13l14 -13l11 -12l1 -8
q0 -31 -37 -32q-18 0 -29.5 18.5t-11.5 35.5q0 28 33.5 59.5t72.5 50.5l77 42q0 13 -3 18t-21 13q6 12 33 19q29 6 39.5 17.5t16 21.5t5.5 20q0 23 -23 44t-44 21q-24 0 -42 -20q-10 -10 -14 -42q-4 -30 -18 -36q-8 18 -14.5 23t-18.5 5l-20 -39q-30 -61 -48.5 -85.5
t-40 -40.5t-40.5 -16q-22 0 -42 14q-15 7 -15 21t9 27.5t25 13.5l6 -1q7 -2 22 -23q8 -6 15 -6q8 0 28 21t34 47l34 59v1762q-17 29 -34 59t-42 55q-14 14 -20 14q-7 -1 -15 -8q-17 -20 -22 -22l-6 -1q-13 0 -23.5 11.5t-10.5 29.5q0 14 15 21q20 14 42 14q62 0 129 -142
l20 -40q12 0 18.5 5t14.5 24q14 -8 18 -35q4 -32 14 -42.5t18.5 -15.5t22.5 -6q26 0 47 23t21 43t-23 43q-10 10 -38 17q-27 6 -33 18q18 7 21 12t3 19l-77 42q-40 20 -73 51t-33 59q0 16 11.5 35.5t29.5 19.5q16 -1 26.5 -9.5t10.5 -23.5l-1 -8q-3 -7 -11 -13
q-21 -15 -21 -27q0 -10 21.5 -28t51.5 -33l65 -37h750l66 37q27 14 49.5 32.5t22.5 28.5q0 12 -21 27q-8 6 -11 13l-1 8q0 15 10.5 23.5t26.5 9.5q18 0 29.5 -19t11.5 -36q0 -28 -33.5 -59.5t-71.5 -50.5l-78 -42q0 -14 3 -19t21 -12q-6 -12 -32 -18q-30 -7 -40.5 -18.5
t-16 -21.5t-5.5 -20q0 -23 21 -43t47 -23q20 0 41 21q11 12 15 43q3 27 17 35q8 -19 14.5 -24t18.5 -5l21 40q66 142 128 142q22 0 42 -14q15 -7 15 -21t-9 -27.5t-25 -13.5l-6 1q-5 2 -22 22q-8 7 -14 8q-7 0 -21 -14q-25 -25 -42 -55t-34 -59v-1762zM1113 1202
q-18 -8 -39 -8q-42 0 -75.5 30.5t-33.5 69.5q0 32 15 58h-586q15 -26 15 -58q0 -38 -33 -69t-76 -31q-21 0 -39 8v-1560q18 8 39 8q42 0 75.5 -30.5t33.5 -69.5q0 -32 -15 -58h586q-15 26 -15 58q0 38 33 69t76 31q21 0 39 -8v1560zM614 61q0 -13 -13.5 -21.5t-30.5 -8.5
q-38 0 -43 24q-18 81 -18 197q0 93 17 169.5t38 76.5q40 0 77 -8.5t69 -8.5q126 2 187.5 61.5t61.5 186.5q0 117 -95 197t-240 80q-41 0 -58.5 -13.5t-28 -29.5t-23.5 -29.5t-44 -13.5q-43 0 -66.5 26t-23.5 60q0 46 40 75t111 29q231 0 369.5 -117t138.5 -315
q0 -185 -97 -279.5t-296 -105.5q-30 -2 -36.5 -19t-6.5 -92q0 -58 10 -116zM609 -139q42 0 71.5 -26.5t29.5 -65.5q0 -42 -28.5 -69.5t-68.5 -27.5q-41 0 -70.5 27t-29.5 65q0 39 27 68t69 29zM1057 1319q11 0 20.5 -9.5t9.5 -20.5q0 -12 -9 -23q-11 -10 -23 -10t-20 10
q-10 10 -10 20q0 11 9 21.5t23 11.5zM351 1286q0 -10 -10 -20q-8 -10 -20 -10t-23 10q-9 11 -9 23t11 22t19 8q12 0 22 -10t10 -23zM1025 -443q0 11 9.5 20.5t20.5 9.5q12 0 23 -9q9 -11 9 -23t-9 -20t-16 -10q-17 0 -27 10t-10 22zM319 -475q-11 0 -20.5 9.5t-9.5 20.5
q0 12 9 23q11 9 23 9t20 -9t10 -16q0 -17 -10 -27t-22 -10z" />
    <glyph glyph-name="glyph1" horiz-adv-x="0" 
 />
    <glyph glyph-name="glyph2" horiz-adv-x="537" 
 />
    <glyph glyph-name="space" unicode=" " horiz-adv-x="537" 
 />
    <glyph glyph-name="space" unicode="&#xa0;" horiz-adv-x="537" 
 />
    <glyph glyph-name="exclam" unicode="!" horiz-adv-x="440" 
d="M246 344q-35 0 -35 18q0 267 -12 423t-53 343q-15 64 -15 115q0 55 27.5 94t91.5 39q125 0 125 -133q0 -44 -17 -117q-10 -41 -17.5 -77t-28.5 -158t-27.5 -310t-3.5 -219q0 -18 -35 -18zM141 86q0 45 30 74.5t75 29.5t74.5 -29.5t29.5 -74.5t-29.5 -74.5t-74.5 -29.5
t-75 29.5t-30 74.5z" />
    <glyph glyph-name="quotedbl" unicode="&#x22;" horiz-adv-x="557" 
d="M68 1324q0 52 73 52q81 0 81 -57l-40 -434q-5 -16 -28 -16q-29 0 -33 18zM335 1322q0 54 73 54q80 0 80 -55l-39 -436q-4 -16 -27 -16q-31 0 -35 18z" />
    <glyph glyph-name="numbersign" unicode="#" 
d="M995 457h-252l-63 -457h-115l64 457h-258l-68 -457h-115l68 457h-252l14 94h256l43 301h-258l15 106h260l63 426h115l-63 -426h256l61 426h115l-62 -426h242l-14 -106h-244l-41 -301h248zM432 852l-43 -301h258l41 301h-256z" />
    <glyph glyph-name="dollar" unicode="$" 
d="M508 1473q0 13 13.5 20t29.5 7q45 0 45 -27v-111q57 -3 139 -31q46 -16 68 -16q23 0 33 18q6 15 32 15q21 -2 21 -17v-2q-15 -66 -15 -147q0 -61 10 -141l5 -54q0 -6 -9 -10.5t-20 -4.5q-22 0 -24 17q-33 151 -82.5 214t-157.5 73v-494q154 -80 217.5 -138.5t98 -131.5
t34.5 -170q0 -151 -91.5 -249t-258.5 -120v-139q0 -15 -14 -22t-31 -7q-16 0 -29.5 7t-13.5 22v133q-56 0 -122 19.5t-110 48.5q-19 12 -38 12q-31 0 -54 -55q-7 -18 -27 -18q-11 0 -19.5 5.5t-8.5 12.5v2q14 126 14 199q0 100 -12 210v4q0 11 9.5 18.5t21.5 7.5
q25 0 28 -21q25 -164 111 -259.5t207 -101.5v559q-173 87 -232 137t-92.5 116t-33.5 157q0 147 93.5 235.5t264.5 102.5v115zM772 279q0 171 -176 280v-500q83 20 129.5 78.5t46.5 141.5zM322 1073q0 -75 38.5 -131.5t147.5 -112.5v447q-84 -11 -135 -65.5t-51 -137.5z" />
    <glyph glyph-name="percent" unicode="%" horiz-adv-x="1706" 
d="M432 590q-161 0 -250.5 97t-89.5 271q0 150 102 251.5t250 101.5q163 0 244 -125q57 -19 158 -19q111 0 201 55t141 126q9 9 21 9q40 0 40 -22l-2 -8l-729 -1477q-5 -10 -18 -10q-21 0 -36 7.5t-15 18.5l2 7l629 1296q0 7 -8 7l-5 -2q-114 -64 -229 -64q-67 0 -123 16
q33 -87 33 -168q0 -98 -39.5 -184t-111.5 -135t-165 -49zM1309 -102q-157 0 -254 90t-97 278q0 98 46.5 179.5t128.5 127t178 45.5q142 0 222.5 -100.5t80.5 -265.5q0 -96 -38.5 -178.5t-108 -129t-158.5 -46.5zM1317 -51q100 0 163.5 84t63.5 219q0 147 -58.5 229
t-182.5 82q-88 0 -137.5 -76.5t-49.5 -220.5q0 -140 51.5 -228.5t149.5 -88.5zM451 641q100 0 163.5 90t63.5 227q0 297 -236 297q-94 0 -143 -79.5t-49 -217.5q0 -137 51.5 -227t149.5 -90z" />
    <glyph glyph-name="ampersand" unicode="&#x26;" horiz-adv-x="1497" 
d="M526 741q92 42 135.5 100t43.5 152q0 90 -48 148.5t-114 58.5q-176 0 -176 -186q0 -39 16 -76.5t40 -72.5t51.5 -66t51.5 -58zM416 590q-131 -109 -131 -277q0 -109 52.5 -164t149.5 -55q90 0 185 45.5t96 67.5q0 4 -6 10q-267 285 -346 373zM571 682q162 -170 324 -332
q165 210 222.5 268t107.5 85.5t104 27.5q63 0 96 -30.5t33 -73.5q0 -36 -21 -64t-77 -28q-34 0 -52 12.5t-18 32.5q0 38 -39 38q-23 0 -47 -15.5t-60.5 -57t-195.5 -244.5q133 -125 200 -166t114 -41q71 0 106 34t49 93q4 17 28 17q12 0 21 -6t9 -17v-4q-12 -108 -86.5 -182
t-176.5 -74q-96 0 -188.5 45.5t-198.5 151.5l-7 3l-7 -3q-88 -102 -183 -149.5t-210 -47.5q-158 0 -257.5 81.5t-99.5 217.5q0 90 30 156.5t88.5 119t187.5 115.5q-88 93 -115 135t-42 90.5t-15 108.5q0 81 43 149t122 107t185 39q94 0 170 -33.5t117.5 -94.5t41.5 -145
q0 -65 -34 -117.5t-92.5 -98t-176.5 -103.5z" />
    <glyph glyph-name="quotesingle" unicode="'" horiz-adv-x="299" 
d="M61 1309q0 34 25 52.5t66 18.5t63.5 -18.5t22.5 -52.5q0 -27 -7 -73q-43 -263 -49 -349q0 -19 -31 -19q-32 0 -32 19q-6 89 -33 246q-25 143 -25 176z" />
    <glyph glyph-name="parenleft" unicode="(" horiz-adv-x="694" 
d="M553 1471q14 0 25 -10.5t11 -22.5q0 -8 -7 -15q-136 -151 -201.5 -268t-98 -254.5t-32.5 -314.5q0 -171 32.5 -308.5t98 -261t213.5 -305.5q5 -5 5 -11q0 -10 -12.5 -22t-24.5 -12q-21 0 -128 110.5t-181.5 240t-114.5 275.5t-40 302q0 153 39.5 291t110.5 257t177.5 224
t127.5 105z" />
    <glyph glyph-name="parenright" unicode=")" horiz-adv-x="694" 
d="M596 594q0 -268 -118 -511t-335 -413q-4 -4 -10 -4q-12 0 -25 11.5t-13 22.5q0 6 5 11q151 185 215.5 307.5t96.5 259t32 308.5q0 175 -32 312t-96.5 254t-202.5 271q-7 7 -7 15q0 12 10.5 23t24.5 11q22 0 127.5 -104.5t177 -224t111 -257.5t39.5 -292z" />
    <glyph glyph-name="asterisk" unicode="*" horiz-adv-x="950" 
d="M408 1411q0 35 21.5 52.5t47.5 17.5q27 0 48.5 -17.5t21.5 -52.5q0 -22 -8.5 -42.5t-17.5 -44.5t-17 -51.5t-8 -64.5q0 -59 12 -59q14 0 55 25q33 18 54.5 45.5t39 52t38 43t53.5 18.5q28 0 46.5 -20.5t18.5 -46.5q0 -38 -34 -57.5t-127 -38.5q-32 -7 -57 -18.5
t-52.5 -25.5t-16.5 -16q0 -7 6 -13.5t47.5 -26.5t75.5 -25q87 -15 124.5 -34t37.5 -55q0 -28 -21.5 -49.5t-52.5 -21.5q-29 0 -52 19.5t-83 90.5q-27 31 -55.5 49.5t-44.5 18.5q-10 0 -11 -22.5t-1 -41.5q0 -38 8 -63t18 -44.5t18.5 -37.5t8.5 -43q0 -35 -22.5 -51.5
t-49.5 -16.5q-28 0 -49.5 17.5t-21.5 54.5q0 23 8 42.5t18 41t18.5 47t8.5 60.5q0 14 -1 36.5t-12 22.5q-8 0 -20 -4t-16 -8q-45 -25 -69 -54.5t-41 -54t-35.5 -42t-53.5 -17.5q-29 0 -48.5 25.5t-19.5 54.5q0 30 25 44.5t59.5 21.5t71.5 14q39 6 81 28t42 35q0 5 -5 10.5
t-42.5 25t-74.5 27.5q-91 18 -129 38.5t-38 56.5q0 26 21.5 48.5t50.5 22.5q37 0 92 -66q51 -63 73 -82t44.5 -29.5t31.5 -10.5q13 0 13 46v13q0 47 -8.5 76t-17.5 49.5t-17 38t-8 39.5z" />
    <glyph glyph-name="plus" unicode="+" horiz-adv-x="1053" 
d="M479 850h94v-385h377v-94h-377v-391h-94v391h-377v94h377v385z" />
    <glyph glyph-name="comma" unicode="," horiz-adv-x="438" 
d="M84 -317q-12 0 -20.5 13t-8.5 28q0 10 8 14q78 37 120 82.5t42 87.5q0 26 -35 48l-33 20q-69 41 -69 116q0 54 33.5 85.5t87.5 31.5q77 0 117 -52t41 -122q0 -249 -275 -350z" />
    <glyph glyph-name="hyphen" unicode="-" horiz-adv-x="532" 
d="M61 389q-14 0 -21.5 17t-7.5 40q0 27 10.5 51t31.5 25l397 15q15 0 22.5 -18t7.5 -41q0 -27 -11 -50.5t-35 -24.5z" />
    <glyph glyph-name="hyphen" unicode="&#xad;" horiz-adv-x="532" 
d="M61 389q-14 0 -21.5 17t-7.5 40q0 27 10.5 51t31.5 25l397 15q15 0 22.5 -18t7.5 -41q0 -27 -11 -50.5t-35 -24.5z" />
    <glyph glyph-name="period" unicode="." horiz-adv-x="408" 
d="M201 -27q-51 0 -90 39t-39 90q0 52 39 91.5t90 39.5q55 0 93 -39.5t38 -91.5q0 -51 -38 -90t-93 -39z" />
    <glyph glyph-name="slash" unicode="/" horiz-adv-x="559" 
d="M-10 -358l416 1769h133l-422 -1769h-127z" />
    <glyph glyph-name="zero" unicode="0" 
d="M543 1391q152 0 255 -84t156.5 -235.5t53.5 -360.5q0 -239 -52 -397t-155.5 -246t-257.5 -88q-167 0 -274.5 85.5t-159.5 243t-52 406.5q0 206 55.5 356t163 235t267.5 85zM285 711q0 -228 28.5 -366t86.5 -214t151 -76q81 0 132 70t74 199.5t23 384.5q0 233 -25 357.5
t-79 186.5t-141 62q-134 0 -192 -152.5t-58 -451.5z" />
    <glyph glyph-name="one" unicode="1" 
d="M651 264q0 -68 24 -109t75 -64t168 -38q11 -2 17.5 -12.5t6.5 -22.5t-7 -22t-22 -10l-90 3q-245 15 -295 15l-89 -3q-250 -15 -289 -15q-14 0 -21.5 11t-7.5 24q0 30 29 34q127 16 179.5 39t79.5 63t27 107v803q0 86 -26 111.5t-108 25.5q-52 0 -140 -8h-5
q-13 0 -20.5 11t-7.5 26q0 29 21 35q118 28 230 60q219 63 238 63q33 0 33 -27v-1100z" />
    <glyph glyph-name="two" unicode="2" 
d="M729 168q92 0 142 48.5t75 174.5q4 22 32 22q15 0 28.5 -8t13.5 -22q0 -109 -28.5 -201.5t-80 -144t-120.5 -51.5q-103 0 -267 22q-166 21 -246 21q-59 0 -102 -16l-84 -25q-41 0 -41 57q0 23 34.5 93.5t85 137.5t114.5 127.5t197 157.5q132 99 177.5 153.5t71 119
t25.5 149.5q0 148 -64 233q-63 87 -205 87q-72 0 -129.5 -30.5t-93 -79t-35.5 -87.5q0 -88 90 -88q84 0 84 -82q0 -38 -27 -69t-81 -31q-78 0 -124 53.5t-46 140.5q0 98 55 181.5t154 131.5t217 48q210 0 322 -96.5t112 -276.5q0 -118 -52 -204q-89 -150 -298 -284
q-175 -113 -240.5 -169.5t-87.5 -96.5t-22 -86l5 -2l45 8q52 11 122 11q63 0 146 -13q82 -14 126 -14z" />
    <glyph glyph-name="three" unicode="3" 
d="M526 688q-39 0 -72.5 -8t-37.5 -8q-18 0 -26.5 14t-8.5 30q0 33 25 36q143 20 216.5 98t73.5 227q0 110 -60 168t-173 58q-74 0 -132 -26.5t-96 -72.5t-38 -84q0 -82 90 -82q45 0 64.5 -23.5t19.5 -58.5q0 -36 -27 -68t-82 -32q-80 0 -125 53.5t-45 141.5q0 89 55 168
t153 125.5t208 46.5q113 0 207 -38.5t149.5 -111t55.5 -162.5q0 -118 -77 -193t-206 -124q-6 -2 -6 -8t8 -6q186 -19 271 -117.5t85 -245.5q0 -129 -70 -219.5t-197 -138t-290 -47.5q-184 0 -277 52t-93 148q0 51 28.5 82t81.5 31q33 0 64.5 -21.5t31.5 -64.5q0 -23 -9 -35
t-9 -31q0 -41 53.5 -65.5t139.5 -24.5q97 0 165.5 41.5t106 114t37.5 162.5q0 135 -62.5 227t-169.5 92z" />
    <glyph glyph-name="four" unicode="4" 
d="M770 1392q18 0 32.5 -7t14.5 -15v-895q0 -16 8.5 -18t30.5 -2q46 0 91.5 15t62.5 34q7 9 18 9q10 0 18.5 -6.5t8.5 -16.5l-2 -9q-37 -78 -98 -120.5t-115 -47.5q-17 -2 -20 -8t-3 -47v-262q-52 -12 -102 -12q-49 0 -111 12v303q0 20 -5 25q-8 9 -81 19.5t-160 10.5
q-153 0 -274 -28l-8 -2q-15 0 -29 22.5t-14 48.5q0 18 8 27q333 389 682 946q15 24 47 24zM211 479q87 25 182 25q97 0 189 -21l14 -2q8 0 8 15v538q-131 -224 -393 -555z" />
    <glyph glyph-name="five" unicode="5" 
d="M254 1366q56 0 228 -16q171 -17 272 -17q97 0 143 107q5 9 18 9q20 0 31.5 -7t12.5 -16q0 -6 -17.5 -67.5t-42.5 -106.5t-61.5 -68.5t-83.5 -24.5q-108 0 -212 13q-110 14 -243 16q-15 -137 -15 -277v-36l1 -39q32 16 89 26t115 10q132 0 244.5 -54.5t177 -150.5
t64.5 -214q0 -224 -149 -348.5t-414 -124.5q-149 0 -236.5 45t-87.5 122q0 40 24 75.5t70 35.5q43 0 71 -25.5t28 -62.5q0 -14 -9 -31q-10 -18 -10 -28q0 -27 46.5 -43.5t135.5 -16.5q158 0 228.5 104t70.5 275q0 154 -83 247t-257 93q-66 0 -109 -15l-48 -14
q-37 0 -48.5 13.5t-11.5 44.5q0 280 25 536q0 8 10 19.5t33 11.5z" />
    <glyph glyph-name="six" unicode="6" 
d="M1010 440q0 -132 -62 -239t-172 -164t-248 -57q-228 0 -347.5 144.5t-119.5 450.5q0 260 69.5 445.5t199 278t311.5 92.5q150 0 232.5 -45.5t82.5 -128.5q0 -37 -28.5 -66t-71.5 -29q-35 0 -60.5 19.5t-25.5 54.5q0 12 7 27.5t7 27.5q0 29 -39.5 48.5t-121.5 19.5
q-167 0 -253 -148t-91 -481q53 80 134 120t169 40q198 0 313 -109.5t115 -300.5zM795 436q0 171 -63.5 248.5t-180.5 77.5q-76 0 -140 -42t-98 -105.5t-34 -129.5q0 -157 27 -244.5t84.5 -136.5t148.5 -49q123 0 189.5 96t66.5 285z" />
    <glyph glyph-name="seven" unicode="7" 
d="M317 1200q-70 0 -97 -18.5t-49 -72.5l-38 -93q-6 -15 -29 -15q-15 0 -29 7t-14 16q20 197 73 272.5t165 75.5q152 0 312 -19q159 -20 231 -20t174 31h5q15 0 28 -16t13 -33l-1 -6q-85 -165 -301 -470q-108 -153 -179 -264t-113 -194.5t-42 -165.5q0 -37 15 -79
q16 -41 16 -75q0 -35 -33 -58t-78 -23q-35 0 -60.5 23t-25.5 65q0 62 28.5 158.5t81 192.5t188.5 294q138 203 174 257.5t69.5 108.5t33.5 63q0 15 -28 15q-57 0 -199 22q-142 21 -291 21z" />
    <glyph glyph-name="eight" unicode="8" 
d="M745 1067q0 119 -48 183.5t-160 64.5q-97 0 -156 -60.5t-59 -171.5q0 -127 170 -220l108 -60l7 -3q18 0 58 43.5t60 98t20 125.5zM793 319q0 163 -208 269l-124 63l-13 4q-6 0 -10 -4q-76 -49 -124 -122.5t-48 -157.5q0 -148 71 -232t193 -84q119 0 191 74t72 190z
M989 362q0 -113 -63.5 -200.5t-173 -134.5t-238.5 -47q-199 0 -319.5 92t-120.5 258q0 129 79.5 225t221.5 141q-103 66 -174.5 149t-71.5 189q0 104 55 186.5t151.5 126.5t211.5 44q110 0 201 -42t142.5 -119t51.5 -175q0 -95 -70 -177.5t-188 -132.5q168 -77 236.5 -169
t68.5 -214z" />
    <glyph glyph-name="nine" unicode="9" 
d="M61 934q0 133 60 238t170.5 162t251.5 57q152 0 253 -76t153 -209.5t52 -325.5q0 -232 -70.5 -424t-192.5 -284t-287 -92q-169 0 -265 53t-96 145q0 47 30 82t83 35q33 0 63.5 -22.5t30.5 -69.5q0 -21 -9 -33t-9 -29q0 -90 184 -90q322 0 332 629q-68 -92 -148 -127
t-178 -35q-197 0 -302.5 109t-105.5 307zM268 938q0 -174 64 -253t180 -79q122 0 202.5 91t80.5 221q0 197 -68.5 297t-200.5 100q-123 0 -190.5 -94.5t-67.5 -282.5z" />
    <glyph glyph-name="colon" unicode=":" horiz-adv-x="483" 
d="M291 608q-51 0 -90 39t-39 90q0 52 39 91.5t90 39.5q55 0 93 -39.5t38 -91.5q0 -51 -38 -90t-93 -39zM289 -27q-51 0 -90 39t-39 90q0 52 39 91.5t90 39.5q55 0 93 -39.5t38 -91.5q0 -51 -38 -90t-93 -39z" />
    <glyph glyph-name="semicolon" unicode=";" horiz-adv-x="551" 
d="M190 -317q-12 0 -20.5 13t-8.5 28q0 10 8 14q78 37 120 82.5t42 87.5q0 26 -35 48l-33 20q-69 41 -69 116q0 54 33.5 85.5t87.5 31.5q77 0 117 -52t41 -122q0 -249 -275 -350zM324 616q-51 0 -90 39t-39 90q0 52 39 91.5t90 39.5q55 0 93 -39.5t38 -91.5q0 -51 -38 -90
t-93 -39z" />
    <glyph glyph-name="less" unicode="&#x3c;" horiz-adv-x="934" 
d="M164 463l208 -102q108 -55 276.5 -135t201.5 -95q24 -10 35.5 -42t11.5 -64q0 -15 -4 -38.5t-14 -23.5l-9 2q-194 131 -410 240.5t-427 208.5q-31 14 -31 53q0 41 29 53q217 101 434 205t409 231l5 2q10 0 12 -19t2 -42q0 -89 -43 -109q-38 -14 -233.5 -103.5
t-452.5 -221.5z" />
    <glyph glyph-name="equal" unicode="=" horiz-adv-x="1090" 
d="M1024 590h-958v90h958v-90zM1024 276h-958v91h958v-91z" />
    <glyph glyph-name="greater" unicode="&#x3e;" horiz-adv-x="934" 
d="M770 463q-265 135 -456.5 223t-229.5 102q-43 19 -43 109q0 23 2 42t12 19q197 -129 414 -233t434 -205q29 -12 29 -53q0 -39 -31 -53q-211 -99 -427 -208.5t-411 -240.5l-8 -2q-10 0 -14 23.5t-4 38.5q0 32 11 64t36 42q33 15 204 96.5t275 133.5z" />
    <glyph glyph-name="question" unicode="?" horiz-adv-x="817" 
d="M320 359q0 -11 -13.5 -19t-30.5 -8q-34 0 -43 24q-18 86 -18 197q0 97 18.5 171.5t36.5 74.5q41 0 77 -8.5t69 -8.5q127 2 188.5 61.5t61.5 186.5q0 112 -94.5 194.5t-241.5 82.5q-41 0 -58.5 -13.5t-28 -30t-23.5 -29.5t-44 -13q-43 0 -66.5 25.5t-23.5 60.5
q0 39 35 71.5t117 32.5q237 0 372 -119.5t135 -312.5q0 -182 -93.5 -277t-299.5 -108q-25 0 -34 -16.5t-9 -94.5q0 -59 10 -116zM315 162q41 0 71 -24.5t30 -67.5q0 -37 -25.5 -67t-71.5 -30q-40 0 -70 27t-30 66q0 36 26.5 66t69.5 30z" />
    <glyph glyph-name="at" unicode="@" horiz-adv-x="1833" 
d="M1067 109q-35 -56 -84 -92.5t-139 -36.5q-142 0 -225.5 112.5t-83.5 306.5q0 209 103.5 344.5t272.5 135.5q78 0 168 -43q17 -9 27 -9q24 0 55 31q14 14 37 14q16 0 28.5 -4.5t12.5 -13.5v-2q-15 -110 -15 -320l1 -270q0 -67 8 -97.5t26 -50.5t50 -20q116 0 180.5 105
t64.5 297q0 163 -74.5 298t-207.5 208t-305 73q-207 0 -362.5 -84t-240.5 -242.5t-85 -373.5q0 -198 87.5 -367t241.5 -267.5t330 -98.5q91 0 174.5 25.5t83.5 60.5q0 14 -8 21t-17.5 14.5t-16.5 17.5t-7 33q0 32 22.5 53.5t55.5 21.5q45 0 73.5 -30.5t28.5 -73.5
q0 -76 -54 -123.5t-138 -71.5t-197 -24q-217 0 -388.5 107.5t-265.5 294t-94 407.5q0 233 99.5 409t278.5 271.5t403 95.5q194 0 347.5 -81.5t238.5 -231t85 -340.5q0 -246 -93 -382t-300 -136q-86 0 -126 35.5t-56 93.5zM907 811q-77 0 -128.5 -121.5t-51.5 -288.5
q0 -131 44 -227t110 -96q46 0 78 18t55.5 64.5t31 108t7.5 231.5q0 138 -6 196q-5 41 -40.5 78t-99.5 37z" />
    <glyph glyph-name="A" unicode="A" horiz-adv-x="1503" 
d="M485 483q-28 0 -40.5 -9t-22.5 -32l-92 -241q-11 -33 -11 -47q0 -86 160 -97q27 0 27 -34q0 -35 -27 -35q-31 0 -112 8q-82 8 -121 8q-53 0 -102.5 -8t-106.5 -8q-12 0 -19 12t-7 26q0 27 24 31l31 4q74 17 111 55t75 132l463 1165q6 17 33 17q28 0 45 -17
q293 -752 469 -1180q24 -59 47 -91.5t47 -49.5t49 -23t53 -12q23 -4 23 -36q0 -33 -21 -33q-64 0 -126 8q-60 8 -136 8q-87 0 -162 -8t-145 -8q-14 0 -21.5 11t-7.5 26q0 28 27 32q76 10 105.5 27t29.5 66q0 37 -24 107.5t-70 184.5q-10 27 -27.5 34t-56.5 7h-361zM838 563
q44 0 44 23l-5 20l-179 479q-4 11 -16 11t-16 -11l-187 -479q-6 -14 -6 -23q0 -20 35 -20h330z" />
    <glyph glyph-name="B" unicode="B" horiz-adv-x="1262" 
d="M502 815q0 -27 9 -40t40 -13h39q167 0 238 67t71 205q0 133 -66.5 197.5t-207.5 64.5h-70q-31 0 -42 -14.5t-11 -79.5v-387zM502 403q0 -155 13.5 -214.5t48 -82t145.5 -22.5q143 0 200.5 68t57.5 204q0 160 -83.5 240t-275.5 80h-39q-42 0 -54.5 -14t-12.5 -68v-191z
M279 1032q0 115 -18.5 172.5t-54.5 81t-128 31.5q-11 0 -17 10.5t-6 23.5q0 31 23 31q68 0 124 -4t130 -4l293 8q240 0 370.5 -85.5t130.5 -245.5q0 -105 -60 -180t-187 -121q-11 -5 -11 -13t11 -10q160 -44 250 -130t90 -245q0 -173 -112.5 -265.5t-338.5 -92.5l-186 5
l-201 5q-108 0 -210 -9l-80 -7q-10 0 -16 10.5t-6 24.5q0 32 23 34q112 13 149.5 54t37.5 135v786z" />
    <glyph glyph-name="C" unicode="C" horiz-adv-x="1411" 
d="M813 1417q156 0 324 -82q22 -10 41.5 -19t33.5 -9q33 0 43 39q4 15 32 15q30 0 30 -15v-3q-14 -56 -14 -139q0 -57 8 -114.5t16 -118.5q0 -9 -11 -14.5t-26 -5.5q-32 0 -35 18q-99 358 -454 358q-213 0 -335 -160.5t-122 -455.5q0 -189 55.5 -334.5t159.5 -228t250 -82.5
q153 0 236.5 36t146 133.5t84.5 241.5q3 21 26 21q15 0 28.5 -9t13.5 -16l-1 -4q-10 -68 -10 -162q0 -55 15 -295q0 -13 -10 -19t-22 -6q-26 0 -30 19q-7 34 -29 55t-49 21q-22 0 -49 -14q-92 -51 -169.5 -69.5t-194.5 -18.5q-363 0 -538 181t-175 519q0 225 90 393.5
t255.5 256t385.5 87.5z" />
    <glyph glyph-name="D" unicode="D" horiz-adv-x="1509" 
d="M279 1032q0 115 -19.5 170t-62.5 83t-119 32q-25 0 -25 32q0 12 6 22.5t19 10.5q68 0 124 -4t130 -4q85 0 166 4t166 4q219 0 398 -93t277.5 -257.5t98.5 -365.5q0 -212 -87.5 -365t-252 -233t-381.5 -80q-93 0 -179.5 8t-156.5 8q-110 0 -212 -10l-79 -8q-10 0 -17.5 11
t-7.5 25q0 29 29 33q82 12 117.5 31.5t51.5 56t16 101.5v788zM502 385q0 -147 17 -203t62 -78t177 -22q193 0 305.5 159t112.5 427q0 328 -145 473t-456 145q-40 0 -56.5 -14.5t-16.5 -54.5v-832z" />
    <glyph glyph-name="E" unicode="E" horiz-adv-x="1229" 
d="M1067 1376q22 0 33 -4.5t11 -22.5l-1 -10q-4 -21 -4 -75v-33l6 -172q0 -8 -10.5 -12.5t-22.5 -4.5q-28 0 -32 17q-19 109 -39.5 151t-56.5 59t-160 21h-123q-104 0 -126.5 -8.5t-31 -30.5t-8.5 -100v-358q0 -43 30 -43q113 0 167.5 12t79.5 42t36 130q4 22 38 22
q30 0 30 -22q0 -43 -6 -109q-7 -67 -7 -118q0 -63 6 -112q7 -44 7 -122q0 -20 -32 -20t-36 20q-11 106 -34.5 137t-77 42.5t-171.5 11.5q-30 0 -30 -37v-269q0 -140 19 -188t69.5 -66t195.5 -18q114 0 158 16q94 35 127.5 83.5t48.5 158.5q4 21 39 21q15 0 26 -5.5t11 -14.5
l-18 -157q-7 -67 -7 -129v-30q0 -14 -13.5 -21.5t-33.5 -7.5h-743q-107 0 -287 -12q-13 0 -20 11t-7 25q0 29 25 33q107 13 147 55t40 134v788q0 116 -18 172t-54.5 79t-128.5 32q-23 0 -23 31q0 13 6 23.5t17 10.5l254 -6h735z" />
    <glyph glyph-name="F" unicode="F" horiz-adv-x="1145" 
d="M1067 1376q22 0 33 -4.5t11 -22.5l-1 -10q-4 -46 -4 -101v-35l6 -142q0 -9 -10.5 -14.5t-23.5 -5.5q-29 0 -34 20q-20 115 -39.5 154t-55.5 55.5t-158 19.5h-123q-101 0 -124.5 -10.5t-32.5 -37t-9 -91.5v-375q0 -43 30 -43q95 0 149 8.5t81.5 29.5t37 57t15.5 90
q4 24 37 24q12 0 21.5 -6t9.5 -18q0 -44 -6 -110q-7 -67 -7 -118q0 -61 6 -112q7 -44 7 -121q0 -20 -28 -20q-13 0 -25.5 6t-14.5 18q-10 105 -33.5 135t-76 40.5t-173.5 10.5q-30 0 -30 -37v-327q0 -86 17.5 -129.5t58.5 -64.5t159 -32q27 0 27 -33q0 -14 -7.5 -25
t-21.5 -11q-109 0 -189 8t-153 8q-78 0 -153.5 -8t-147.5 -8q-12 0 -18.5 10.5t-6.5 24.5q0 30 25 34q88 9 123.5 28t49.5 58t14 121v770q0 113 -17 169t-52 81.5t-132 34.5q-25 0 -25 32q0 12 6 22.5t19 10.5q68 0 124 -4t130 -4h735z" />
    <glyph glyph-name="G" unicode="G" horiz-adv-x="1536" 
d="M1348 168q0 -16 -11 -21q-53 -38 -102 -70t-111.5 -53.5t-145.5 -32.5t-200 -11q-334 0 -515 186t-181 528q0 219 88 383t252 252t381 88q186 0 352 -90q48 -26 75 -26q26 0 40 38q3 18 31 18q13 0 21.5 -4.5t8.5 -12.5v-3q-14 -60 -14 -132q0 -77 16 -238
q0 -12 -12.5 -21t-27.5 -9q-28 0 -31 21q-29 179 -153 274t-316 95q-138 0 -239 -77t-155.5 -215.5t-54.5 -307.5q0 -310 121.5 -485.5t333.5 -175.5q194 0 274 62t80 196q0 76 -12 110.5t-44.5 51t-144.5 26.5q-26 0 -26 32q0 11 6 20t16 9q72 0 149 -5t136 -5l108 5l132 5
q20 0 20 -29q0 -28 -25 -32q-49 -4 -74 -16.5t-35.5 -35.5t-10.5 -104v-188z" />
    <glyph glyph-name="H" unicode="H" horiz-adv-x="1698" 
d="M1153 750q25 0 36 8t11 33v278q0 102 -17 148.5t-58 69.5t-119 28q-13 0 -19 11t-6 24q0 32 25 32q65 0 149 -6t158 -6l81 2q190 10 226 10q21 0 21 -28q0 -14 -6.5 -26.5t-16.5 -12.5q-82 -5 -122.5 -26t-56.5 -66t-16 -154v-803q0 -87 14.5 -126t50.5 -57.5t134 -27.5
q12 -2 19.5 -12t7.5 -22q0 -13 -7.5 -23t-21.5 -10q-82 0 -156.5 8t-148.5 8q-78 0 -161 -8t-150 -8q-25 0 -25 33q0 30 25 34q98 9 133.5 27t49 55t13.5 129v340q0 53 -45 53h-612q-45 0 -45 -41v-352q0 -88 14 -126.5t49.5 -56.5t134.5 -28q27 -4 27 -34q0 -13 -7 -23
t-22 -10q-82 0 -156.5 8t-148.5 8q-78 0 -161 -8t-150 -8q-12 0 -18.5 10t-6.5 23q0 30 25 34q98 9 133.5 27t49 55t13.5 129v803q0 102 -17 148.5t-58 69.5t-119 28q-12 0 -18.5 11t-6.5 24q0 12 6.5 22t18.5 10q65 0 149 -6t158 -6l81 2q190 10 226 10q22 0 22 -28
q0 -14 -7 -26.5t-17 -12.5q-80 -5 -121 -25.5t-57 -63.5t-16 -157v-278q0 -41 45 -41h610z" />
    <glyph glyph-name="I" unicode="I" horiz-adv-x="772" 
d="M272 1069q0 102 -17 148.5t-58 69.5t-119 28q-12 0 -18.5 11t-6.5 24q0 12 6.5 22t18.5 10q65 0 149 -6t158 -6l81 2q190 10 226 10q22 0 22 -28q0 -14 -7 -26.5t-17 -12.5q-80 -5 -121 -25.5t-57 -63.5t-16 -157v-803q0 -89 14.5 -127t52 -55.5t131.5 -26.5
q13 -2 20 -13t7 -23q0 -13 -7 -23t-22 -10q-82 0 -156.5 8t-148.5 8q-78 0 -161 -8t-150 -8q-25 0 -25 33q0 32 25 36q96 9 132.5 26.5t50 53.5t13.5 129v803z" />
    <glyph glyph-name="J" unicode="J" horiz-adv-x="776" 
d="M506 59q0 -139 -56.5 -252.5t-158 -178t-223.5 -64.5q-130 0 -201.5 50.5t-71.5 137.5q0 45 31.5 78t77.5 33q44 0 75 -27t31 -67q0 -18 -14 -38t-14 -38q0 -27 27 -41t69 -14q104 0 154.5 74.5t50.5 242.5v1114q0 102 -17.5 148t-58.5 68.5t-119 27.5q-25 0 -25 34
q0 13 6 24t19 11q66 0 150 -6t157 -6l81 2q190 10 226 10q22 0 22 -30q0 -14 -6.5 -26.5t-17.5 -12.5q-82 -5 -121.5 -24.5t-56 -63.5t-16.5 -156v-1010z" />
    <glyph glyph-name="K" unicode="K" horiz-adv-x="1495" 
d="M272 1069q0 102 -17 148.5t-58 69.5t-119 28q-12 0 -18.5 11t-6.5 24q0 12 6.5 22t18.5 10q65 0 149 -7t158 -7q70 0 146 7q75 7 143 7q12 0 18 -10t6 -22q0 -13 -6 -24t-16 -11q-76 -5 -113 -23.5t-52 -56.5t-15 -166v-377q0 -20 22 -20q13 0 23 10q186 186 309.5 351
t124.5 218q0 28 -22.5 42t-94.5 22q-27 4 -27 35q0 32 23 32q72 0 128 -7t118 -7q55 0 98 7t107 7q20 0 20 -32q0 -31 -20 -35q-79 -8 -118 -28.5t-87 -90.5q-167 -234 -324 -399q-7 -8 -7 -18q0 -20 24 -42q197 -181 407 -526q43 -72 94.5 -110t137.5 -46q24 -4 24 -34
q0 -13 -6 -23t-18 -10q-72 0 -221 13l-74 3l-72 -3q-143 -13 -203 -13q-13 0 -20 12t-7 24q0 10 6.5 20.5t20.5 10.5q56 5 78.5 22t22.5 47q0 23 -17 56q-80 156 -132 226t-142 157q-21 17 -41.5 29t-59.5 12q-75 0 -75 -80v-258q0 -97 10.5 -133t37 -52t118.5 -26
q11 -2 17 -14t6 -24q0 -29 -26 -29q-67 0 -203 13l-69 3q-78 0 -161 -8t-150 -8q-25 0 -25 33q0 30 25 34q98 9 133.5 27t49 55t13.5 129v803z" />
    <glyph glyph-name="L" unicode="L" horiz-adv-x="1247" 
d="M276 1069q0 103 -17.5 150t-58 69t-118.5 27q-25 0 -25 33q0 34 25 34q65 0 149 -6t158 -6l81 2q190 10 226 10q22 0 22 -30q0 -14 -6.5 -25.5t-17.5 -11.5q-83 -5 -122.5 -25.5t-55.5 -66t-16 -154.5v-713q0 -123 23.5 -173t84.5 -73.5t176 -23.5q108 0 168 27t99 89.5
t67 174.5q4 20 39 20q15 0 26 -5t11 -14v-3q-25 -221 -25 -316v-30q0 -14 -13.5 -21.5t-33.5 -7.5h-743q-81 0 -154 -5t-145 -9q-14 0 -21.5 10t-7.5 23t7.5 23.5t21.5 12.5q109 14 140.5 31.5t43.5 54t12 123.5v805z" />
    <glyph glyph-name="M" unicode="M" horiz-adv-x="1849" 
d="M262 1126q0 75 -13.5 111t-46 53.5t-124.5 24.5q-12 0 -19.5 11t-7.5 24q0 12 7.5 22t19.5 10h56q367 0 374 -28l416 -977q4 -6 9 -6t9 6l410 977q3 13 160 20.5t253 7.5q23 0 23 -32q0 -31 -23 -35q-69 -12 -108 -22.5t-57.5 -38t-22.5 -81t-4 -151.5v-756
q0 -89 14.5 -127t52 -55.5t132.5 -26.5q12 -2 19 -13t7 -23q0 -13 -7 -23t-22 -10q-81 0 -156 8t-149 8q-78 0 -160.5 -8t-150.5 -8q-12 0 -18.5 10t-6.5 23q0 12 6.5 23t18.5 13q99 9 135 27.5t49 57t13 124.5v760q0 13 -14 13q-19 0 -23 -13l-295 -694q-39 -90 -119 -328
q-4 -12 -30 -12q-27 0 -31 12l-451 1032q-5 13 -20 13q-11 0 -11 -15v-762q0 -73 12.5 -114t36 -61.5t58.5 -28t82 -13.5q20 -4 20 -34q0 -33 -22 -33q-45 0 -99.5 8t-128.5 8q-77 0 -137.5 -8t-101.5 -8q-11 0 -17.5 11.5t-6.5 24.5q0 27 24 31q53 6 89 13.5t57.5 28
t30.5 61.5t9 114v854z" />
    <glyph glyph-name="N" unicode="N" horiz-adv-x="1612" 
d="M262 1153q0 74 -45.5 113.5t-142.5 48.5q-21 0 -21 34q0 33 23 33h77l109 -3q142 -8 154 -25l825 -981q3 -4 10 -4q15 0 15 14v551q0 230 -19 287q-11 35 -24 53t-34.5 26.5t-94.5 14.5q-21 0 -21 35q0 32 21 32q49 0 105 -6t114 -6q53 0 105 6t118 6q12 0 18.5 -10.5
t6.5 -23.5t-6.5 -23t-18.5 -10l-58 -6q-32 -3 -50.5 -20t-41.5 -68q-28 -70 -28 -344v-887q0 -7 -17 -12t-35 -5q-28 0 -34 11l-881 1044q-5 6 -19 6t-14 -16v-746q0 -73 11.5 -113.5t35 -61t58.5 -27.5t82 -13q23 -4 23 -34q0 -13 -6.5 -23t-18.5 -10q-45 0 -99.5 7
t-128.5 7q-78 0 -137.5 -7t-101.5 -7q-11 0 -17.5 10.5t-6.5 23.5q0 29 24 33q53 6 89 13t57.5 27.5t30.5 61t9 113.5v881z" />
    <glyph glyph-name="O" unicode="O" horiz-adv-x="1536" 
d="M768 -20q-322 0 -504 182t-182 545q0 202 88 366t245.5 254t358.5 90q199 0 354.5 -88t240.5 -249t85 -367q0 -220 -86.5 -386.5t-244.5 -256.5t-355 -90zM776 66q123 0 218.5 85t146.5 229.5t51 315.5q0 195 -49 338.5t-143.5 220t-231.5 76.5q-130 0 -225.5 -80.5
t-147 -226t-51.5 -326.5q0 -314 111.5 -473t320.5 -159z" />
    <glyph glyph-name="P" unicode="P" horiz-adv-x="1159" 
d="M502 283q0 -123 49.5 -170t185.5 -56q27 0 27 -35q0 -34 -29 -34q-110 0 -189 8t-153 8q-78 0 -153.5 -8t-147.5 -8q-13 0 -19 11.5t-6 24.5q0 29 25 33q88 9 123 28t49.5 57.5t14.5 121.5v764q0 104 -11 153t-34 80t-62 39q-62 14 -94 17q-12 0 -18.5 10t-6.5 23
q0 12 6.5 22t18.5 10q69 0 124.5 -6t129.5 -6q123 2 203.5 7t154.5 5q213 0 323.5 -93.5t110.5 -258.5q0 -194 -142 -295.5t-441 -111.5q-21 0 -30 -6.5t-9 -34.5v-299zM502 727q0 -16 9 -20.5t34 -4.5q136 0 210 28.5t108 91.5t34 184q0 161 -59.5 227.5t-204.5 66.5
q-80 0 -105.5 -20t-25.5 -84v-469z" />
    <glyph glyph-name="Q" unicode="Q" horiz-adv-x="1534" 
d="M768 -20q-328 0 -507 194t-179 549q0 202 87 361t246 246t359 87q197 0 352.5 -86t241.5 -244t86 -360q0 -251 -96 -417t-254 -251q140 -292 274 -292q74 0 108 23.5t58 84.5q6 15 25 15q17 0 29.5 -11t12.5 -23l-1 -6q-36 -140 -120 -213t-204 -73q-65 0 -129 49
t-126 151.5t-109 231.5q-76 -16 -154 -16zM711 408q77 0 161 -48t158 -174q79 91 120.5 226t41.5 284q0 299 -110 467t-314 168q-130 0 -225.5 -80.5t-147 -226t-51.5 -326.5q0 -309 105 -467q32 87 101.5 132t160.5 45zM776 66q58 0 111 18q-61 121 -110 183.5t-113 60.5
q-39 0 -75.5 -28t-57.5 -63.5t-21 -54.5q0 -17 48.5 -48t107 -49.5t110.5 -18.5z" />
    <glyph glyph-name="R" unicode="R" horiz-adv-x="1374" 
d="M279 1032q0 115 -18.5 172.5t-54.5 81t-128 31.5q-25 0 -25 32q0 12 6 22.5t19 10.5q68 0 124 -4t130 -4l358 8q203 0 323 -96.5t120 -265.5q0 -275 -308 -340q-14 -4 -14 -13q0 -10 14 -18q120 -60 184 -146t93 -245q17 -90 28 -117t31.5 -42t40.5 -15q25 0 47.5 20
t34.5 62q5 24 29 24q15 0 27 -9.5t12 -19.5v-3q-10 -88 -74 -141.5t-160 -53.5q-65 0 -113 25.5t-69 66.5t-74 259l-18 71q-38 131 -96 188t-162 58q-84 0 -84 -72v-276q0 -80 20.5 -126.5t64.5 -69.5t140 -30q13 0 19.5 -11t6.5 -24t-7 -23.5t-21 -10.5q-73 0 -180 8
t-152 8q-78 0 -153.5 -8t-147.5 -8q-12 0 -18.5 10.5t-6.5 24.5q0 30 25 34q88 9 123.5 28t49.5 58t14 121v768zM502 788q0 -53 29 -62t90 -9q158 0 219 64.5t61 232.5q0 155 -59.5 218.5t-208.5 63.5q-80 0 -105.5 -20.5t-25.5 -83.5v-404z" />
    <glyph glyph-name="S" unicode="S" horiz-adv-x="1073" 
d="M287 1106q0 -76 44 -130t135 -94q221 -99 301.5 -151t129 -110.5t70.5 -120.5t22 -144q0 -122 -63.5 -208t-175.5 -131.5t-254 -45.5q-58 0 -129.5 17.5t-130.5 52.5q-11 4 -20 8t-23 4q-39 0 -60 -55q-10 -20 -33 -20q-12 0 -21 6.5t-9 15.5q16 120 16 203
q0 116 -14 217v4q0 10 9.5 18t24.5 8q29 0 33 -22q27 -173 130.5 -272t244.5 -99q119 0 199 63.5t80 170.5q0 74 -32 129t-79 95t-104.5 69.5t-108.5 54.5q-68 31 -135.5 63.5t-120.5 78.5t-86 110.5t-33 161.5q0 166 125 258t344 92q58 0 97.5 -7t89.5 -24q58 -18 77 -18
q25 0 35 20q7 14 31 14q10 0 20.5 -4t10.5 -11v-3q-17 -57 -17 -151q0 -54 6.5 -97t10.5 -102q0 -7 -11 -12.5t-22 -5.5q-25 0 -29 18q-28 125 -62.5 185t-93.5 86t-165 26q-114 0 -184 -58t-70 -153z" />
    <glyph glyph-name="T" unicode="T" horiz-adv-x="1323" 
d="M770 266q0 -98 13 -132t49.5 -51t136.5 -26q12 -2 19 -13t7 -23q0 -13 -7 -23t-21 -10q-82 0 -157 8t-148 8q-78 0 -161 -8t-151 -8q-12 0 -18 10t-6 23q0 32 24 36q99 9 135 27.5t49 57t13 124.5v910q0 75 -38 94.5t-128 19.5q-105 0 -156.5 -21t-82 -72t-54.5 -173
q-3 -19 -32 -19q-12 0 -22.5 6.5t-10.5 14.5q9 86 9 169q0 72 -9 142q0 39 92 39h1095q39 0 64.5 -7t25.5 -30q-10 -60 -10 -139q0 -71 10 -174q0 -9 -12.5 -16.5t-26.5 -7.5q-27 0 -30 20q-16 107 -46 163t-83.5 80.5t-157.5 24.5q-92 0 -133 -19.5t-41 -94.5v-910z" />
    <glyph glyph-name="U" unicode="U" horiz-adv-x="1620" 
d="M1376 541q0 -290 -134.5 -429t-412.5 -139q-294 0 -425.5 123.5t-131.5 399.5v573q0 102 -17 148.5t-58 69.5t-119 28q-12 0 -18.5 11t-6.5 24q0 12 6.5 22t18.5 10q65 0 149 -7t158 -7q72 0 155 7q82 7 152 7q22 0 22 -28q0 -14 -7 -26.5t-17 -12.5q-80 -5 -121 -25.5
t-57 -63.5t-16 -157v-559q0 -196 101 -312t269 -116q199 0 303.5 109.5t104.5 347.5v427q0 88 -6 167t-28 127t-76 50l-62 5q-10 0 -15.5 11t-5.5 24q0 32 21 32q49 0 104.5 -7t112.5 -7q53 0 106.5 7t118.5 7q12 0 18.5 -10t6.5 -22q0 -13 -6.5 -24t-18.5 -11l-58 -5
q-28 -1 -45 -16t-34.5 -54t-24.5 -99t-7 -141l1 -119v-340z" />
    <glyph glyph-name="V" unicode="V" horiz-adv-x="1393" 
d="M-53 1350q0 12 6 22t18 10q78 0 151.5 -6t145.5 -6q76 0 157.5 6t156.5 6q30 0 30 -31q0 -13 -8 -24.5t-22 -11.5q-72 0 -97.5 -7.5t-41 -25.5t-15.5 -51q0 -104 334 -932q3 -9 16 -10q10 0 15 10q161 414 234 627t73 284q0 41 -11 63t-33.5 32t-97.5 10q-14 0 -21 10.5
t-7 23.5q0 33 24 33q66 0 125.5 -6t118.5 -6q57 0 109.5 6t115.5 6q22 0 22 -30q0 -33 -32 -37q-80 -7 -132 -52.5t-85 -137.5l-41 -107l-399 -1024q-12 -29 -45 -29q-31 0 -43 29q-119 276 -231.5 547.5t-209.5 548.5q-37 105 -64.5 140t-70 54.5t-121.5 30.5q-24 4 -24 35
z" />
    <glyph glyph-name="W" unicode="W" horiz-adv-x="1909" 
d="M965 949q-18 0 -23 -15l-278 -950q-8 -19 -48 -19q-35 0 -43 21q-144 399 -222.5 645.5t-135.5 453.5q-29 101 -56.5 141t-69 62t-103.5 27q-11 1 -17 12.5t-6 24.5q0 30 23 30q67 0 148 -7q80 -7 140 -7q79 0 163 7t169 7q11 0 16.5 -9.5t5.5 -20.5q0 -13 -6.5 -24.5
t-17.5 -12.5l-61 -3q-117 -6 -117 -89q0 -97 231 -865q5 -12 20 -13q12 0 17 13q83 258 149 510l132 500q6 21 44 21q36 0 40 -21q172 -585 332 -1012q6 -16 21 -16q10 0 13 10q97 296 150 519.5t53 318.5q0 69 -28 97t-105 30q-27 0 -27 31q0 13 7 24.5t20 11.5
q54 0 121 -7q66 -7 113 -7q44 0 98 7t104 7q11 0 18 -11t7 -24q0 -30 -29 -32q-62 -4 -104.5 -50t-78 -153.5t-355.5 -1123.5q-8 -23 -50 -23q-18 0 -33 6t-18 17q-175 468 -313 948q-5 13 -10 13z" />
    <glyph glyph-name="X" unicode="X" horiz-adv-x="1434" 
d="M1438 21q0 -13 -6.5 -23t-16.5 -10q-78 0 -145.5 8t-139.5 8q-73 0 -151 -8t-152 -8q-12 0 -18 10t-6 22q0 33 24 37q140 7 140 52q0 20 -27 64t-61 97q-207 306 -232 306q-21 0 -151.5 -192.5t-130.5 -233.5q0 -44 37 -65.5t110 -27.5q12 -2 19.5 -13t7.5 -24
q0 -12 -7.5 -22t-19.5 -10q-59 0 -121.5 8t-124.5 8q-57 0 -114.5 -8t-122.5 -8q-15 0 -22 10t-7 22q0 33 31 37q94 11 139.5 38t99.5 114q117 179 301 422q12 14 12 31q0 12 -10 24q-245 312 -374 508q-46 68 -84.5 91t-104.5 30q-24 4 -24 35q0 32 22 32q76 0 142.5 -6
t132.5 -6q69 0 144 6t153 6q8 0 13.5 -11.5t5.5 -25.5q0 -27 -19 -30q-68 -8 -97.5 -23.5t-29.5 -44.5q0 -30 49 -100q128 -196 219 -307q8 -11 16 -11q10 0 21 13q90 117 159.5 234t69.5 163q0 63 -78 70q-60 5 -68.5 12.5t-8.5 22.5q0 14 6.5 26t17.5 12q66 0 125 -6
t119 -6q53 0 102 6t109 6q12 0 18 -11t6 -23q0 -33 -24 -33l-47 -3q-25 -1 -39 -5.5t-47 -28.5q-38 -33 -129 -160l-250 -346q-5 -7 -5 -15q0 -14 13 -32l210 -276q105 -138 202 -277q46 -69 82 -88.5t110 -26.5q12 -2 19.5 -13t7.5 -23z" />
    <glyph glyph-name="Y" unicode="Y" horiz-adv-x="1329" 
d="M786 264q0 -86 14 -125t51 -56.5t134 -27.5q12 -2 19.5 -13t7.5 -23q0 -13 -7.5 -23t-21.5 -10q-82 0 -156.5 9t-148.5 9q-78 0 -161 -9t-150 -9q-25 0 -25 33q0 32 25 36q96 9 132.5 26.5t50 53.5t13.5 129v268l-143 263q-214 401 -279 471q-26 28 -62 34.5t-89 14.5
q-10 2 -16.5 12t-6.5 23q0 12 6.5 22t16.5 10q82 0 153.5 -6t141.5 -6q75 0 151 6t148 6q26 0 26 -32q0 -13 -7 -23t-19 -12q-78 -8 -110 -26.5t-32 -53.5q0 -39 39 -113l244 -465q6 -10 18 -10q11 0 17 10q130 213 203 362.5t73 201.5q0 42 -19.5 62t-60.5 25l-57 7
q-22 4 -22 35q0 12 6 22t16 10q76 0 132 -6t114 -6q47 0 97 6t110 6q22 0 22 -32q0 -13 -6 -24t-18 -11q-44 -4 -85 -28.5t-70 -60.5t-109.5 -169.5t-299.5 -503.5v-289z" />
    <glyph glyph-name="Z" unicode="Z" horiz-adv-x="1165" 
d="M1055 0h-973q-13 0 -21.5 9t-8.5 20q0 10 7 22q169 304 357 603q187 298 360 591q5 10 5 18q0 19 -19 19h-244q-121 0 -188 -24t-106.5 -78.5t-65.5 -157.5q-4 -18 -37 -18q-35 0 -35 20v4q20 158 20 249l-2 60q0 33 50 33h864q48 0 48 -37q0 -14 -9 -30
q-111 -205 -349 -584q-248 -395 -354 -584q-7 -11 -7 -21q0 -26 30 -26h268q166 0 226.5 24t96.5 83t68 196q4 25 38 25q15 0 26.5 -6.5t11.5 -15.5v-3q-18 -118 -25 -323q0 -38 -6 -53t-26 -15z" />
    <glyph glyph-name="bracketleft" unicode="[" horiz-adv-x="555" 
d="M170 1427q25 -300 25 -786q0 -511 -25 -850q61 -26 236 -30l88 -3q8 0 13 -10t5 -22q0 -13 -5 -23t-13 -10h-463q18 239 35.5 474.5t17.5 471.5q0 223 -16.5 441t-36.5 438h463q12 0 18 -10.5t6 -22.5t-6 -22.5t-18 -10.5l-89 -3q-195 -4 -235 -22z" />
    <glyph glyph-name="backslash" unicode="\" horiz-adv-x="559" 
d="M442 -358l-422 1769h134l415 -1769h-127z" />
    <glyph glyph-name="bracketright" unicode="]" horiz-adv-x="555" 
d="M41 1485q0 12 6 22.5t19 10.5h462q-20 -220 -36.5 -438t-16.5 -441q0 -236 17.5 -471.5t35.5 -474.5h-462q-19 0 -19 33q0 32 19 32l88 3q177 4 235 30q-24 326 -24 850q0 498 24 786q-40 18 -234 22l-89 3q-13 0 -19 10.5t-6 22.5z" />
    <glyph glyph-name="asciicircum" unicode="^" horiz-adv-x="864" 
d="M434 1403q41 0 49 -21l351 -864l4 -13q0 -6 -7.5 -11t-18.5 -5l-41 4q-31 8 -38 25l-301 754l-309 -754q-13 -29 -70 -29q-23 0 -24 18l4 17l348 858q8 21 53 21z" />
    <glyph glyph-name="underscore" unicode="_" horiz-adv-x="758" 
d="M737 -117v-116h-717v116h717z" />
    <glyph glyph-name="grave" unicode="`" horiz-adv-x="479" 
d="M444 1060q0 -14 -11.5 -27.5t-25.5 -13.5q-13 0 -28 11q-151 106 -283 250q-63 66 -63 121q0 30 27.5 51t66.5 21q40 0 62.5 -30.5t43.5 -70.5q93 -159 203 -291q8 -10 8 -21z" />
    <glyph glyph-name="a" unicode="a" horiz-adv-x="1006" 
d="M616 430q0 23 -2 28t-10 5q-168 -14 -249 -72.5t-81 -148.5q0 -71 34.5 -108.5t99.5 -37.5q71 0 139.5 36.5t68.5 68.5v229zM809 221q0 -72 15.5 -100.5t49.5 -28.5q23 0 37.5 5t40.5 22l7 3q7 0 18 -12.5t11 -23.5q0 -7 -5 -12q-35 -42 -83 -68t-97 -26
q-63 0 -105.5 24.5t-68.5 81.5q-2 5 -6 5l-7 -3q-66 -54 -132.5 -81t-164.5 -27q-118 0 -182.5 62t-64.5 177q0 151 136.5 231t399.5 80q3 0 4.5 2t2 12.5t1 32t0.5 60.5q0 131 -48.5 189.5t-147.5 58.5q-60 0 -105 -30t-45 -77q0 -21 14 -44q15 -21 15 -44q0 -28 -29.5 -55
t-68.5 -27q-56 0 -79.5 30t-23.5 73q0 101 105 174t254 73q164 0 258 -75.5t94 -251.5v-410z" />
    <glyph glyph-name="b" unicode="b" horiz-adv-x="1106" 
d="M367 205q0 -22 27 -56.5t73 -60t94 -25.5q252 0 252 420q0 185 -49 265.5t-152 80.5q-62 0 -121.5 -32t-91.5 -77.5t-32 -84.5v-430zM174 1038q0 166 -10 204t-35.5 54t-95.5 23q-21 0 -21 32q0 31 19 31q47 3 167 25q110 20 128 20q41 0 41 -26v-596q0 -4 3 -4l5 4
q39 59 111.5 106t179.5 47t189.5 -59t127.5 -162.5t45 -230.5q0 -162 -64.5 -281t-183.5 -182t-272 -63q-72 0 -154 9t-180 44v1005z" />
    <glyph glyph-name="c" unicode="c" horiz-adv-x="948" 
d="M287 502q0 -170 97 -280.5t243 -110.5q141 0 237 67l12 4q11 0 21 -12t11 -23q0 -20 -59.5 -71t-143.5 -73.5t-173 -22.5q-125 0 -231 62t-167.5 175.5t-61.5 257.5q0 141 62 251.5t178 171t268 60.5q134 0 223.5 -61t89.5 -156q0 -37 -25 -69t-77 -33q-43 0 -71 22.5
t-28 65.5q0 29 15 47q16 19 16 35q0 37 -50.5 56.5t-107.5 19.5q-130 0 -204 -102t-74 -281z" />
    <glyph glyph-name="d" unicode="d" horiz-adv-x="1126" 
d="M737 772q-39 49 -84 72.5t-108 23.5q-139 0 -200.5 -91t-61.5 -310q0 -159 62 -265t155 -106q148 0 237 107v569zM930 356q0 -154 12.5 -195t43 -58t97.5 -17q19 0 19 -30q0 -31 -19 -31q-55 0 -172.5 -22.5t-132.5 -22.5q-16 0 -26.5 28.5t-10.5 79.5q0 8 -3 8l-11 -6
q-63 -57 -122.5 -83.5t-145.5 -26.5q-183 0 -287 123t-104 329q0 160 63 278.5t175 183t247 64.5q102 0 184 -40v124q0 146 -12 189t-43 61.5t-121 26.5q-18 0 -18 32q0 31 18 31q58 2 283 39l51 6q30 0 35 -26v-1045z" />
    <glyph glyph-name="e" unicode="e" horiz-adv-x="997" 
d="M305 522q-10 0 -11 -7t-1 -17q0 -188 84.5 -287.5t243.5 -99.5q163 0 253 65q6 6 13 6q10 0 21 -14t11 -23q0 -17 -58 -69.5t-129 -74t-169 -21.5q-227 0 -356 129.5t-129 359.5q0 135 59.5 248t165.5 177t236 64q169 0 275 -110.5t106 -282.5q0 -43 -31 -43h-584z
M680 594q20 0 28.5 11t8.5 59q0 90 -53 155.5t-138 65.5q-94 0 -152 -60.5t-73 -175.5l-3 -33q0 -22 9 -22h373z" />
    <glyph glyph-name="f" unicode="f" horiz-adv-x="711" 
d="M420 244q0 -95 15 -123.5t52 -44t117 -25.5q23 -4 23 -29q0 -32 -21 -32q-82 0 -146.5 7t-125.5 7q-66 0 -131.5 -7t-126.5 -7q-21 0 -21 29q2 31 23 32q68 10 97 24t40.5 41t11.5 122v561q0 30 -5.5 34.5t-28.5 4.5h-103q-24 0 -24 34q0 14 6.5 26.5t19.5 14.5l111 11
q15 0 18.5 6t4.5 20.5t1 57.5q0 187 112.5 303t305.5 116q132 0 206.5 -53t74.5 -145q0 -37 -28.5 -63.5t-70.5 -26.5q-37 0 -63.5 18.5t-26.5 50.5q0 31 9 40q10 9 10 24q0 42 -34.5 62t-88.5 20q-57 0 -96 -19t-64.5 -54.5t-39 -94t-13.5 -189.5v-39q0 -24 4 -29t27 -5
h198q25 0 25 -43t-25 -43h-198q-21 0 -26 -4.5t-5 -34.5v-555z" />
    <glyph glyph-name="g" unicode="g" horiz-adv-x="1182" 
d="M500 311q106 0 152 70t46 203q0 166 -43.5 233.5t-132.5 67.5q-99 0 -153 -75.5t-54 -223.5q0 -135 47.5 -205t137.5 -70zM858 795q52 -78 57 -189q0 -169 -120 -269.5t-301 -100.5q-110 0 -169 -23t-59 -66q0 -38 63 -59t228 -31q283 -16 399.5 -97t116.5 -239
q0 -104 -65.5 -187.5t-188 -131t-282.5 -47.5q-244 0 -376 80t-132 233q0 82 51.5 151t134.5 97q-66 21 -102.5 64.5t-36.5 99.5q0 88 63 138t183 56l2 3l-2 2q-105 40 -164.5 113t-59.5 196q0 168 117.5 269t312.5 101q109 0 173.5 -30.5t117.5 -79.5q92 92 211 92
q72 0 114 -26.5t42 -71.5q0 -90 -90 -90q-39 0 -51.5 16t-18.5 34.5t-14 35t-39 16.5q-33 0 -66 -16.5t-49 -42.5zM303 -104q-35 -25 -55.5 -75t-20.5 -97q0 -81 45.5 -143t124.5 -98t168 -36q93 0 171 31.5t119.5 86.5t41.5 120q0 69 -57.5 112.5t-168.5 66t-368 32.5z" />
    <glyph glyph-name="h" unicode="h" horiz-adv-x="1212" 
d="M389 811l5 -5l5 5q54 70 132.5 108.5t156.5 38.5q174 0 251 -95t77 -249v-378q0 -92 9.5 -119.5t34.5 -42.5t81 -23q20 -4 20 -31q0 -12 -6 -21t-16 -9q-29 0 -87.5 7t-119.5 7q-66 0 -129.5 -7t-108.5 -7q-6 0 -11 9t-5 21q0 27 18 31q58 7 83 21t34.5 45.5t9.5 118.5
v309q0 291 -188 291q-73 0 -128 -34t-86.5 -87.5t-31.5 -104.5v-362q0 -104 8.5 -133.5t30.5 -43t68 -20.5q20 -4 20 -31q0 -12 -5 -21t-13 -9q-27 0 -83.5 7t-117.5 7q-66 0 -125 -7t-106 -7q-9 0 -14 9t-5 21q0 28 21 31q85 11 107 42.5t22 142.5v804q0 134 -10.5 181
t-37.5 66.5t-116 29.5q-10 0 -15.5 10t-5.5 23q0 32 23 32q56 2 275 39l50 6q29 0 29 -28v-588z" />
    <glyph glyph-name="i" unicode="i" horiz-adv-x="588" 
d="M391 248q0 -97 10.5 -127.5t36 -46.5t80.5 -23q22 -4 22 -30q0 -11 -5.5 -21t-16.5 -10q-30 0 -96 7q-67 7 -121 7q-66 0 -128 -7t-120 -7q-20 0 -20 29q0 28 22 32q54 6 83.5 18t43 34t15.5 54t2 79v329q0 138 -9.5 183t-35 65t-99.5 29q-18 0 -18 30q0 11 4.5 21
t13.5 10q84 6 186 24q99 17 111 17q39 0 39 -41v-655zM283 1155q-50 0 -87.5 30.5t-37.5 80.5q0 49 35 80.5t86 31.5q47 0 79.5 -33t32.5 -81q0 -46 -31 -77.5t-77 -31.5z" />
    <glyph glyph-name="j" unicode="j" horiz-adv-x="586" 
d="M389 -178q0 -84 -39.5 -162.5t-111.5 -125t-175 -46.5q-95 0 -159 45t-64 98q0 47 27 77t74 30q43 0 68.5 -21.5t25.5 -54.5q0 -24 -12.5 -38.5t-12.5 -31.5q0 -14 7.5 -26t54.5 -12q49 0 75.5 20.5t38 65t11.5 184.5v743q0 127 -9 176t-33.5 69.5t-103.5 29.5
q-10 0 -15 10t-5 21q0 30 22 30q68 4 172 23q108 20 129 20q19 0 27 -13t8 -26v-1085zM279 1155q-52 0 -87.5 32t-35.5 79t34.5 79.5t85.5 32.5q50 0 81.5 -32.5t31.5 -79.5q0 -45 -31.5 -78t-78.5 -33z" />
    <glyph glyph-name="k" unicode="k" horiz-adv-x="1122" 
d="M1108 -10q-99 6 -137 6l-156 -6q-22 0 -29 28q-20 108 -79.5 207.5t-133 154t-145.5 54.5v-160q0 -106 10.5 -142t36 -54t76.5 -27q20 -4 20 -31q0 -30 -20 -30q-57 0 -104.5 7t-108.5 7q-66 0 -129.5 -7t-128.5 -7q-10 0 -15.5 9t-5.5 21q0 27 23 31q63 7 95.5 21.5
t45.5 42t13 121.5v804q0 142 -12.5 186t-44 63.5t-128.5 27.5q-20 0 -20 33q0 32 22 32q129 13 219 29t125 16q31 0 31 -28v-877q39 25 74 55.5t63.5 63.5t53 63.5t43.5 53.5q36 47 36 71q0 29 -71 33q-11 0 -17 10.5t-6 21.5t6 20.5t17 9.5q58 0 99 -7q41 -8 81 -8
q47 0 96 7.5t96 7.5q9 0 15 -9.5t6 -20.5q0 -28 -21 -32q-58 -6 -92.5 -21.5t-66.5 -46.5q-195 -185 -293 -259q-6 -6 -6 -11q0 -8 8 -8q82 -4 136 -27.5t91 -59.5t62.5 -81t51.5 -93q63 -119 138 -179q21 -15 80 -25q25 -4 25 -31q0 -12 -6.5 -21t-18.5 -9z" />
    <glyph glyph-name="l" unicode="l" horiz-adv-x="655" 
d="M221 1040q0 142 -11 186t-38.5 63t-118.5 28q-10 0 -15.5 11t-5.5 24q0 30 21 30q117 11 227 30q86 15 103 15q16 0 23.5 -9t7.5 -19v-1151q0 -52 2 -86.5t15.5 -56t42.5 -34t83 -20.5q21 -4 21 -33q0 -28 -21 -28q-49 0 -110.5 7t-122.5 7q-66 0 -129 -7t-129 -7
q-11 0 -16.5 9t-5.5 20q0 28 24 32q65 7 96 21t44 42.5t13 121.5v804z" />
    <glyph glyph-name="m" unicode="m" horiz-adv-x="1872" 
d="M389 248q0 -99 11 -129t38.5 -45.5t83.5 -22.5q21 -4 21 -33q0 -28 -21 -28q-34 0 -102 7t-121 7q-66 0 -127 -7t-113 -7q-20 0 -20 29q0 28 22 32q58 9 86 23t39 40.5t11 121.5v303q0 169 -11.5 215t-41 65t-91.5 23q-10 0 -15.5 10.5t-5.5 22.5q0 28 21 28q93 5 189 24
q92 17 104 17q43 0 43 -47l-3 -19q-17 -88 -17 -106q0 -4 3 -4l5 4q21 41 72 86t116.5 72.5t139.5 27.5q231 0 294 -202l5 -5l6 5q50 90 147.5 146t202.5 56q162 0 238.5 -87.5t76.5 -297.5v-325q0 -100 9.5 -130t33 -45t70.5 -22q22 -4 22 -32q0 -11 -5.5 -20t-16.5 -9
q-33 0 -84 7t-119 7q-66 0 -125.5 -7t-107.5 -7q-11 0 -16.5 9t-5.5 20q0 28 24 32q48 6 74.5 18t38.5 34t14 54t2 79v264q0 133 -17.5 197.5t-55 101.5t-103.5 37q-115 0 -195 -91.5t-80 -220.5v-276q0 -107 8.5 -135t29.5 -41t75 -21q22 -4 22 -32q0 -11 -5.5 -20
t-16.5 -9q-33 0 -84 7t-119 7q-66 0 -125.5 -7t-101.5 -7q-9 0 -14 8.5t-5 19.5q0 29 21 33q60 8 82.5 20.5t31.5 40.5t9 124v264q0 186 -47.5 261t-139.5 75q-126 0 -195 -77.5t-69 -215.5v-295z" />
    <glyph glyph-name="n" unicode="n" horiz-adv-x="1204" 
d="M389 248q0 -103 33 -145t110 -54q23 -4 23 -31q0 -12 -6 -21t-17 -9l-165 13l-68 3q-66 0 -125 -7t-113 -7q-10 0 -15 9t-5 20q0 28 22 32q61 10 87 23t36.5 37.5t10.5 124.5v258q0 102 -1 168.5t-14.5 105.5t-42 55.5t-84.5 18.5q-22 0 -22 31q0 10 4 20t12 10
q117 8 197 24.5t102 16.5q41 0 41 -43l-3 -20q-17 -94 -17 -109q0 -4 3 -4l5 4q25 45 78 90.5t115 70.5t128 25q310 0 310 -360v-350q0 -87 10 -121t35.5 -51t81.5 -25q20 -4 20 -31q0 -30 -20 -30q-27 0 -91.5 7t-125.5 7q-66 0 -120.5 -7t-92.5 -7q-11 0 -16.5 10.5
t-5.5 22.5q0 25 19 28q48 9 71.5 25t32.5 43t9 117v311q0 126 -17 176.5t-52.5 81.5t-100.5 31q-123 0 -189.5 -79t-66.5 -227v-282z" />
    <glyph glyph-name="o" unicode="o" horiz-adv-x="1092" 
d="M1016 496q0 -243 -130.5 -379.5t-359.5 -136.5q-208 0 -328 135t-120 372q0 137 59.5 245t169.5 167t246 59q211 0 337 -124.5t126 -337.5zM801 473q0 410 -242 410q-266 0 -266 -414q0 -208 69 -311t187 -103q123 0 187.5 100t64.5 318z" />
    <glyph glyph-name="p" unicode="p" horiz-adv-x="1122" 
d="M389 223q0 -28 30.5 -68.5t79.5 -67t105 -26.5q113 0 172.5 110t59.5 306q0 174 -47.5 261t-157.5 87q-109 0 -175.5 -66.5t-66.5 -158.5v-377zM197 494q0 177 -11 237.5t-41.5 84.5t-93.5 26q-10 0 -15 10t-5 21q0 10 4 20t12 10q129 10 205 25.5t100 15.5q23 0 27 -12
t4 -23q0 -16 -5 -49t-5 -61q0 -5 6 -5l4 3q39 65 115.5 113t181.5 48q112 0 195.5 -58t129.5 -165.5t46 -238.5q0 -225 -120.5 -370.5t-316.5 -145.5q-105 0 -211 34l-8 2q-6 0 -6 -22v-313q0 -52 3 -86.5t19.5 -57t51.5 -35t100 -18.5q23 -4 23 -32q0 -11 -6.5 -20.5
t-16.5 -9.5q-92 0 -150.5 7.5t-117.5 7.5q-62 0 -125.5 -7.5t-128.5 -7.5q-10 0 -16.5 9.5t-6.5 20.5t6.5 20.5t18.5 11.5q57 6 89 18.5t46.5 34t16.5 53t2 78.5v826z" />
    <glyph glyph-name="q" unicode="q" horiz-adv-x="1087" 
d="M741 715q0 6 -15 30.5t-44 52t-70 49t-92 21.5q-111 0 -172 -95.5t-61 -280.5q0 -182 60 -289t159 -107q136 0 235 113v506zM934 -319q0 -101 10 -130.5t31.5 -44.5t66.5 -22q21 -4 21 -32q0 -30 -21 -30q-41 0 -88 7.5t-106 7.5q-62 0 -134.5 -7.5t-178.5 -7.5
q-9 0 -14 9.5t-5 20.5q0 29 21 32q75 8 117 20.5t61.5 33t22.5 52t3 78.5v436l-2 2l-4 -2q-119 -124 -280 -124q-183 0 -283 123t-100 346q0 146 62.5 262t173 181.5t239.5 65.5q84 0 141 -18t123 -59l12 -5l6 3q35 45 51.5 62t34.5 17q31 0 31 -10l-2 -29
q-10 -118 -10 -169v-1069z" />
    <glyph glyph-name="r" unicode="r" horiz-adv-x="823" 
d="M406 248q0 -51 3 -85t21.5 -55.5t58 -34t111.5 -22.5q21 -4 21 -31q0 -12 -6.5 -21t-14.5 -9q-88 0 -155.5 7t-129.5 7q-65 0 -129.5 -7t-130.5 -7q-20 0 -20 30q0 27 22 31q65 9 97.5 24.5t45.5 42.5t13 118v299q0 161 -10.5 211.5t-39.5 71t-112 26.5q-10 0 -15 10
t-5 21q0 10 6 20t16 10q125 10 261 34l36 5q37 0 37 -37l-6 -135q0 -4 4 -4t6 4q35 90 97.5 138t166.5 48q86 0 127 -40.5t41 -106.5q0 -37 -26.5 -66.5t-75.5 -29.5q-47 0 -65.5 22.5t-18.5 48.5q0 62 -59 62q-43 0 -82 -35t-64.5 -89t-25.5 -91v-385z" />
    <glyph glyph-name="s" unicode="s" horiz-adv-x="813" 
d="M692 803l4 -146q0 -7 -10.5 -11t-21.5 -4q-19 0 -23 11q-23 109 -74 167.5t-164 58.5q-75 0 -124.5 -38t-49.5 -102q0 -53 41 -81.5t109 -53.5q223 -77 304 -156.5t81 -193.5q0 -126 -97 -200t-266 -74q-53 0 -118.5 12t-114.5 35l-8 1q-28 0 -35 -36q0 -10 -28 -10
q-25 0 -25 12l4 45l4 53q0 80 -10 146l-7 51q0 9 11 13t21 4q23 0 26 -13q30 -128 98 -185t193 -57q73 0 119.5 41t46.5 115q0 65 -46.5 103t-107.5 67l-119 49q-118 47 -157.5 78t-62 75.5t-22.5 110.5q0 121 95 194.5t252 73.5q106 0 198 -61l8 -2q6 0 16.5 4t18.5 33
q3 11 26 11q13 0 22.5 -4t9.5 -9v-2q-17 -56 -17 -125z" />
    <glyph glyph-name="t" unicode="t" horiz-adv-x="674" 
d="M344 315q0 -114 25.5 -169.5t93.5 -55.5q48 0 89.5 14.5t63.5 30.5l8 2q9 0 20 -10.5t11 -22.5q0 -14 -37.5 -51.5t-90.5 -55t-121 -17.5q-140 0 -197 62t-57 196v526q0 40 -5.5 49.5t-20.5 13.5t-89 4q-7 0 -11.5 14.5t-4.5 30.5q0 33 16 33q81 10 117.5 33.5t57 69
t30.5 123.5q2 13 20 19t38 6q17 0 30.5 -4.5t13.5 -12.5v-176q0 -34 3 -38q3 -5 26 -5h213q22 0 22 -45q0 -25 -5 -36.5t-19 -11.5h-222q-15 0 -16 -7l-2 -52v-457z" />
    <glyph glyph-name="u" unicode="u" horiz-adv-x="1212" 
d="M1016 356q0 -148 12.5 -192.5t43 -61t97.5 -16.5q9 0 14 -9.5t5 -20.5q0 -27 -19 -31q-45 -9 -172.5 -27t-134.5 -18q-37 0 -37 114q0 5 -6 5l-6 -3q-136 -116 -301 -116q-169 0 -242 80t-73 274v231q0 134 -9 178t-33 64t-102 31q-10 0 -15.5 11t-5.5 24q0 30 21 30
q103 7 184 24q89 17 115 17q37 0 37 -39v-491q0 -176 35.5 -239.5t130.5 -63.5q73 0 147 24.5t113 59.5q8 8 8 47v323q0 159 -8.5 196t-30.5 52.5t-90 24.5q-10 2 -15.5 13.5t-5.5 24.5q0 27 21 27q110 7 181 24q73 17 106 17q17 0 26 -12.5t9 -30.5v-545z" />
    <glyph glyph-name="v" unicode="v" horiz-adv-x="1049" 
d="M539 -35q-25 0 -31 8q-197 401 -320 705q-37 92 -57 120.5t-45.5 43t-67.5 20.5q-20 4 -20 32q0 30 18 30q58 0 114 -7.5t118 -7.5q59 0 117.5 7.5t117.5 7.5q21 0 21 -30q0 -11 -5 -21.5t-16 -10.5q-63 -4 -90.5 -23.5t-27.5 -56.5q0 -30 16 -75q100 -269 203 -474
q4 -9 11 -9q9 0 13 9q99 216 185 498q8 27 8 51q0 52 -32 64t-67 16q-10 0 -14.5 9.5t-4.5 18.5q0 12 5.5 23t16.5 11q45 0 84.5 -7.5t82.5 -7.5q46 0 96 7.5t79 7.5q10 0 15 -9.5t5 -20.5t-5 -21.5t-13 -10.5q-43 -2 -73 -20.5t-52 -49.5t-62 -128q-137 -338 -293 -691
q-4 -8 -30 -8z" />
    <glyph glyph-name="w" unicode="w" horiz-adv-x="1454" 
d="M1086 287q11 0 16 12q44 141 80.5 297.5t36.5 181.5q0 47 -25 60.5t-78 21.5q-12 2 -18 12.5t-6 21.5t6 20.5t18 9.5q49 0 90 -8.5t82 -8.5t87 8.5t75 8.5q10 0 16.5 -9.5t6.5 -21.5t-5.5 -22.5t-13.5 -10.5q-65 -6 -102.5 -45.5t-71.5 -152.5q-102 -351 -219 -684
q-4 -12 -25 -12q-22 0 -26 10q-60 151 -121.5 310.5t-136.5 329.5q-4 11 -12 11q-9 0 -13 -11l-69 -180l-121 -308l-58 -150q-6 -12 -28 -12q-18 0 -25 12q-106 275 -240 698q-30 94 -61.5 132.5t-104.5 51.5q-18 4 -18 34t18 30q52 0 106 -8.5t114 -8.5q59 0 115.5 8.5
t113.5 8.5q8 0 14 -9.5t6 -21.5t-5 -22.5t-15 -10.5q-109 -7 -109 -78q0 -29 41.5 -171.5t100.5 -311.5q4 -12 15 -12t15 10q119 324 238 612q6 15 23 15q18 0 24 -13l258 -612q4 -12 11 -12z" />
    <glyph glyph-name="x" unicode="x" horiz-adv-x="1081" 
d="M25 894q0 30 18 30q41 0 93 -6.5t106 -6.5q57 0 113.5 6.5t111.5 6.5q8 0 14 -9.5t6 -20.5t-5 -21.5t-15 -10.5q-29 -4 -60.5 -8t-31.5 -27q0 -21 16 -47q39 -67 160 -215q6 -8 12 -8q4 0 8 6q50 60 82.5 113t48.5 78q15 28 15 49q0 28 -22.5 41.5t-76.5 17.5
q-10 0 -15 10.5t-5 21.5t5 20.5t15 9.5q56 0 104 -6.5t95 -6.5q49 0 88 6.5t70 6.5q8 0 14 -9.5t6 -20.5q0 -32 -20 -32q-66 -6 -102.5 -33.5t-75.5 -76.5l-181 -240q-6 -7 -6 -15t8 -16q162 -191 242 -301q41 -57 79 -89t99 -36q13 0 20 -10t7 -22q0 -13 -7 -22t-20 -9
q-43 0 -98 6t-115 6q-59 0 -120.5 -7t-120.5 -7q-13 0 -20 10t-7 23q0 32 25 32q49 4 71.5 9.5t22.5 25.5q0 47 -187 272l-5 3l-5 -3q-26 -26 -79.5 -92.5t-61.5 -83.5q-27 -45 -27 -75q0 -29 25.5 -39.5t77.5 -18.5q20 -4 20 -33q0 -12 -6 -21t-16 -9q-43 0 -91.5 7
t-101.5 7q-49 0 -96 -7t-80 -7q-10 0 -16.5 9t-6.5 22q0 30 21 34q68 8 107.5 39t91.5 96q39 50 85 101q108 120 108 125v3l-9 15l-133 172q-62 78 -111 156q-23 38 -42 58.5t-37 29.5t-56 12q-10 0 -15 10.5t-5 21.5z" />
    <glyph glyph-name="y" unicode="y" horiz-adv-x="1053" 
d="M600 256q7 0 11 4t46 90.5t76.5 167.5t63 160t28.5 110q0 32 -24 51t-86 27q-10 2 -15.5 11.5t-5.5 19.5t5.5 18.5t15.5 8.5q39 0 80 -5.5t82 -5.5q47 0 96 5.5t78 5.5q20 0 20 -28q0 -11 -5 -20.5t-15 -9.5q-46 -6 -71.5 -27t-44.5 -66l-151 -339q-201 -450 -405 -848
q-53 -94 -90.5 -136.5t-83 -68.5t-96.5 -26q-48 0 -91 25.5t-43 82.5q0 43 27 74t70 31q24 0 48 -22q24 -23 48 -23q30 0 82.5 63.5t119 182.5t105.5 211q10 24 10 44q0 19 -8 35l-145 302q-80 165 -152 331q-40 98 -71.5 130.5t-100.5 43.5q-15 4 -15 27q0 11 5.5 21
t15.5 10q64 0 122.5 -5.5t117.5 -5.5t116.5 5.5t116.5 5.5q21 0 21 -27t-21 -31q-65 -8 -91.5 -24.5t-26.5 -44.5q0 -41 18 -86q90 -240 199 -447q4 -8 14 -8z" />
    <glyph glyph-name="z" unicode="z" horiz-adv-x="854" 
d="M791 0h-730q-21 0 -21 20q0 12 9 27q77 142 256 398q176 253 216 317t40 72q0 15 -40.5 20.5t-133.5 5.5q-87 0 -131.5 -11.5t-70.5 -40.5t-56 -128q-6 -16 -31 -16q-13 0 -21.5 4.5t-8.5 10.5v3q18 124 18 225q0 17 25 17h661q30 0 30 -21q0 -10 -7 -22
q-116 -196 -251 -388q-135 -189 -239 -372q-11 -17 -11 -28q0 -17 36 -23.5t143 -6.5q112 0 159 14.5t74.5 51t55.5 131.5q4 15 32 15q14 0 23.5 -5.5t9.5 -14.5v-3q-20 -122 -20 -229q0 -23 -16 -23z" />
    <glyph glyph-name="braceleft" unicode="{" horiz-adv-x="567" 
d="M365 346q0 -49 -16.5 -101t-36 -105.5t-36 -105.5t-16.5 -102q0 -94 66.5 -149t162.5 -55q17 0 17 -27t-17 -27q-191 0 -294 79.5t-103 221.5q0 50 19.5 98t44 95t44 95t19.5 97q0 96 -30.5 147.5t-82.5 51.5l-45 -4q-10 0 -15 12.5t-5 27.5t5 27.5t15 12.5l45 -4
q55 0 84 44.5t29 149.5q0 43 -19.5 87t-43 88t-43 87t-19.5 87q0 152 101.5 238.5t287.5 86.5q17 0 17 -26q0 -27 -17 -27q-92 0 -157.5 -52.5t-65.5 -144.5q0 -47 16.5 -93t36 -93t36 -96t16.5 -101q0 -82 -30 -154.5t-102 -107.5q-7 -4 -7 -8q0 -5 7 -10q66 -33 99 -96.5
t33 -143.5z" />
    <glyph glyph-name="bar" unicode="|" horiz-adv-x="471" 
d="M174 1384h123v-1968h-123v1968z" />
    <glyph glyph-name="braceright" unicode="}" horiz-adv-x="567" 
d="M203 346q0 80 32.5 143.5t98.5 96.5q7 5 7 10q0 4 -7 8q-72 35 -101.5 107.5t-29.5 154.5q0 52 16.5 101t35.5 96t35.5 93t16.5 93q0 92 -65.5 144.5t-157.5 52.5q-16 0 -16 27q0 26 16 26q185 0 287 -85.5t102 -239.5q0 -44 -19.5 -87t-43 -87t-43 -88t-19.5 -87
q0 -106 29 -150t84 -44l45 4q10 0 15 -12.5t5 -27.5t-5 -27.5t-15 -12.5l-45 4q-52 0 -82.5 -51.5t-30.5 -147.5q0 -49 19.5 -97t44 -95t44 -95t19.5 -98q0 -143 -104 -222t-293 -79q-8 0 -12.5 8.5t-4.5 18.5t4.5 18.5t12.5 8.5q96 0 162.5 55t66.5 149q0 50 -16.5 102
t-35.5 105.5t-35.5 105.5t-16.5 101z" />
    <glyph glyph-name="asciitilde" unicode="~" horiz-adv-x="1135" 
d="M803 483q65 0 111.5 40t91.5 106q10 17 27 17q14 0 24.5 -11t10.5 -27t-53.5 -100t-107.5 -127t-104 -43q-46 0 -102 22.5t-115.5 50t-118.5 50t-111 22.5q-46 0 -78.5 -11t-62 -36t-86.5 -98q-12 -15 -29 -15q-13 0 -23 8.5t-10 21.5q0 9 7 20l53 87q98 169 227 169
q73 0 229 -73q155 -73 220 -73z" />
    <glyph glyph-name="exclamdown" unicode="&#xa1;" horiz-adv-x="440" 
d="M354 -444q0 -134 -125 -134q-63 0 -90.5 39t-27.5 95q0 51 14 115.5t25 117.5q8 57 16 111.5t13 125t8 168t3 242.5q0 8 11.5 13.5t24.5 5.5q12 0 23 -5.5t11 -13.5q0 -270 17.5 -424.5t45.5 -274.5q31 -134 31 -181zM233 825q46 0 74.5 -29.5t28.5 -68.5
q0 -43 -33 -68.5t-74 -25.5q-43 0 -70.5 30.5t-27.5 67.5q0 41 31 67.5t71 26.5z" />
    <glyph glyph-name="cent" unicode="&#xa2;" horiz-adv-x="934" 
d="M487 1102q0 27 41 27q17 0 32 -7t15 -20v-98h7q127 0 217 -57.5t90 -147.5q0 -46 -26.5 -70t-74.5 -24q-40 0 -68 18.5t-28 60.5q0 27 15 44q16 17 16 34q0 35 -45 52t-103 20v-744h25q92 0 152.5 25t105.5 80q6 11 18 11q13 0 23.5 -9t10.5 -21l-1 -6
q-45 -101 -135 -148t-199 -54v-172q0 -28 -41 -28q-17 0 -32 7t-15 21v172q-196 15 -304.5 138t-108.5 333q0 191 106.5 313t306.5 147v103zM289 561q0 -127 47 -221t151 -133v717q-99 -28 -148.5 -115.5t-49.5 -247.5z" />
    <glyph glyph-name="sterling" unicode="&#xa3;" 
d="M362 682q-6 60 -6 136q0 157 43.5 295t134 210t216.5 72q127 0 197.5 -61t70.5 -169q0 -56 -35 -95.5t-86 -39.5q-40 0 -66 28.5t-26 74.5q0 32 7.5 49t16 27.5t16 19.5t7.5 26q0 70 -102 70q-209 0 -209 -433q0 -98 10 -210h225q13 0 19.5 -14.5t6.5 -31.5
q-1 -17 -7.5 -31.5t-18.5 -14.5h-219v-37q0 -117 -21.5 -206.5t-66.5 -174.5q87 -40 161.5 -58t160.5 -18q37 0 76 21.5t64.5 59t31.5 87.5q2 18 30 18q27 -2 27 -22q0 -132 -77 -225.5t-193 -93.5q-137 0 -332 145q-44 -45 -106.5 -75.5t-133.5 -30.5q-72 0 -125 37t-53 87
q0 68 53.5 108t141.5 40q100 0 184 -37q7 34 7 86q0 56 -19 289h-193q-13 0 -19.5 14.5t-6.5 31.5t6.5 31.5t19.5 14.5h188zM233 45q33 0 66.5 24t58.5 64q-50 45 -116 45q-32 0 -57 -15t-25 -50t23 -51.5t50 -16.5z" />
    <glyph glyph-name="currency" unicode="&#xa4;" horiz-adv-x="1130" 
d="M147 1104l154 -154q113 82 262 82q156 0 264 -84l156 156l80 -80l-156 -154q84 -114 84 -262q0 -143 -86 -264l158 -154l-80 -79l-156 155q-118 -82 -264 -82q-149 0 -260 82l-156 -155l-77 79l153 154q-86 113 -86 264q0 154 84 262l-151 154zM256 608q0 -141 85 -232
t222 -91q139 0 224 92t85 231q0 142 -86 233t-223 91q-133 0 -220 -89t-87 -235z" />
    <glyph glyph-name="yen" unicode="&#xa5;" 
d="M174 299q-18 0 -25.5 13t-7.5 28q0 19 9 34t24 15h260v131h-258q-15 0 -23 14t-8 31t8 31t23 14h242q-90 233 -172.5 421t-118.5 235q-23 32 -80 42l-37 7q-21 2 -21 35q0 32 21 32q71 0 133.5 -6t122.5 -6l56 2q117 10 143 10q12 0 18 -10t6 -22t-6 -23t-18 -12
q-42 -5 -57 -22.5t-15 -51.5q0 -45 29 -119l174 -456q59 126 121.5 315.5t62.5 239.5q0 43 -27 62t-110 32q-10 1 -15.5 12t-5.5 23q0 32 21 32q49 0 164 -10l51 -2q48 0 97 6t106 6q21 0 21 -28v-4q-3 -33 -23 -35q-41 -5 -60 -19t-45 -51q-36 -55 -132.5 -268.5
t-151.5 -366.5h223q16 0 24.5 -14t8.5 -31t-8 -31t-25 -14h-240v-131h242q15 0 23 -14t9 -31q0 -17 -8 -31t-24 -14h-242v-35q0 -85 12.5 -122.5t45 -56t141.5 -30.5q26 -4 26 -36q0 -13 -7 -23t-21 -10q-82 0 -156.5 9t-146.5 9l-78 -3q-203 -15 -231 -15q-24 0 -24 33
q0 32 24 36q109 12 140.5 29.5t43.5 54t12 125.5v35h-260z" />
    <glyph glyph-name="brokenbar" unicode="&#xa6;" horiz-adv-x="471" 
d="M174 578v806h123v-806h-123zM297 229v-807h-123v807h123z" />
    <glyph glyph-name="section" unicode="&#xa7;" horiz-adv-x="995" 
d="M700 248q45 35 71 69.5t28 88.5q0 61 -56.5 120.5t-280.5 183.5l-120 68q-45 -24 -82 -72.5t-37 -119.5q0 -54 38 -87.5t116 -74.5q167 -84 323 -176zM92 532q0 84 47.5 153.5t149.5 129.5q-72 47 -126 114.5t-54 168.5q0 137 112.5 221t280.5 84q165 0 251.5 -64
t86.5 -174q0 -47 -31 -84t-80 -37q-47 0 -77.5 30t-30.5 77q0 27 11 43t25.5 27.5t25.5 19.5t11 21q0 36 -51 57.5t-149 21.5q-106 0 -172 -52.5t-66 -139.5q0 -47 23.5 -83t66.5 -69.5t104.5 -67.5t139.5 -77q172 -94 242.5 -183.5t70.5 -195.5q0 -86 -37.5 -151.5
t-120.5 -122.5q64 -47 102 -119t38 -152q0 -103 -49.5 -180.5t-139 -119.5t-200.5 -42q-197 0 -300.5 66.5t-103.5 195.5q0 68 33 102t86 34q47 0 72.5 -27t25.5 -72q0 -28 -9 -43.5t-20.5 -29t-20.5 -28.5t-9 -42t35.5 -49t95.5 -36.5t106 -14.5q133 0 201 59.5t68 173.5
q0 129 -209 231l-109 58q-153 78 -213 127t-96.5 108t-36.5 133z" />
    <glyph glyph-name="dieresis" unicode="&#xa8;" horiz-adv-x="612" 
d="M104 1126q-47 0 -75.5 32t-28.5 77q0 43 31.5 71.5t72.5 28.5t73 -29.5t32 -70.5q0 -45 -29.5 -77t-75.5 -32zM508 1126q-45 0 -75 32t-30 77q0 43 32 71.5t73 28.5t72.5 -29.5t31.5 -70.5q0 -45 -28.5 -77t-75.5 -32z" />
    <glyph glyph-name="copyright" unicode="&#xa9;" horiz-adv-x="1520" 
d="M1448 674q0 -187 -93.5 -349t-254.5 -255t-346 -93q-184 0 -344 95t-249 254.5t-89 345.5t90 349.5t248.5 259t341.5 95.5q185 0 345.5 -93t255.5 -258t95 -351zM1354 674q0 173 -79.5 316t-218.5 222.5t-304 79.5q-160 0 -294.5 -82.5t-213 -226.5t-78.5 -311
q0 -166 78.5 -307.5t214.5 -222.5t295 -81q161 0 300 82t219.5 224.5t80.5 306.5zM807 1106q93 0 192 -53q28 -16 46 -16q16 0 24 24q3 10 16 10q19 0 19 -8v-2q-7 -35 -7 -74l9 -149q-4 -12 -26 -12q-17 0 -19 16q-17 104 -84.5 161.5t-169.5 57.5q-142 0 -223.5 -101.5
t-81.5 -291.5q0 -105 35 -192t99 -133t152 -46q75 0 128 23t92 80t53 147q0 11 19 11q28 0 28 -15q-7 -57 -7 -113q0 -62 7 -154q0 -11 -23 -11q-16 0 -18 9q-4 25 -15 41.5t-23 16.5q-11 0 -25 -10q-52 -33 -101 -51.5t-115 -18.5q-203 0 -324.5 116.5t-121.5 295.5
q0 117 61 219t170 162.5t234 60.5z" />
    <glyph glyph-name="ordfeminine" unicode="&#xaa;" horiz-adv-x="791" 
d="M641 850q0 -67 10.5 -83.5t38.5 -16.5q19 0 31 10t29 33l7 4q6 0 15 -7.5t9 -13.5l-1 -4q-14 -49 -54 -83t-101 -34q-58 0 -88.5 21.5t-47.5 60.5q-58 -41 -105 -61.5t-120 -20.5q-91 0 -140.5 49t-49.5 140q0 227 397 227q8 12 9 28.5t1 51.5q0 182 -114 182
q-54 0 -90.5 -20.5t-36.5 -55.5q0 -13 10 -36q10 -22 10 -29q0 -25 -22.5 -45.5t-59.5 -20.5q-84 0 -84 80q0 76 87.5 132.5t195.5 56.5q136 0 200 -61.5t64 -186.5v-297zM481 991q0 21 -14 21q-225 -21 -225 -152q0 -108 82 -108q32 0 65 8t62.5 29.5t29.5 35.5v166z" />
    <glyph glyph-name="guillemotleft" unicode="&#xab;" horiz-adv-x="997" 
d="M432 469q0 35 12 43q181 119 385 344q7 7 16 7q15 0 28 -9.5t13 -20.5l-1 -4q-71 -135 -198 -277l-67 -77q70 -88 140.5 -181t126.5 -204l1 -4q0 -14 -14.5 -27.5t-29.5 -13.5q-11 0 -19 10q-207 251 -381 373q-12 8 -12 41zM82 469q0 35 12 43q181 119 385 344q7 7 16 7
q15 0 28 -9.5t13 -20.5l-1 -4q-71 -135 -198 -277l-67 -77q70 -88 140.5 -181t126.5 -204l1 -4q0 -14 -14.5 -27.5t-29.5 -13.5q-11 0 -19 10q-207 251 -381 373q-12 8 -12 41z" />
    <glyph glyph-name="logicalnot" unicode="&#xac;" horiz-adv-x="1130" 
d="M76 530h960v-540h-112v428h-848v112z" />
    <glyph glyph-name="registered" unicode="&#xae;" horiz-adv-x="868" 
d="M434 659q-96 0 -177.5 48.5t-128 131.5t-46.5 179t46.5 179t128 132t177.5 49q144 0 248 -105t104 -255q0 -96 -47 -179.5t-128.5 -131.5t-176.5 -48zM434 702q126 0 214.5 92.5t88.5 223.5q0 132 -89.5 224.5t-213.5 92.5t-213.5 -92.5t-89.5 -224.5q0 -86 41 -159
t111 -115t151 -42zM311 1130q0 35 -10 55.5t-49 24.5q-5 3 -5 15q0 8 7 8l72 -2l129 2q64 0 98.5 -29.5t34.5 -77.5q0 -51 -34 -72.5t-71 -29.5q27 -6 42.5 -22.5t24.5 -36t13 -38t6 -26.5q6 -35 29 -35q14 0 23 21q3 5 8 5q10 0 10 -9q-4 -37 -30.5 -51.5t-53.5 -14.5
q-34 0 -50 16t-21 60q-7 68 -21.5 93.5t-40.5 25.5q-25 0 -25 -21v-82q0 -45 14.5 -52t39.5 -11q7 -2 7 -11q0 -14 -7 -14l-107 6l-84 -6q-9 0 -9 14q0 9 9 11q29 4 40 12t11 39v233zM397 1053q0 -15 14.5 -17t20.5 -2q64 4 64 92q0 84 -60 84q-22 0 -30.5 -3t-8.5 -23v-131
z" />
    <glyph glyph-name="macron" unicode="&#xaf;" horiz-adv-x="565" 
d="M27 1077q-13 0 -20 16.5t-7 35.5q0 18 7 34.5t20 16.5h512q12 0 19 -16.5t7 -34.5q0 -19 -7 -35.5t-19 -16.5h-512z" />
    <glyph glyph-name="degree" unicode="&#xb0;" horiz-adv-x="459" 
d="M229 1475q85 0 147 -61t62 -146q0 -89 -62.5 -149t-146.5 -60t-146.5 61t-62.5 148q0 83 62.5 145t146.5 62zM227 1405q-57 0 -95 -39t-38 -96q0 -60 38 -101t97 -41q58 0 95.5 41t37.5 101q0 55 -37.5 95t-97.5 40z" />
    <glyph glyph-name="plusminus" unicode="&#xb1;" horiz-adv-x="971" 
d="M438 1040h94v-364h316v-94h-316v-371h-94v371h-315v94h315v364zM123 96h725v-94h-725v94z" />
    <glyph glyph-name="uni00B2" unicode="&#xb2;" horiz-adv-x="657" 
d="M446 766q40 0 57 9t34 32.5t38 69.5q8 15 29 15q25 0 25 -28q-33 -102 -33 -188q0 -14 -29 -14h-495q-39 0 -39 18q0 16 12 27q206 183 275 256t100 129t31 114q0 72 -34 117t-108 45q-43 0 -75.5 -15t-53 -40t-20.5 -47q0 -47 41 -47q63 0 63 -48q0 -20 -18.5 -37.5
t-59.5 -17.5q-50 0 -81 29.5t-31 77.5q0 80 74.5 140t191.5 60q143 0 208.5 -57t65.5 -143q0 -66 -41 -124.5t-100 -112.5t-125.5 -103t-120.5 -99q-8 -4 -9 -12q0 -6 9 -6h219z" />
    <glyph glyph-name="uni00B3" unicode="&#xb3;" horiz-adv-x="657" 
d="M338 1034l-44 -3l-36 -5q-9 0 -15 8.5t-6 18.5q0 17 15 20q164 31 164 178q0 49 -29 82t-96 33q-43 0 -76 -13.5t-54.5 -38t-21.5 -42.5q0 -43 43 -43q64 0 64 -47q0 -23 -19.5 -41.5t-56.5 -18.5q-52 0 -81.5 30t-29.5 81q0 79 77.5 133.5t185.5 54.5q110 0 181.5 -49
t71.5 -121q0 -65 -52 -107t-130 -71q105 -14 165 -64.5t60 -129.5q0 -111 -92 -168.5t-256 -57.5q-104 0 -167.5 26.5t-63.5 76.5q0 28 17.5 54t58.5 26q22 0 43.5 -15.5t21.5 -42.5l-8 -47q0 -14 25.5 -23.5t78.5 -9.5q82 0 128.5 45.5t46.5 124.5q0 72 -28 119t-85 47z
" />
    <glyph glyph-name="acute" unicode="&#xb4;" horiz-adv-x="479" 
d="M352 1473q38 0 66 -20.5t28 -51.5q0 -58 -63 -121q-124 -140 -283 -250q-12 -9 -24 -9q-16 0 -28.5 11t-12.5 28q0 11 8 21q120 147 203 291q30 60 52 80.5t54 20.5z" />
    <glyph glyph-name="mu" unicode="&#xb5;" horiz-adv-x="1192" 
d="M1053 936q14 0 14 -24v-3q-20 -126 -20 -397q0 -244 7.5 -306t25.5 -85t61 -23q39 0 78 27l7 2q9 0 17 -9.5t8 -22.5q0 -18 -66.5 -63.5t-144.5 -45.5q-83 3 -130 54t-47 139l5 59l1 3q0 3 -5 3q-6 0 -8 -4q-57 -136 -135 -198t-182 -62q-54 0 -99 26.5t-73 71.5
q0 -153 53 -412q24 -121 24 -155q0 -36 -48.5 -62t-106.5 -26q-47 0 -47 20l2 46q12 180 12 285v307q0 294 8 628q0 61 -5.5 80t-18 27t-36.5 8q-32 0 -95 -15h-4q-10 0 -17 12t-7 27t7 20q67 39 140 57t114 19q60 0 88.5 -27t28.5 -69q0 -79 -33 -285t-33 -284
q0 -18 30 -60.5t70.5 -71t86.5 -28.5q149 0 239 215q37 93 37 481v82q0 27 21 27z" />
    <glyph glyph-name="paragraph" unicode="&#xb6;" horiz-adv-x="930" 
d="M342 696q0 49 -51 54q-171 14 -255.5 90t-84.5 221q0 148 120 230.5t324 82.5h461q27 0 27 -29q0 -12 -7.5 -21t-19.5 -11q-110 -13 -146 -31t-51.5 -54.5t-15.5 -123.5v-787q0 -136 11.5 -172.5t39.5 -54.5t80 -24l76 -7q14 0 22 -11t8 -22q0 -9 -6 -17.5t-18 -8.5h-305
q-8 0 -18.5 10t-10.5 33v1245q0 12 -9 18.5t-21 6.5q-11 0 -21 -6.5t-10 -18.5v-1245q0 -43 -49 -43h-312q-12 0 -18 9t-6 20q0 10 6 20t18 10l62 7q77 8 113 29t51.5 67t15.5 155v379z" />
    <glyph glyph-name="periodcentered" unicode="&#xb7;" horiz-adv-x="404" 
d="M201 438q-51 0 -90 39t-39 90q0 52 39 91.5t90 39.5q55 0 93 -39.5t38 -91.5q0 -51 -38 -90t-93 -39z" />
    <glyph glyph-name="cedilla" unicode="&#xb8;" horiz-adv-x="483" 
d="M342 10v-10q-51 -35 -70 -109q76 -5 133.5 -54t57.5 -120q0 -99 -71 -156t-187 -57q-82 0 -126 38.5t-56 90.5l-1 6q0 10 10.5 18t24.5 8q12 0 17 -9q37 -76 125 -76q54 0 87 36.5t33 96.5q0 42 -28.5 73.5t-89.5 41.5q-15 4 -15 15q0 29 16 79.5t46 87.5h94z" />
    <glyph glyph-name="uni00B9" unicode="&#xb9;" horiz-adv-x="657" 
d="M412 807q0 -49 30.5 -74.5t118.5 -36.5q17 -5 17 -24t-21 -19l-122 5q-68 6 -109 6l-226 -11q-17 0 -17 22q0 19 15 23q72 9 101 20.5t44 32t15 56.5v434q0 55 -15.5 72.5t-58.5 17.5l-75 -4q-20 0 -20 27q0 12 11 16q161 22 271 49l18 3q23 0 23 -19v-596z" />
    <glyph glyph-name="ordmasculine" unicode="&#xba;" horiz-adv-x="854" 
d="M784 1040q0 -178 -96.5 -282.5t-259.5 -104.5q-168 0 -262 101t-94 280q0 159 101.5 260t266.5 101q157 0 250.5 -96t93.5 -259zM608 1024q0 307 -170 307q-190 0 -190 -311q0 -152 48 -226.5t134 -74.5q178 0 178 305z" />
    <glyph glyph-name="guillemotright" unicode="&#xbb;" horiz-adv-x="997" 
d="M154 46q-16 0 -30.5 12.5t-14.5 23.5q0 12 52.5 100.5t215.5 292.5l-67 77q-89 100 -144 184.5t-55 98.5q0 9 12.5 18t26.5 10q10 0 18 -7q204 -225 385 -344q12 -8 12 -43q0 -33 -12 -41q-174 -122 -381 -373q-7 -9 -18 -9zM504 46q-16 0 -30.5 12.5t-14.5 23.5
q0 12 52.5 100.5t215.5 292.5l-67 77q-89 100 -144 184.5t-55 98.5q0 9 12.5 18t26.5 10q10 0 18 -7q204 -225 385 -344q12 -8 12 -43q0 -33 -12 -41q-174 -122 -381 -373q-7 -9 -18 -9z" />
    <glyph glyph-name="onequarter" unicode="&#xbc;" horiz-adv-x="1417" 
d="M412 807q0 -49 30.5 -74.5t118.5 -36.5q17 -5 17 -24t-21 -19l-122 5q-68 6 -109 6l-226 -11q-17 0 -17 22q0 19 15 23q72 9 101 20.5t44 32t15 56.5v434q0 55 -15.5 72.5t-58.5 17.5l-75 -4q-20 0 -20 27q0 12 11 16q161 22 271 49l18 3q23 0 23 -19v-596zM188 -180
q-16 0 -32.5 12.5t-16.5 24.5l3 8l1212 1614q4 4 10 4q13 0 31 -14.5t18 -26.5l-2 -6l-1212 -1612q-4 -4 -11 -4zM1225 774q30 0 30 -11v-463q0 -14 1 -16t9 -2h78q9 0 9 -43t-13 -43h-66q-14 0 -16 -3.5t-2 -25.5v-166h-154v176q0 14 -2 16.5t-12 2.5h-312q-12 0 -17.5 13
t-5.5 25l1 13l448 518q7 9 24 9zM1091 282q10 0 10 12v256l-229 -268h219z" />
    <glyph glyph-name="onehalf" unicode="&#xbd;" horiz-adv-x="1602" 
d="M411 807q0 -49 30.5 -74.5t118.5 -36.5q17 -5 17 -24t-21 -19l-122 5q-68 6 -109 6l-226 -11q-17 0 -17 22q0 19 15 23q72 9 101 20.5t44 32t15 56.5v434q0 55 -15.5 72.5t-58.5 17.5l-75 -4q-20 0 -20 27q0 12 11 16q161 22 271 49l18 3q23 0 23 -19v-596zM188 -180
q-16 0 -32.5 12.5t-16.5 24.5l3 8l1212 1614q4 4 10 4q13 0 31 -14.5t18 -26.5l-2 -6l-1212 -1612q-4 -4 -11 -4zM1310 105q40 0 57 9t34 32.5t38 69.5q8 15 29 15q25 0 25 -28q-33 -102 -33 -188q0 -14 -29 -14h-495q-39 0 -39 18q0 16 12 27q206 183 275 256t100 129
t31 114q0 72 -34 117t-108 45q-43 0 -75.5 -15t-53 -40t-20.5 -47q0 -47 41 -47q63 0 63 -48q0 -20 -18.5 -37.5t-59.5 -17.5q-50 0 -81 29.5t-31 77.5q0 80 74.5 140t191.5 60q143 0 208.5 -57t65.5 -143q0 -66 -41 -124.5t-100 -112.5t-125.5 -103t-120.5 -99
q-8 -4 -9 -12q0 -6 9 -6h219z" />
    <glyph glyph-name="threequarters" unicode="&#xbe;" horiz-adv-x="1407" 
d="M338 1034l-44 -3l-36 -5q-9 0 -15 8.5t-6 18.5q0 17 15 20q164 31 164 178q0 49 -29 82t-96 33q-43 0 -76 -13.5t-54.5 -38t-21.5 -42.5q0 -43 43 -43q64 0 64 -47q0 -23 -19.5 -41.5t-56.5 -18.5q-52 0 -81.5 30t-29.5 81q0 79 77.5 133.5t185.5 54.5q110 0 181.5 -49
t71.5 -121q0 -65 -52 -107t-130 -71q105 -14 165 -64.5t60 -129.5q0 -111 -92 -168.5t-256 -57.5q-104 0 -167.5 26.5t-63.5 76.5q0 28 17.5 54t58.5 26q22 0 43.5 -15.5t21.5 -42.5l-8 -47q0 -14 25.5 -23.5t78.5 -9.5q82 0 128.5 45.5t46.5 124.5q0 72 -28 119t-85 47z
M167 -180q-16 0 -32.5 12.5t-16.5 24.5l3 8l1212 1614q4 4 10 4q13 0 31 -14.5t18 -26.5l-2 -6l-1212 -1612q-4 -4 -11 -4zM1225 774q30 0 30 -11v-463q0 -14 1 -16t9 -2h78q9 0 9 -43t-13 -43h-66q-14 0 -16 -3.5t-2 -25.5v-166h-154v176q0 14 -2 16.5t-12 2.5h-312
q-12 0 -17.5 13t-5.5 25l1 13l448 518q7 9 24 9zM1091 282q10 0 10 12v256l-229 -268h219z" />
    <glyph glyph-name="questiondown" unicode="&#xbf;" horiz-adv-x="817" 
d="M498 534q0 14 14 22t32 8q34 0 40 -23q18 -85 18 -197q0 -95 -17 -170.5t-38 -75.5l-78 12q-35 5 -68 5q-127 -2 -188 -61.5t-61 -186.5q0 -113 93.5 -195t241.5 -82q41 0 58.5 13.5t28 30t23.5 29.5t44 13q43 0 66.5 -25.5t23.5 -60.5q0 -39 -34.5 -71.5t-116.5 -32.5
q-238 0 -373 119.5t-135 312.5q0 182 93.5 277t299.5 108q26 0 34.5 16t8.5 95q0 59 -10 116v4zM502 735q-41 0 -71 24.5t-30 67.5q0 37 26 67t71 30q41 0 70.5 -27t29.5 -66q0 -36 -26.5 -66t-69.5 -30z" />
    <glyph glyph-name="Agrave" unicode="&#xc0;" horiz-adv-x="1503" 
d="M485 483q-28 0 -40.5 -9t-22.5 -32l-92 -241q-11 -33 -11 -47q0 -86 160 -97q27 0 27 -34q0 -35 -27 -35q-31 0 -112 8q-82 8 -121 8q-53 0 -102.5 -8t-106.5 -8q-12 0 -19 12t-7 26q0 27 24 31l31 4q74 17 111 55t75 132l463 1165q6 17 33 17q28 0 45 -17
q293 -752 469 -1180q24 -59 47 -91.5t47 -49.5t49 -23t53 -12q23 -4 23 -36q0 -33 -21 -33q-64 0 -126 8q-60 8 -136 8q-87 0 -162 -8t-145 -8q-14 0 -21.5 11t-7.5 26q0 28 27 32q76 10 105.5 27t29.5 66q0 37 -24 107.5t-70 184.5q-10 27 -27.5 34t-56.5 7h-361zM838 563
q44 0 44 23l-5 20l-179 479q-4 11 -16 11t-16 -11l-187 -479q-6 -14 -6 -23q0 -20 35 -20h330zM936 1561q0 -17 -13.5 -28.5t-26.5 -11.5q-16 0 -110 35t-185.5 84.5t-126.5 79.5t-35 70q0 31 28.5 57.5t63.5 26.5q30 0 58 -22.5t50 -45.5q135 -125 281 -217q16 -10 16 -28z
" />
    <glyph glyph-name="Aacute" unicode="&#xc1;" horiz-adv-x="1503" 
d="M485 483q-28 0 -40.5 -9t-22.5 -32l-92 -241q-11 -33 -11 -47q0 -86 160 -97q27 0 27 -34q0 -35 -27 -35q-31 0 -112 8q-82 8 -121 8q-53 0 -102.5 -8t-106.5 -8q-12 0 -19 12t-7 26q0 27 24 31l31 4q74 17 111 55t75 132l463 1165q6 17 33 17q28 0 45 -17
q293 -752 469 -1180q24 -59 47 -91.5t47 -49.5t49 -23t53 -12q23 -4 23 -36q0 -33 -21 -33q-64 0 -126 8q-60 8 -136 8q-87 0 -162 -8t-145 -8q-14 0 -21.5 11t-7.5 26q0 28 27 32q76 10 105.5 27t29.5 66q0 37 -24 107.5t-70 184.5q-10 27 -27.5 34t-56.5 7h-361zM838 563
q44 0 44 23l-5 20l-179 479q-4 11 -16 11t-16 -11l-187 -479q-6 -14 -6 -23q0 -20 35 -20h330zM909 1874q34 0 63 -27t29 -57q0 -64 -98 -113q-107 -66 -222 -111t-137 -45q-16 0 -28 11.5t-12 28.5q0 18 16 28q146 92 281 217q62 68 108 68z" />
    <glyph glyph-name="Acircumflex" unicode="&#xc2;" horiz-adv-x="1503" 
d="M485 483q-28 0 -40.5 -9t-22.5 -32l-92 -241q-11 -33 -11 -47q0 -86 160 -97q27 0 27 -34q0 -35 -27 -35q-31 0 -112 8q-82 8 -121 8q-53 0 -102.5 -8t-106.5 -8q-12 0 -19 12t-7 26q0 27 24 31l31 4q74 17 111 55t75 132l463 1165q6 17 33 17q28 0 45 -17
q293 -752 469 -1180q24 -59 47 -91.5t47 -49.5t49 -23t53 -12q23 -4 23 -36q0 -33 -21 -33q-64 0 -126 8q-60 8 -136 8q-87 0 -162 -8t-145 -8q-14 0 -21.5 11t-7.5 26q0 28 27 32q76 10 105.5 27t29.5 66q0 37 -24 107.5t-70 184.5q-10 27 -27.5 34t-56.5 7h-361zM838 563
q44 0 44 23l-5 20l-179 479q-4 11 -16 11t-16 -11l-187 -479q-6 -14 -6 -23q0 -20 35 -20h330zM727 1661q-81 -85 -202 -187q-6 -6 -13 -6q-14 0 -27 12t-13 24q0 7 6 13q66 60 130.5 128.5t127.5 134.5q16 16 35 16q18 0 32 -14q137 -137 236 -218q6 -5 6 -13
q0 -25 -33 -57t-58 -32q-8 0 -14 4q-60 45 -109.5 93t-103.5 102z" />
    <glyph glyph-name="Atilde" unicode="&#xc3;" horiz-adv-x="1503" 
d="M485 483q-28 0 -40.5 -9t-22.5 -32l-92 -241q-11 -33 -11 -47q0 -86 160 -97q27 0 27 -34q0 -35 -27 -35q-31 0 -112 8q-82 8 -121 8q-53 0 -102.5 -8t-106.5 -8q-12 0 -19 12t-7 26q0 27 24 31l31 4q74 17 111 55t75 132l463 1165q6 17 33 17q28 0 45 -17
q293 -752 469 -1180q24 -59 47 -91.5t47 -49.5t49 -23t53 -12q23 -4 23 -36q0 -33 -21 -33q-64 0 -126 8q-60 8 -136 8q-87 0 -162 -8t-145 -8q-14 0 -21.5 11t-7.5 26q0 28 27 32q76 10 105.5 27t29.5 66q0 37 -24 107.5t-70 184.5q-10 27 -27.5 34t-56.5 7h-361zM838 563
q44 0 44 23l-5 20l-179 479q-4 11 -16 11t-16 -11l-187 -479q-6 -14 -6 -23q0 -20 35 -20h330zM483 1525q-27 0 -27 16l1 5q16 91 67.5 151t120.5 60q39 0 75 -17t69.5 -37t63.5 -36.5t56 -17.5q59 0 88 98q5 17 21 17q10 0 21 -5t11 -12q0 -49 -21 -101.5t-57.5 -87
t-80.5 -34.5q-42 0 -81 18.5t-74.5 40t-68 40t-63.5 18.5q-27 0 -51 -27t-39 -72q-8 -17 -31 -17z" />
    <glyph glyph-name="Adieresis" unicode="&#xc4;" horiz-adv-x="1503" 
d="M485 483q-28 0 -40.5 -9t-22.5 -32l-92 -241q-11 -33 -11 -47q0 -86 160 -97q27 0 27 -34q0 -35 -27 -35q-31 0 -112 8q-82 8 -121 8q-53 0 -102.5 -8t-106.5 -8q-12 0 -19 12t-7 26q0 27 24 31l31 4q74 17 111 55t75 132l463 1165q6 17 33 17q28 0 45 -17
q293 -752 469 -1180q24 -59 47 -91.5t47 -49.5t49 -23t53 -12q23 -4 23 -36q0 -33 -21 -33q-64 0 -126 8q-60 8 -136 8q-87 0 -162 -8t-145 -8q-14 0 -21.5 11t-7.5 26q0 28 27 32q76 10 105.5 27t29.5 66q0 37 -24 107.5t-70 184.5q-10 27 -27.5 34t-56.5 7h-361zM838 563
q44 0 44 23l-5 20l-179 479q-4 11 -16 11t-16 -11l-187 -479q-6 -14 -6 -23q0 -20 35 -20h330zM548 1480q-47 0 -75.5 32t-28.5 77q0 43 31.5 71.5t72.5 28.5t73 -29.5t32 -70.5q0 -45 -29.5 -77t-75.5 -32zM952 1480q-45 0 -75 32t-30 77q0 43 32 71.5t73 28.5t72.5 -29.5
t31.5 -70.5q0 -45 -28.5 -77t-75.5 -32z" />
    <glyph glyph-name="Aring" unicode="&#xc5;" horiz-adv-x="1503" 
d="M485 483q-28 0 -40.5 -9t-22.5 -32l-92 -241q-11 -33 -11 -47q0 -86 160 -97q27 0 27 -34q0 -35 -27 -35q-31 0 -112 8q-82 8 -121 8q-53 0 -102.5 -8t-106.5 -8q-12 0 -19 12t-7 26q0 27 24 31l31 4q74 17 111 55t75 132l463 1165q6 17 33 17q28 0 45 -17
q293 -752 469 -1180q24 -59 47 -91.5t47 -49.5t49 -23t53 -12q23 -4 23 -36q0 -33 -21 -33q-64 0 -126 8q-60 8 -136 8q-87 0 -162 -8t-145 -8q-14 0 -21.5 11t-7.5 26q0 28 27 32q76 10 105.5 27t29.5 66q0 37 -24 107.5t-70 184.5q-10 27 -27.5 34t-56.5 7h-361zM838 563
q44 0 44 23l-5 20l-179 479q-4 11 -16 11t-16 -11l-187 -479q-6 -14 -6 -23q0 -20 35 -20h330zM754 1954q94 0 160.5 -58.5t66.5 -156.5q0 -105 -66.5 -161t-160.5 -56q-98 0 -165 55t-67 160q0 95 67 156t165 61zM752 1894q-55 0 -86 -42t-31 -113q0 -72 31 -115t86 -43
t86 43t31 117q0 72 -31 112.5t-86 40.5z" />
    <glyph glyph-name="AE" unicode="&#xc6;" horiz-adv-x="1948" 
d="M958 1247q0 27 -54 48.5t-103 21.5q-13 0 -20.5 11t-7.5 24q0 12 7.5 22t22.5 10q60 0 121 -4t127 -4h735q22 0 33 -4.5t11 -22.5l-1 -10q-4 -21 -4 -75v-33l6 -172q0 -17 -33 -17q-29 0 -33 17q-20 114 -40 154.5t-58.5 57t-157.5 19.5h-123q-103 0 -125.5 -8.5t-31 -31
t-8.5 -99.5v-358q0 -43 30 -43q113 0 167.5 12t79.5 42t36 130q4 22 38 22q11 0 20.5 -5.5t9.5 -16.5q0 -43 -6 -109q-7 -67 -7 -118q0 -63 6 -112q7 -44 7 -122q0 -20 -31 -20q-33 0 -37 20q-11 106 -34 136.5t-76 42.5t-173 12q-30 0 -30 -37v-269q0 -140 19 -188
t69.5 -66t195.5 -18q112 0 158 16q94 35 127.5 83.5t48.5 158.5q4 21 38 21q15 0 26.5 -5.5t11.5 -14.5l-18 -157q-7 -67 -7 -129v-30q0 -14 -13.5 -21.5t-33.5 -7.5h-743l-287 -12q-14 0 -20.5 11t-6.5 24t6 23.5t17 10.5q94 9 141 46.5t47 142.5v256q0 22 -9 24t-19 2
h-320q-33 0 -50 -14t-34 -41q-121 -202 -159 -270q-29 -52 -29 -84q0 -30 22.5 -42.5t98.5 -17.5q13 0 19.5 -11t6.5 -25q0 -33 -26 -33q-67 0 -128 7t-126 7q-48 0 -109 -7t-90 -7q-11 0 -18 10.5t-7 23.5q0 31 29 35l41 7q63 12 88.5 26.5t54.5 45t74 93.5l594 904
q36 52 46.5 74t10.5 38zM997 1118q0 5 -4 5q-7 0 -12 -5l-313 -477q-12 -20 -12 -27q0 -8 30 -8h281q10 0 20 12.5t10 40.5v459z" />
    <glyph glyph-name="Ccedilla" unicode="&#xc7;" horiz-adv-x="1411" 
d="M813 1417q156 0 324 -82q22 -10 41.5 -19t33.5 -9q33 0 43 39q4 15 32 15q30 0 30 -15v-3q-14 -56 -14 -139q0 -57 8 -114.5t16 -118.5q0 -9 -11 -14.5t-26 -5.5q-32 0 -35 18q-99 358 -454 358q-150 0 -251 -77t-153.5 -215t-52.5 -328q0 -189 54.5 -334t159.5 -228.5
t251 -83.5q151 0 235.5 36.5t147 135t84.5 240.5q3 21 26 21q13 0 27 -8.5t15 -16.5l-1 -4q-10 -68 -10 -162q0 -70 5 -142.5t10 -152.5q0 -13 -10 -19t-22 -6q-26 0 -30 19q-8 34 -29 55t-49 21q-22 0 -49 -15q-78 -45 -145.5 -63t-145.5 -23q-18 -2 -36.5 -30.5
t-22.5 -55.5q48 -3 94 -27.5t71 -62t25 -84.5q0 -59 -37 -109t-97.5 -77t-125.5 -27q-52 0 -95 20t-64 54.5t-21 58.5q0 11 10 19.5t24 8.5q12 0 17 -9q39 -76 125 -76q53 0 87 37t34 96q0 41 -28.5 73t-90.5 42q-14 4 -14 15q0 20 10.5 60.5t28.5 71.5q-346 11 -513 191
t-167 510q0 225 91 394.5t256 258t384 88.5z" />
    <glyph glyph-name="Egrave" unicode="&#xc8;" horiz-adv-x="1229" 
d="M1067 1376q22 0 33 -4.5t11 -22.5l-1 -10q-4 -21 -4 -75v-33l6 -172q0 -8 -10.5 -12.5t-22.5 -4.5q-28 0 -32 17q-19 109 -39.5 151t-56.5 59t-160 21h-123q-104 0 -126.5 -8.5t-31 -30.5t-8.5 -100v-358q0 -43 30 -43q113 0 167.5 12t79.5 42t36 130q4 22 38 22
q30 0 30 -22q0 -43 -6 -109q-7 -67 -7 -118q0 -63 6 -112q7 -44 7 -122q0 -20 -32 -20t-36 20q-11 106 -34.5 137t-77 42.5t-171.5 11.5q-30 0 -30 -37v-269q0 -140 19 -188t69.5 -66t195.5 -18q114 0 158 16q94 35 127.5 83.5t48.5 158.5q4 21 39 21q15 0 26 -5.5t11 -14.5
l-18 -157q-7 -67 -7 -129v-30q0 -14 -13.5 -21.5t-33.5 -7.5h-743q-107 0 -287 -12q-13 0 -20 11t-7 25q0 29 25 33q107 13 147 55t40 134v788q0 116 -18 172t-54.5 79t-128.5 32q-23 0 -23 31q0 13 6 23.5t17 10.5l254 -6h735zM823 1561q0 -17 -13.5 -28.5t-26.5 -11.5
q-16 0 -110 35t-185.5 84.5t-126.5 79.5t-35 70q0 31 28.5 57.5t63.5 26.5q30 0 58 -22.5t50 -45.5q135 -125 281 -217q16 -10 16 -28z" />
    <glyph glyph-name="Eacute" unicode="&#xc9;" horiz-adv-x="1229" 
d="M1067 1376q22 0 33 -4.5t11 -22.5l-1 -10q-4 -21 -4 -75v-33l6 -172q0 -8 -10.5 -12.5t-22.5 -4.5q-28 0 -32 17q-19 109 -39.5 151t-56.5 59t-160 21h-123q-104 0 -126.5 -8.5t-31 -30.5t-8.5 -100v-358q0 -43 30 -43q113 0 167.5 12t79.5 42t36 130q4 22 38 22
q30 0 30 -22q0 -43 -6 -109q-7 -67 -7 -118q0 -63 6 -112q7 -44 7 -122q0 -20 -32 -20t-36 20q-11 106 -34.5 137t-77 42.5t-171.5 11.5q-30 0 -30 -37v-269q0 -140 19 -188t69.5 -66t195.5 -18q114 0 158 16q94 35 127.5 83.5t48.5 158.5q4 21 39 21q15 0 26 -5.5t11 -14.5
l-18 -157q-7 -67 -7 -129v-30q0 -14 -13.5 -21.5t-33.5 -7.5h-743q-107 0 -287 -12q-13 0 -20 11t-7 25q0 29 25 33q107 13 147 55t40 134v788q0 116 -18 172t-54.5 79t-128.5 32q-23 0 -23 31q0 13 6 23.5t17 10.5l254 -6h735zM831 1874q34 0 63 -27t29 -57q0 -64 -98 -113
q-107 -66 -222 -111t-137 -45q-16 0 -28 11.5t-12 28.5q0 18 16 28q146 92 281 217q62 68 108 68z" />
    <glyph glyph-name="Ecircumflex" unicode="&#xca;" horiz-adv-x="1229" 
d="M1067 1376q22 0 33 -4.5t11 -22.5l-1 -10q-4 -21 -4 -75v-33l6 -172q0 -8 -10.5 -12.5t-22.5 -4.5q-28 0 -32 17q-19 109 -39.5 151t-56.5 59t-160 21h-123q-104 0 -126.5 -8.5t-31 -30.5t-8.5 -100v-358q0 -43 30 -43q113 0 167.5 12t79.5 42t36 130q4 22 38 22
q30 0 30 -22q0 -43 -6 -109q-7 -67 -7 -118q0 -63 6 -112q7 -44 7 -122q0 -20 -32 -20t-36 20q-11 106 -34.5 137t-77 42.5t-171.5 11.5q-30 0 -30 -37v-269q0 -140 19 -188t69.5 -66t195.5 -18q114 0 158 16q94 35 127.5 83.5t48.5 158.5q4 21 39 21q15 0 26 -5.5t11 -14.5
l-18 -157q-7 -67 -7 -129v-30q0 -14 -13.5 -21.5t-33.5 -7.5h-743q-107 0 -287 -12q-13 0 -20 11t-7 25q0 29 25 33q107 13 147 55t40 134v788q0 116 -18 172t-54.5 79t-128.5 32q-23 0 -23 31q0 13 6 23.5t17 10.5l254 -6h735zM602 1704q-81 -85 -202 -187q-6 -6 -13 -6
q-14 0 -27 12t-13 24q0 7 6 13q66 60 130.5 128.5t127.5 134.5q16 16 35 16q18 0 32 -14q137 -137 236 -218q6 -5 6 -13q0 -25 -33 -57t-58 -32q-8 0 -14 4q-60 45 -109.5 93t-103.5 102z" />
    <glyph glyph-name="Edieresis" unicode="&#xcb;" horiz-adv-x="1229" 
d="M1067 1376q22 0 33 -4.5t11 -22.5l-1 -10q-4 -21 -4 -75v-33l6 -172q0 -8 -10.5 -12.5t-22.5 -4.5q-28 0 -32 17q-19 109 -39.5 151t-56.5 59t-160 21h-123q-104 0 -126.5 -8.5t-31 -30.5t-8.5 -100v-358q0 -43 30 -43q113 0 167.5 12t79.5 42t36 130q4 22 38 22
q30 0 30 -22q0 -43 -6 -109q-7 -67 -7 -118q0 -63 6 -112q7 -44 7 -122q0 -20 -32 -20t-36 20q-11 106 -34.5 137t-77 42.5t-171.5 11.5q-30 0 -30 -37v-269q0 -140 19 -188t69.5 -66t195.5 -18q114 0 158 16q94 35 127.5 83.5t48.5 158.5q4 21 39 21q15 0 26 -5.5t11 -14.5
l-18 -157q-7 -67 -7 -129v-30q0 -14 -13.5 -21.5t-33.5 -7.5h-743q-107 0 -287 -12q-13 0 -20 11t-7 25q0 29 25 33q107 13 147 55t40 134v788q0 116 -18 172t-54.5 79t-128.5 32q-23 0 -23 31q0 13 6 23.5t17 10.5l254 -6h735zM456 1521q-47 0 -75.5 32t-28.5 77
q0 43 31.5 71.5t72.5 28.5t73 -29.5t32 -70.5q0 -45 -29.5 -77t-75.5 -32zM860 1521q-45 0 -75 32t-30 77q0 43 32 71.5t73 28.5t72.5 -29.5t31.5 -70.5q0 -45 -28.5 -77t-75.5 -32z" />
    <glyph glyph-name="Igrave" unicode="&#xcc;" horiz-adv-x="772" 
d="M272 1069q0 102 -17 148.5t-58 69.5t-119 28q-12 0 -18.5 11t-6.5 24q0 12 6.5 22t18.5 10q65 0 149 -6t158 -6l81 2q190 10 226 10q22 0 22 -28q0 -14 -7 -26.5t-17 -12.5q-80 -5 -121 -25.5t-57 -63.5t-16 -157v-803q0 -89 14.5 -127t52 -55.5t131.5 -26.5
q13 -2 20 -13t7 -23q0 -13 -7 -23t-22 -10q-82 0 -156.5 8t-148.5 8q-78 0 -161 -8t-150 -8q-25 0 -25 33q0 32 25 36q96 9 132.5 26.5t50 53.5t13.5 129v803zM596 1561q0 -17 -13.5 -28.5t-26.5 -11.5q-16 0 -110 35t-185.5 84.5t-126.5 79.5t-35 70q0 31 28.5 57.5
t63.5 26.5q30 0 58 -22.5t50 -45.5q135 -125 281 -217q16 -10 16 -28z" />
    <glyph glyph-name="Iacute" unicode="&#xcd;" horiz-adv-x="772" 
d="M272 1069q0 102 -17 148.5t-58 69.5t-119 28q-12 0 -18.5 11t-6.5 24q0 12 6.5 22t18.5 10q65 0 149 -6t158 -6l81 2q190 10 226 10q22 0 22 -28q0 -14 -7 -26.5t-17 -12.5q-80 -5 -121 -25.5t-57 -63.5t-16 -157v-803q0 -89 14.5 -127t52 -55.5t131.5 -26.5
q13 -2 20 -13t7 -23q0 -13 -7 -23t-22 -10q-82 0 -156.5 8t-148.5 8q-78 0 -161 -8t-150 -8q-25 0 -25 33q0 32 25 36q96 9 132.5 26.5t50 53.5t13.5 129v803zM616 1874q34 0 63 -27t29 -57q0 -64 -98 -113q-107 -66 -222 -111t-137 -45q-16 0 -28 11.5t-12 28.5q0 18 16 28
q146 92 281 217q62 68 108 68z" />
    <glyph glyph-name="Icircumflex" unicode="&#xce;" horiz-adv-x="772" 
d="M272 1069q0 102 -17 148.5t-58 69.5t-119 28q-12 0 -18.5 11t-6.5 24q0 12 6.5 22t18.5 10q65 0 149 -6t158 -6l81 2q190 10 226 10q22 0 22 -28q0 -14 -7 -26.5t-17 -12.5q-80 -5 -121 -25.5t-57 -63.5t-16 -157v-803q0 -89 14.5 -127t52 -55.5t131.5 -26.5
q13 -2 20 -13t7 -23q0 -13 -7 -23t-22 -10q-82 0 -156.5 8t-148.5 8q-78 0 -161 -8t-150 -8q-25 0 -25 33q0 32 25 36q96 9 132.5 26.5t50 53.5t13.5 129v803zM374 1704q-81 -85 -202 -187q-6 -6 -13 -6q-14 0 -27 12t-13 24q0 7 6 13q66 60 130.5 128.5t127.5 134.5
q16 16 35 16q18 0 32 -14q137 -137 236 -218q6 -5 6 -13q0 -25 -33 -57t-58 -32q-8 0 -14 4q-60 45 -109.5 93t-103.5 102z" />
    <glyph glyph-name="Idieresis" unicode="&#xcf;" horiz-adv-x="772" 
d="M272 1069q0 102 -17 148.5t-58 69.5t-119 28q-12 0 -18.5 11t-6.5 24q0 12 6.5 22t18.5 10q65 0 149 -6t158 -6l81 2q190 10 226 10q22 0 22 -28q0 -14 -7 -26.5t-17 -12.5q-80 -5 -121 -25.5t-57 -63.5t-16 -157v-803q0 -89 14.5 -127t52 -55.5t131.5 -26.5
q13 -2 20 -13t7 -23q0 -13 -7 -23t-22 -10q-82 0 -156.5 8t-148.5 8q-78 0 -161 -8t-150 -8q-25 0 -25 33q0 32 25 36q96 9 132.5 26.5t50 53.5t13.5 129v803zM182 1523q-47 0 -75.5 32t-28.5 77q0 43 31.5 71.5t72.5 28.5t73 -29.5t32 -70.5q0 -45 -29.5 -77t-75.5 -32z
M586 1523q-45 0 -75 32t-30 77q0 43 32 71.5t73 28.5t72.5 -29.5t31.5 -70.5q0 -45 -28.5 -77t-75.5 -32z" />
    <glyph glyph-name="Eth" unicode="&#xd0;" horiz-adv-x="1509" 
d="M59 678q-17 0 -25.5 14.5t-8.5 31.5q0 18 8.5 33t25.5 15h220v260q0 115 -18.5 172.5t-54.5 81t-128 31.5q-25 0 -25 32q0 12 6 22.5t19 10.5q68 0 124 -4t130 -4l166 3l166 5q219 0 398 -93t277.5 -257.5t98.5 -365.5q0 -212 -87.5 -365t-252 -233t-381.5 -80
q-93 0 -179.5 8t-156.5 8q-110 0 -212 -10l-79 -8q-10 0 -17.5 11t-7.5 25q0 29 29 33q82 12 117.5 31.5t51.5 56t16 101.5v434h-220zM502 772h338q17 0 25.5 -14.5t8.5 -31.5q0 -18 -8.5 -33t-25.5 -15h-338v-293q0 -147 17 -203t62 -78t177 -22q193 0 305.5 159t112.5 427
q0 328 -145 473t-456 145q-40 0 -56.5 -14.5t-16.5 -54.5v-445z" />
    <glyph glyph-name="Ntilde" unicode="&#xd1;" horiz-adv-x="1612" 
d="M262 1153q0 74 -45.5 113.5t-142.5 48.5q-21 0 -21 34q0 33 23 33h77l109 -3q142 -8 154 -25l825 -981q3 -4 10 -4q15 0 15 14v551q0 230 -19 287q-11 35 -24 53t-34.5 26.5t-94.5 14.5q-21 0 -21 35q0 32 21 32q49 0 105 -6t114 -6q53 0 105 6t118 6q12 0 18.5 -10.5
t6.5 -23.5t-6.5 -23t-18.5 -10l-58 -6q-32 -3 -50.5 -20t-41.5 -68q-28 -70 -28 -344v-887q0 -7 -17 -12t-35 -5q-28 0 -34 11l-881 1044q-5 6 -19 6t-14 -16v-746q0 -73 11.5 -113.5t35 -61t58.5 -27.5t82 -13q23 -4 23 -34q0 -13 -6.5 -23t-18.5 -10q-45 0 -99.5 7
t-128.5 7q-78 0 -137.5 -7t-101.5 -7q-11 0 -17.5 10.5t-6.5 23.5q0 29 24 33q53 6 89 13t57.5 27.5t30.5 61t9 113.5v881zM549 1472q-27 0 -27 16l1 5q16 91 67.5 151t120.5 60q39 0 75 -17t69.5 -37t63.5 -36.5t56 -17.5q59 0 88 98q5 17 21 17q10 0 21 -5t11 -12
q0 -49 -21 -101.5t-57.5 -87t-80.5 -34.5q-42 0 -81 18.5t-74.5 40t-68 40t-63.5 18.5q-27 0 -51 -27t-39 -72q-8 -17 -31 -17z" />
    <glyph glyph-name="Ograve" unicode="&#xd2;" horiz-adv-x="1536" 
d="M768 -20q-322 0 -504 182t-182 545q0 202 88 366t245.5 254t358.5 90q199 0 354.5 -88t240.5 -249t85 -367q0 -220 -86.5 -386.5t-244.5 -256.5t-355 -90zM776 66q123 0 218.5 85t146.5 229.5t51 315.5q0 195 -49 338.5t-143.5 220t-231.5 76.5q-130 0 -225.5 -80.5
t-147 -226t-51.5 -326.5q0 -314 111.5 -473t320.5 -159zM991 1561q0 -17 -13.5 -28.5t-26.5 -11.5q-16 0 -110 35t-185.5 84.5t-126.5 79.5t-35 70q0 31 28.5 57.5t63.5 26.5q30 0 58 -22.5t50 -45.5q135 -125 281 -217q16 -10 16 -28z" />
    <glyph glyph-name="Oacute" unicode="&#xd3;" horiz-adv-x="1536" 
d="M768 -20q-322 0 -504 182t-182 545q0 202 88 366t245.5 254t358.5 90q199 0 354.5 -88t240.5 -249t85 -367q0 -220 -86.5 -386.5t-244.5 -256.5t-355 -90zM776 66q123 0 218.5 85t146.5 229.5t51 315.5q0 195 -49 338.5t-143.5 220t-231.5 76.5q-130 0 -225.5 -80.5
t-147 -226t-51.5 -326.5q0 -314 111.5 -473t320.5 -159zM977 1874q34 0 63 -27t29 -57q0 -64 -98 -113q-107 -66 -222 -111t-137 -45q-16 0 -28 11.5t-12 28.5q0 18 16 28q146 92 281 217q62 68 108 68z" />
    <glyph glyph-name="Ocircumflex" unicode="&#xd4;" horiz-adv-x="1536" 
d="M768 -20q-322 0 -504 182t-182 545q0 202 88 366t245.5 254t358.5 90q199 0 354.5 -88t240.5 -249t85 -367q0 -220 -86.5 -386.5t-244.5 -256.5t-355 -90zM776 66q123 0 218.5 85t146.5 229.5t51 315.5q0 195 -49 338.5t-143.5 220t-231.5 76.5q-130 0 -225.5 -80.5
t-147 -226t-51.5 -326.5q0 -314 111.5 -473t320.5 -159zM753 1704q-81 -85 -202 -187q-6 -6 -13 -6q-14 0 -27 12t-13 24q0 7 6 13q66 60 130.5 128.5t127.5 134.5q16 16 35 16q18 0 32 -14q137 -137 236 -218q6 -5 6 -13q0 -25 -33 -57t-58 -32q-8 0 -14 4
q-60 45 -109.5 93t-103.5 102z" />
    <glyph glyph-name="Otilde" unicode="&#xd5;" horiz-adv-x="1536" 
d="M768 -20q-322 0 -504 182t-182 545q0 202 88 366t245.5 254t358.5 90q199 0 354.5 -88t240.5 -249t85 -367q0 -220 -86.5 -386.5t-244.5 -256.5t-355 -90zM776 66q123 0 218.5 85t146.5 229.5t51 315.5q0 195 -49 338.5t-143.5 220t-231.5 76.5q-130 0 -225.5 -80.5
t-147 -226t-51.5 -326.5q0 -314 111.5 -473t320.5 -159zM493 1494q-27 0 -27 16l1 5q16 91 67.5 151t120.5 60q39 0 75 -17t69.5 -37t63.5 -36.5t56 -17.5q59 0 88 98q5 17 21 17q10 0 21 -5t11 -12q0 -49 -21 -101.5t-57.5 -87t-80.5 -34.5q-42 0 -81 18.5t-74.5 40t-68 40
t-63.5 18.5q-27 0 -51 -27t-39 -72q-8 -17 -31 -17z" />
    <glyph glyph-name="Odieresis" unicode="&#xd6;" horiz-adv-x="1536" 
d="M768 -20q-322 0 -504 182t-182 545q0 202 88 366t245.5 254t358.5 90q199 0 354.5 -88t240.5 -249t85 -367q0 -220 -86.5 -386.5t-244.5 -256.5t-355 -90zM776 66q123 0 218.5 85t146.5 229.5t51 315.5q0 195 -49 338.5t-143.5 220t-231.5 76.5q-130 0 -225.5 -80.5
t-147 -226t-51.5 -326.5q0 -314 111.5 -473t320.5 -159zM579 1577q-47 0 -75.5 32t-28.5 77q0 43 31.5 71.5t72.5 28.5t73 -29.5t32 -70.5q0 -45 -29.5 -77t-75.5 -32zM983 1577q-45 0 -75 32t-30 77q0 43 32 71.5t73 28.5t72.5 -29.5t31.5 -70.5q0 -45 -28.5 -77t-75.5 -32
z" />
    <glyph glyph-name="multiply" unicode="&#xd7;" horiz-adv-x="1024" 
d="M911 856l-327 -332l338 -336l-66 -65l-338 336l-338 -338l-65 65l338 338l-326 328l66 66l325 -328l328 332z" />
    <glyph glyph-name="Oslash" unicode="&#xd8;" horiz-adv-x="1536" 
d="M768 -20q-276 0 -451 133l-118 -136q-7 -8 -18 -8q-20 0 -37.5 17t-17.5 32q0 9 7 17l121 137q-172 184 -172 535q0 203 88 366t246.5 253.5t357.5 90.5q263 0 445 -151l116 131q7 9 18 9q18 0 34.5 -14t16.5 -29q0 -8 -7 -15l-121 -138q178 -190 178 -497
q0 -220 -86.5 -386.5t-244.5 -256.5t-355 -90zM344 698q0 -214 53 -362l703 794q-108 201 -332 201q-130 0 -225.5 -80.5t-147 -226t-51.5 -326.5zM776 66q121 0 216 82.5t147.5 228.5t52.5 319q0 196 -55 355l-699 -801q105 -184 338 -184z" />
    <glyph glyph-name="Ugrave" unicode="&#xd9;" horiz-adv-x="1620" 
d="M1376 541q0 -290 -134.5 -429t-412.5 -139q-294 0 -425.5 123.5t-131.5 399.5v573q0 102 -17 148.5t-58 69.5t-119 28q-12 0 -18.5 11t-6.5 24q0 12 6.5 22t18.5 10q65 0 149 -7t158 -7q72 0 155 7q82 7 152 7q22 0 22 -28q0 -14 -7 -26.5t-17 -12.5q-80 -5 -121 -25.5
t-57 -63.5t-16 -157v-559q0 -196 101 -312t269 -116q199 0 303.5 109.5t104.5 347.5v427q0 88 -6 167t-28 127t-76 50l-62 5q-10 0 -15.5 11t-5.5 24q0 32 21 32q49 0 104.5 -7t112.5 -7q53 0 106.5 7t118.5 7q12 0 18.5 -10t6.5 -22q0 -13 -6.5 -24t-18.5 -11l-58 -5
q-28 -1 -45 -16t-34.5 -54t-24.5 -99t-7 -141l1 -119v-340zM1077 1561q0 -17 -13.5 -28.5t-26.5 -11.5q-16 0 -110 35t-185.5 84.5t-126.5 79.5t-35 70q0 31 28.5 57.5t63.5 26.5q30 0 58 -22.5t50 -45.5q135 -125 281 -217q16 -10 16 -28z" />
    <glyph glyph-name="Uacute" unicode="&#xda;" horiz-adv-x="1620" 
d="M1376 541q0 -290 -134.5 -429t-412.5 -139q-294 0 -425.5 123.5t-131.5 399.5v573q0 102 -17 148.5t-58 69.5t-119 28q-12 0 -18.5 11t-6.5 24q0 12 6.5 22t18.5 10q65 0 149 -7t158 -7q72 0 155 7q82 7 152 7q22 0 22 -28q0 -14 -7 -26.5t-17 -12.5q-80 -5 -121 -25.5
t-57 -63.5t-16 -157v-559q0 -196 101 -312t269 -116q199 0 303.5 109.5t104.5 347.5v427q0 88 -6 167t-28 127t-76 50l-62 5q-10 0 -15.5 11t-5.5 24q0 32 21 32q49 0 104.5 -7t112.5 -7q53 0 106.5 7t118.5 7q12 0 18.5 -10t6.5 -22q0 -13 -6.5 -24t-18.5 -11l-58 -5
q-28 -1 -45 -16t-34.5 -54t-24.5 -99t-7 -141l1 -119v-340zM1110 1874q34 0 63 -27t29 -57q0 -64 -98 -113q-107 -66 -222 -111t-137 -45q-16 0 -28 11.5t-12 28.5q0 18 16 28q146 92 281 217q62 68 108 68z" />
    <glyph glyph-name="Ucircumflex" unicode="&#xdb;" horiz-adv-x="1620" 
d="M1376 541q0 -290 -134.5 -429t-412.5 -139q-294 0 -425.5 123.5t-131.5 399.5v573q0 102 -17 148.5t-58 69.5t-119 28q-12 0 -18.5 11t-6.5 24q0 12 6.5 22t18.5 10q65 0 149 -7t158 -7q72 0 155 7q82 7 152 7q22 0 22 -28q0 -14 -7 -26.5t-17 -12.5q-80 -5 -121 -25.5
t-57 -63.5t-16 -157v-559q0 -196 101 -312t269 -116q199 0 303.5 109.5t104.5 347.5v427q0 88 -6 167t-28 127t-76 50l-62 5q-10 0 -15.5 11t-5.5 24q0 32 21 32q49 0 104.5 -7t112.5 -7q53 0 106.5 7t118.5 7q12 0 18.5 -10t6.5 -22q0 -13 -6.5 -24t-18.5 -11l-58 -5
q-28 -1 -45 -16t-34.5 -54t-24.5 -99t-7 -141l1 -119v-340zM862 1704q-81 -85 -202 -187q-6 -6 -13 -6q-14 0 -27 12t-13 24q0 7 6 13q66 60 130.5 128.5t127.5 134.5q16 16 35 16q18 0 32 -14q137 -137 236 -218q6 -5 6 -13q0 -25 -33 -57t-58 -32q-8 0 -14 4
q-60 45 -109.5 93t-103.5 102z" />
    <glyph glyph-name="Udieresis" unicode="&#xdc;" horiz-adv-x="1620" 
d="M1376 541q0 -290 -134.5 -429t-412.5 -139q-294 0 -425.5 123.5t-131.5 399.5v573q0 102 -17 148.5t-58 69.5t-119 28q-12 0 -18.5 11t-6.5 24q0 12 6.5 22t18.5 10q65 0 149 -7t158 -7q72 0 155 7q82 7 152 7q22 0 22 -28q0 -14 -7 -26.5t-17 -12.5q-80 -5 -121 -25.5
t-57 -63.5t-16 -157v-559q0 -196 101 -312t269 -116q199 0 303.5 109.5t104.5 347.5v427q0 88 -6 167t-28 127t-76 50l-62 5q-10 0 -15.5 11t-5.5 24q0 32 21 32q49 0 104.5 -7t112.5 -7q53 0 106.5 7t118.5 7q12 0 18.5 -10t6.5 -22q0 -13 -6.5 -24t-18.5 -11l-58 -5
q-28 -1 -45 -16t-34.5 -54t-24.5 -99t-7 -141l1 -119v-340zM677 1587q-47 0 -75.5 32t-28.5 77q0 43 31.5 71.5t72.5 28.5t73 -29.5t32 -70.5q0 -45 -29.5 -77t-75.5 -32zM1081 1587q-45 0 -75 32t-30 77q0 43 32 71.5t73 28.5t72.5 -29.5t31.5 -70.5q0 -45 -28.5 -77
t-75.5 -32z" />
    <glyph glyph-name="Yacute" unicode="&#xdd;" horiz-adv-x="1329" 
d="M786 264q0 -86 14 -125t51 -56.5t134 -27.5q12 -2 19.5 -13t7.5 -23q0 -13 -7.5 -23t-21.5 -10q-82 0 -156.5 9t-148.5 9q-78 0 -161 -9t-150 -9q-25 0 -25 33q0 32 25 36q96 9 132.5 26.5t50 53.5t13.5 129v268l-143 263q-214 401 -279 471q-26 28 -62 34.5t-89 14.5
q-10 2 -16.5 12t-6.5 23q0 12 6.5 22t16.5 10q82 0 153.5 -6t141.5 -6q75 0 151 6t148 6q26 0 26 -32q0 -13 -7 -23t-19 -12q-78 -8 -110 -26.5t-32 -53.5q0 -39 39 -113l244 -465q6 -10 18 -10q11 0 17 10q130 213 203 362.5t73 201.5q0 42 -19.5 62t-60.5 25l-57 7
q-22 4 -22 35q0 12 6 22t16 10q76 0 132 -6t114 -6q47 0 97 6t110 6q22 0 22 -32q0 -13 -6 -24t-18 -11q-44 -4 -85 -28.5t-70 -60.5t-109.5 -169.5t-299.5 -503.5v-289zM1032 1874q34 0 63 -27t29 -57q0 -64 -98 -113q-107 -66 -222 -111t-137 -45q-16 0 -28 11.5t-12 28.5
q0 18 16 28q146 92 281 217q62 68 108 68z" />
    <glyph glyph-name="Thorn" unicode="&#xde;" horiz-adv-x="1159" 
d="M272 1069q0 102 -17 148.5t-58 69.5t-119 28q-12 0 -18.5 11t-6.5 24q0 12 6.5 22t18.5 10q65 0 149 -6t158 -6l81 2q190 10 226 10q22 0 22 -28q0 -14 -7 -26.5t-17 -12.5q-86 -6 -124 -20.5t-54 -46t-16 -99.5q0 -57 4 -64t20 -7l17 1q56 8 118 8q223 0 335 -99.5
t112 -278.5q0 -124 -62 -213t-172.5 -138t-250.5 -49h-15h-43l-43 2q-8 0 -12 -1t-6 -12t-2 -34v-67q0 -55 14 -79.5t55.5 -38t128.5 -22.5q13 -2 20 -13t7 -23q0 -13 -7 -23t-22 -10q-82 0 -156.5 8t-148.5 8q-78 0 -161 -8t-150 -8q-25 0 -25 33q0 32 25 36
q96 9 132.5 26.5t50 53.5t13.5 129v803zM623 1006q-56 0 -79.5 -3.5t-47.5 -11.5v-583q17 -7 61 -7q174 0 245.5 75t71.5 245q0 139 -57 212t-194 73z" />
    <glyph glyph-name="germandbls" unicode="&#xdf;" horiz-adv-x="1208" 
d="M209 1014q0 192 114 304t300 112q101 0 191.5 -41.5t144 -115.5t53.5 -163q0 -97 -55 -168.5t-189 -116.5q177 -22 266.5 -128.5t89.5 -284.5q0 -134 -50.5 -230.5t-145 -151.5t-199.5 -55q-113 0 -165 43t-52 97q0 43 24.5 72.5t71.5 29.5q35 0 64.5 -19.5t29.5 -54.5
q0 -22 -12 -35.5t-12 -29.5q0 -15 7 -27t54 -12q93 0 136 95.5t43 271.5q0 163 -83 262.5t-227 107.5q-8 0 -13.5 12t-5.5 26q0 27 17 30q215 28 215 274q0 105 -51 171.5t-143 66.5q-120 0 -173 -73t-53 -230v-805q0 -104 4 -136t23 -69l1 -8q0 -8 -5.5 -21.5t-22.5 -13.5
h-131q-53 0 -102 -5t-115 -5q-8 0 -13 9t-5 21q0 27 20 31q66 9 97.5 24.5t44 43.5t12.5 117v778z" />
    <glyph glyph-name="agrave" unicode="&#xe0;" horiz-adv-x="1006" 
d="M616 430q0 23 -2 28t-10 5q-168 -14 -249 -72.5t-81 -148.5q0 -71 34.5 -108.5t99.5 -37.5q71 0 139.5 36.5t68.5 68.5v229zM809 221q0 -72 15.5 -100.5t49.5 -28.5q23 0 37.5 5t40.5 22l7 3q7 0 18 -12.5t11 -23.5q0 -7 -5 -12q-35 -42 -83 -68t-97 -26
q-63 0 -105.5 24.5t-68.5 81.5q-2 5 -6 5l-7 -3q-66 -54 -132.5 -81t-164.5 -27q-118 0 -182.5 62t-64.5 177q0 151 136.5 231t399.5 80q3 0 4.5 2t2 12.5t1 32t0.5 60.5q0 131 -48.5 189.5t-147.5 58.5q-60 0 -105 -30t-45 -77q0 -21 14 -44q15 -21 15 -44q0 -28 -29.5 -55
t-68.5 -27q-56 0 -79.5 30t-23.5 73q0 101 105 174t254 73q164 0 258 -75.5t94 -251.5v-410zM626 1060q0 -14 -11.5 -27.5t-25.5 -13.5q-13 0 -28 11q-151 106 -283 250q-63 66 -63 121q0 30 27.5 51t66.5 21q40 0 62.5 -30.5t43.5 -70.5q93 -159 203 -291q8 -10 8 -21z" />
    <glyph glyph-name="aacute" unicode="&#xe1;" horiz-adv-x="1006" 
d="M616 430q0 23 -2 28t-10 5q-168 -14 -249 -72.5t-81 -148.5q0 -71 34.5 -108.5t99.5 -37.5q71 0 139.5 36.5t68.5 68.5v229zM809 221q0 -72 15.5 -100.5t49.5 -28.5q23 0 37.5 5t40.5 22l7 3q7 0 18 -12.5t11 -23.5q0 -7 -5 -12q-35 -42 -83 -68t-97 -26
q-63 0 -105.5 24.5t-68.5 81.5q-2 5 -6 5l-7 -3q-66 -54 -132.5 -81t-164.5 -27q-118 0 -182.5 62t-64.5 177q0 151 136.5 231t399.5 80q3 0 4.5 2t2 12.5t1 32t0.5 60.5q0 131 -48.5 189.5t-147.5 58.5q-60 0 -105 -30t-45 -77q0 -21 14 -44q15 -21 15 -44q0 -28 -29.5 -55
t-68.5 -27q-56 0 -79.5 30t-23.5 73q0 101 105 174t254 73q164 0 258 -75.5t94 -251.5v-410zM712 1473q38 0 66 -20.5t28 -51.5q0 -58 -63 -121q-124 -140 -283 -250q-12 -9 -24 -9q-16 0 -28.5 11t-12.5 28q0 11 8 21q120 147 203 291q30 60 52 80.5t54 20.5z" />
    <glyph glyph-name="acircumflex" unicode="&#xe2;" horiz-adv-x="1006" 
d="M616 430q0 23 -2 28t-10 5q-168 -14 -249 -72.5t-81 -148.5q0 -71 34.5 -108.5t99.5 -37.5q71 0 139.5 36.5t68.5 68.5v229zM809 221q0 -72 15.5 -100.5t49.5 -28.5q23 0 37.5 5t40.5 22l7 3q7 0 18 -12.5t11 -23.5q0 -7 -5 -12q-35 -42 -83 -68t-97 -26
q-63 0 -105.5 24.5t-68.5 81.5q-2 5 -6 5l-7 -3q-66 -54 -132.5 -81t-164.5 -27q-118 0 -182.5 62t-64.5 177q0 151 136.5 231t399.5 80q3 0 4.5 2t2 12.5t1 32t0.5 60.5q0 131 -48.5 189.5t-147.5 58.5q-60 0 -105 -30t-45 -77q0 -21 14 -44q15 -21 15 -44q0 -28 -29.5 -55
t-68.5 -27q-56 0 -79.5 30t-23.5 73q0 101 105 174t254 73q164 0 258 -75.5t94 -251.5v-410zM446 1208q-81 -85 -202 -187q-6 -6 -13 -6q-14 0 -27 12t-13 24q0 7 6 13q66 60 130.5 128.5t127.5 134.5q16 16 35 16q18 0 32 -14q137 -137 236 -218q6 -5 6 -13q0 -25 -33 -57
t-58 -32q-8 0 -14 4q-60 45 -109.5 93t-103.5 102z" />
    <glyph glyph-name="atilde" unicode="&#xe3;" horiz-adv-x="1006" 
d="M616 430q0 23 -2 28t-10 5q-168 -14 -249 -72.5t-81 -148.5q0 -71 34.5 -108.5t99.5 -37.5q71 0 139.5 36.5t68.5 68.5v229zM809 221q0 -72 15.5 -100.5t49.5 -28.5q23 0 37.5 5t40.5 22l7 3q7 0 18 -12.5t11 -23.5q0 -7 -5 -12q-35 -42 -83 -68t-97 -26
q-63 0 -105.5 24.5t-68.5 81.5q-2 5 -6 5l-7 -3q-66 -54 -132.5 -81t-164.5 -27q-118 0 -182.5 62t-64.5 177q0 151 136.5 231t399.5 80q3 0 4.5 2t2 12.5t1 32t0.5 60.5q0 131 -48.5 189.5t-147.5 58.5q-60 0 -105 -30t-45 -77q0 -21 14 -44q15 -21 15 -44q0 -28 -29.5 -55
t-68.5 -27q-56 0 -79.5 30t-23.5 73q0 101 105 174t254 73q164 0 258 -75.5t94 -251.5v-410zM188 1062q-27 0 -27 16l1 5q16 91 67.5 151t120.5 60q39 0 75 -17t69.5 -37t63.5 -36.5t56 -17.5q59 0 88 98q5 17 21 17q10 0 21 -5t11 -12q0 -49 -21 -101.5t-57.5 -87
t-80.5 -34.5q-42 0 -81 18.5t-74.5 40t-68 40t-63.5 18.5q-27 0 -51 -27t-39 -72q-8 -17 -31 -17z" />
    <glyph glyph-name="adieresis" unicode="&#xe4;" horiz-adv-x="1006" 
d="M616 430q0 23 -2 28t-10 5q-168 -14 -249 -72.5t-81 -148.5q0 -71 34.5 -108.5t99.5 -37.5q71 0 139.5 36.5t68.5 68.5v229zM809 221q0 -72 15.5 -100.5t49.5 -28.5q23 0 37.5 5t40.5 22l7 3q7 0 18 -12.5t11 -23.5q0 -7 -5 -12q-35 -42 -83 -68t-97 -26
q-63 0 -105.5 24.5t-68.5 81.5q-2 5 -6 5l-7 -3q-66 -54 -132.5 -81t-164.5 -27q-118 0 -182.5 62t-64.5 177q0 151 136.5 231t399.5 80q3 0 4.5 2t2 12.5t1 32t0.5 60.5q0 131 -48.5 189.5t-147.5 58.5q-60 0 -105 -30t-45 -77q0 -21 14 -44q15 -21 15 -44q0 -28 -29.5 -55
t-68.5 -27q-56 0 -79.5 30t-23.5 73q0 101 105 174t254 73q164 0 258 -75.5t94 -251.5v-410zM260 1104q-47 0 -75.5 32t-28.5 77q0 43 31.5 71.5t72.5 28.5t73 -29.5t32 -70.5q0 -45 -29.5 -77t-75.5 -32zM664 1104q-45 0 -75 32t-30 77q0 43 32 71.5t73 28.5t72.5 -29.5
t31.5 -70.5q0 -45 -28.5 -77t-75.5 -32z" />
    <glyph glyph-name="aring" unicode="&#xe5;" horiz-adv-x="1006" 
d="M616 430q0 23 -2 28t-10 5q-168 -14 -249 -72.5t-81 -148.5q0 -71 34.5 -108.5t99.5 -37.5q71 0 139.5 36.5t68.5 68.5v229zM809 221q0 -72 15.5 -100.5t49.5 -28.5q23 0 37.5 5t40.5 22l7 3q7 0 18 -12.5t11 -23.5q0 -7 -5 -12q-35 -42 -83 -68t-97 -26
q-63 0 -105.5 24.5t-68.5 81.5q-2 5 -6 5l-7 -3q-66 -54 -132.5 -81t-164.5 -27q-118 0 -182.5 62t-64.5 177q0 151 136.5 231t399.5 80q3 0 4.5 2t2 12.5t1 32t0.5 60.5q0 131 -48.5 189.5t-147.5 58.5q-60 0 -105 -30t-45 -77q0 -21 14 -44q15 -21 15 -44q0 -28 -29.5 -55
t-68.5 -27q-56 0 -79.5 30t-23.5 73q0 101 105 174t254 73q164 0 258 -75.5t94 -251.5v-410zM473 1487q94 0 160.5 -58.5t66.5 -156.5q0 -105 -66.5 -161t-160.5 -56q-98 0 -165 55t-67 160q0 95 67 156t165 61zM471 1427q-55 0 -86 -42t-31 -113q0 -72 31 -115t86 -43
t86 43t31 117q0 72 -31 112.5t-86 40.5z" />
    <glyph glyph-name="ae" unicode="&#xe6;" horiz-adv-x="1460" 
d="M821 522q-16 0 -19 -7t-3 -36q0 -172 86.5 -270t238.5 -98q66 0 127.5 10t120.5 51q10 6 19 6q15 0 23 -11.5t8 -23.5q0 -19 -58 -70t-128.5 -72t-168.5 -21q-129 0 -229.5 42t-151.5 109l-7 9h-2l-9 -9q-128 -151 -349 -151q-117 0 -182 63t-65 180q0 150 144.5 234
t387.5 84q5 43 17 112q0 105 -44 168.5t-126 63.5q-78 0 -129.5 -30t-51.5 -77q0 -22 14.5 -43.5t14.5 -44.5q0 -35 -30.5 -58.5t-67.5 -23.5q-49 0 -76 29t-27 76q0 65 53 121t139.5 90t172.5 34q96 0 157.5 -21.5t110.5 -70.5q6 -8 13 -8l12 4q122 96 280 96
q115 0 202 -49t137 -137.5t50 -189.5q0 -60 -26 -60h-578zM641 219q-25 66 -33 125t-12 119q-80 0 -155.5 -26.5t-123 -75.5t-47.5 -107q0 -156 123 -156q60 0 130.5 24.5t117.5 96.5zM1196 594q27 0 27 68q0 59 -25 112.5t-69.5 82t-104.5 28.5q-97 0 -157 -76t-60 -199
q0 -12 3 -14t17 -2h369z" />
    <glyph glyph-name="ccedilla" unicode="&#xe7;" horiz-adv-x="934" 
d="M287 496q0 -184 82 -288t233 -104q173 0 254 111q7 12 20 12t24 -10t11 -19l-2 -8q-45 -103 -127.5 -154t-177.5 -59q-30 -3 -49 -23t-19 -48l1 -15q75 -5 132.5 -54t57.5 -120q0 -99 -71 -156t-187 -57q-53 0 -93 20t-65 58t-25 56q0 12 11.5 19t24.5 8q11 0 16 -9
q37 -76 125 -76q54 0 87.5 36.5t33.5 96.5q0 42 -29 73.5t-90 41.5q-14 4 -14 15q0 21 10 60.5t28 71.5q-199 17 -308 146t-109 348q0 229 135 359t373 130q135 0 222 -62t87 -155q0 -43 -25.5 -70.5t-72.5 -27.5q-43 0 -71 20.5t-28 63.5q0 29 15 47q16 19 16 35
q0 37 -50.5 56.5t-107.5 19.5q-135 0 -206.5 -97t-71.5 -292z" />
    <glyph glyph-name="egrave" unicode="&#xe8;" horiz-adv-x="997" 
d="M305 522q-10 0 -11 -7t-1 -17q0 -188 84.5 -287.5t243.5 -99.5q163 0 253 65q6 6 13 6q10 0 21 -14t11 -23q0 -17 -58 -69.5t-129 -74t-169 -21.5q-227 0 -356 129.5t-129 359.5q0 135 59.5 248t165.5 177t236 64q169 0 275 -110.5t106 -282.5q0 -43 -31 -43h-584z
M680 594q20 0 28.5 11t8.5 59q0 90 -53 155.5t-138 65.5q-94 0 -152 -60.5t-73 -175.5l-3 -33q0 -22 9 -22h373zM688 1060q0 -14 -11.5 -27.5t-25.5 -13.5q-13 0 -28 11q-151 106 -283 250q-63 66 -63 121q0 30 27.5 51t66.5 21q40 0 62.5 -30.5t43.5 -70.5
q93 -159 203 -291q8 -10 8 -21z" />
    <glyph glyph-name="eacute" unicode="&#xe9;" horiz-adv-x="997" 
d="M305 522q-10 0 -11 -7t-1 -17q0 -188 84.5 -287.5t243.5 -99.5q163 0 253 65q6 6 13 6q10 0 21 -14t11 -23q0 -17 -58 -69.5t-129 -74t-169 -21.5q-227 0 -356 129.5t-129 359.5q0 135 59.5 248t165.5 177t236 64q169 0 275 -110.5t106 -282.5q0 -43 -31 -43h-584z
M680 594q20 0 28.5 11t8.5 59q0 90 -53 155.5t-138 65.5q-94 0 -152 -60.5t-73 -175.5l-3 -33q0 -22 9 -22h373zM725 1473q38 0 66 -20.5t28 -51.5q0 -58 -63 -121q-124 -140 -283 -250q-12 -9 -24 -9q-16 0 -28.5 11t-12.5 28q0 11 8 21q120 147 203 291q30 60 52 80.5
t54 20.5z" />
    <glyph glyph-name="ecircumflex" unicode="&#xea;" horiz-adv-x="997" 
d="M305 522q-10 0 -11 -7t-1 -17q0 -188 84.5 -287.5t243.5 -99.5q163 0 253 65q6 6 13 6q10 0 21 -14t11 -23q0 -17 -58 -69.5t-129 -74t-169 -21.5q-227 0 -356 129.5t-129 359.5q0 135 59.5 248t165.5 177t236 64q169 0 275 -110.5t106 -282.5q0 -43 -31 -43h-584z
M680 594q20 0 28.5 11t8.5 59q0 90 -53 155.5t-138 65.5q-94 0 -152 -60.5t-73 -175.5l-3 -33q0 -22 9 -22h373zM514 1208q-81 -85 -202 -187q-6 -6 -13 -6q-14 0 -27 12t-13 24q0 7 6 13q66 60 130.5 128.5t127.5 134.5q16 16 35 16q18 0 32 -14q137 -137 236 -218
q6 -5 6 -13q0 -25 -33 -57t-58 -32q-8 0 -14 4q-60 45 -109.5 93t-103.5 102z" />
    <glyph glyph-name="edieresis" unicode="&#xeb;" horiz-adv-x="997" 
d="M305 522q-10 0 -11 -7t-1 -17q0 -188 84.5 -287.5t243.5 -99.5q163 0 253 65q6 6 13 6q10 0 21 -14t11 -23q0 -17 -58 -69.5t-129 -74t-169 -21.5q-227 0 -356 129.5t-129 359.5q0 135 59.5 248t165.5 177t236 64q169 0 275 -110.5t106 -282.5q0 -43 -31 -43h-584z
M680 594q20 0 28.5 11t8.5 59q0 90 -53 155.5t-138 65.5q-94 0 -152 -60.5t-73 -175.5l-3 -33q0 -22 9 -22h373zM331 1107q-47 0 -75.5 32t-28.5 77q0 43 31.5 71.5t72.5 28.5t73 -29.5t32 -70.5q0 -45 -29.5 -77t-75.5 -32zM735 1107q-45 0 -75 32t-30 77q0 43 32 71.5
t73 28.5t72.5 -29.5t31.5 -70.5q0 -45 -28.5 -77t-75.5 -32z" />
    <glyph glyph-name="igrave" unicode="&#xec;" horiz-adv-x="586" 
d="M389 248q0 -103 11 -131.5t37 -43.5t79 -22q25 -4 25 -31q0 -12 -6.5 -21t-18.5 -9q-37 0 -96.5 7t-120.5 7q-66 0 -128 -7t-120 -7q-10 0 -16 9t-6 21q0 27 24 31q53 6 83 18.5t43.5 34t15.5 53t2 79.5v329q0 128 -9 178t-34 70t-101 29q-12 0 -18 10t-6 21q0 8 3.5 16
t9 11t57 6.5t117 13.5t100.5 18t41 9q15 0 23.5 -13.5t8.5 -28.5v-657zM360 1060q0 -14 -11.5 -27.5t-25.5 -13.5q-13 0 -28 11q-151 106 -283 250q-63 66 -63 121q0 30 27.5 51t66.5 21q40 0 62.5 -30.5t43.5 -70.5q93 -159 203 -291q8 -10 8 -21z" />
    <glyph glyph-name="iacute" unicode="&#xed;" horiz-adv-x="586" 
d="M389 248q0 -103 11 -131.5t37 -43.5t79 -22q25 -4 25 -31q0 -12 -6.5 -21t-18.5 -9q-37 0 -96.5 7t-120.5 7q-66 0 -128 -7t-120 -7q-10 0 -16 9t-6 21q0 27 24 31q53 6 83 18.5t43.5 34t15.5 53t2 79.5v329q0 128 -9 178t-34 70t-101 29q-12 0 -18 10t-6 21q0 8 3.5 16
t9 11t57 6.5t117 13.5t100.5 18t41 9q15 0 23.5 -13.5t8.5 -28.5v-657zM471 1473q38 0 66 -20.5t28 -51.5q0 -58 -63 -121q-124 -140 -283 -250q-12 -9 -24 -9q-16 0 -28.5 11t-12.5 28q0 11 8 21q120 147 203 291q30 60 52 80.5t54 20.5z" />
    <glyph glyph-name="icircumflex" unicode="&#xee;" horiz-adv-x="586" 
d="M389 248q0 -103 11 -131.5t37 -43.5t79 -22q25 -4 25 -31q0 -12 -6.5 -21t-18.5 -9q-37 0 -96.5 7t-120.5 7q-66 0 -128 -7t-120 -7q-10 0 -16 9t-6 21q0 27 24 31q53 6 83 18.5t43.5 34t15.5 53t2 79.5v329q0 128 -9 178t-34 70t-101 29q-12 0 -18 10t-6 21q0 8 3.5 16
t9 11t57 6.5t117 13.5t100.5 18t41 9q15 0 23.5 -13.5t8.5 -28.5v-657zM229 1207q-81 -85 -202 -187q-6 -6 -13 -6q-14 0 -27 12t-13 24q0 7 6 13q66 60 130.5 128.5t127.5 134.5q16 16 35 16q18 0 32 -14q137 -137 236 -218q6 -5 6 -13q0 -25 -33 -57t-58 -32q-8 0 -14 4
q-60 45 -109.5 93t-103.5 102z" />
    <glyph glyph-name="idieresis" unicode="&#xef;" horiz-adv-x="586" 
d="M389 248q0 -103 11 -131.5t37 -43.5t79 -22q25 -4 25 -31q0 -12 -6.5 -21t-18.5 -9q-37 0 -96.5 7t-120.5 7q-66 0 -128 -7t-120 -7q-10 0 -16 9t-6 21q0 27 24 31q53 6 83 18.5t43.5 34t15.5 53t2 79.5v329q0 128 -9 178t-34 70t-101 29q-12 0 -18 10t-6 21q0 8 3.5 16
t9 11t57 6.5t117 13.5t100.5 18t41 9q15 0 23.5 -13.5t8.5 -28.5v-657zM47 1126q-47 0 -75.5 32t-28.5 77q0 43 31.5 71.5t72.5 28.5t73 -29.5t32 -70.5q0 -45 -29.5 -77t-75.5 -32zM451 1126q-45 0 -75 32t-30 77q0 43 32 71.5t73 28.5t72.5 -29.5t31.5 -70.5
q0 -45 -28.5 -77t-75.5 -32z" />
    <glyph glyph-name="eth" unicode="&#xf0;" horiz-adv-x="1116" 
d="M429 1063q-18 0 -35 17.5t-17 37.5q0 13 12 21l135 106q-51 48 -133 109q-10 5 -10 16q0 17 16 32.5t32 15.5q12 0 65 -30t114 -75l150 119q6 4 13 4q16 0 34 -18.5t18 -38.5q0 -10 -8 -17l-135 -109q177 -160 281 -372t104 -412q-1 -150 -65 -263.5t-178 -174
t-259 -60.5q-137 0 -240 59t-158.5 166.5t-55.5 243.5q0 125 63 227t172.5 159t239.5 57q90 0 174 -29l5 -2q4 0 4 5q0 35 -49.5 134t-131.5 189l-140 -111q-8 -6 -17 -6zM322 461q0 -195 71 -302.5t197 -107.5q274 0 274 333q0 206 -76.5 313.5t-214.5 107.5
q-117 0 -184 -93.5t-67 -250.5z" />
    <glyph glyph-name="ntilde" unicode="&#xf1;" horiz-adv-x="1204" 
d="M389 248q0 -103 33 -145t110 -54q23 -4 23 -31q0 -12 -6 -21t-17 -9l-165 13l-68 3q-66 0 -125 -7t-113 -7q-10 0 -15 9t-5 20q0 28 22 32q61 10 87 23t36.5 37.5t10.5 124.5v258q0 102 -1 168.5t-14.5 105.5t-42 55.5t-84.5 18.5q-22 0 -22 31q0 10 4 20t12 10
q117 8 197 24.5t102 16.5q41 0 41 -43l-3 -20q-17 -94 -17 -109q0 -4 3 -4l5 4q25 45 78 90.5t115 70.5t128 25q310 0 310 -360v-350q0 -87 10 -121t35.5 -51t81.5 -25q20 -4 20 -31q0 -30 -20 -30q-27 0 -91.5 7t-125.5 7q-66 0 -120.5 -7t-92.5 -7q-11 0 -16.5 10.5
t-5.5 22.5q0 25 19 28q48 9 71.5 25t32.5 43t9 117v311q0 126 -17 176.5t-52.5 81.5t-100.5 31q-123 0 -189.5 -79t-66.5 -227v-282zM358 1062q-27 0 -27 16l1 5q16 91 67.5 151t120.5 60q39 0 75 -17t69.5 -37t63.5 -36.5t56 -17.5q59 0 88 98q5 17 21 17q10 0 21 -5
t11 -12q0 -49 -21 -101.5t-57.5 -87t-80.5 -34.5q-42 0 -81 18.5t-74.5 40t-68 40t-63.5 18.5q-27 0 -51 -27t-39 -72q-8 -17 -31 -17z" />
    <glyph glyph-name="ograve" unicode="&#xf2;" horiz-adv-x="1094" 
d="M1016 496q0 -243 -130.5 -379.5t-359.5 -136.5q-208 0 -328 135t-120 372q0 137 59.5 245t169.5 167t246 59q211 0 337 -124.5t126 -337.5zM801 473q0 410 -242 410q-266 0 -266 -414q0 -208 69 -311t187 -103q123 0 187.5 100t64.5 318zM677 1060q0 -14 -11.5 -27.5
t-25.5 -13.5q-13 0 -28 11q-151 106 -283 250q-63 66 -63 121q0 30 27.5 51t66.5 21q40 0 62.5 -30.5t43.5 -70.5q93 -159 203 -291q8 -10 8 -21z" />
    <glyph glyph-name="oacute" unicode="&#xf3;" horiz-adv-x="1094" 
d="M1016 496q0 -243 -130.5 -379.5t-359.5 -136.5q-208 0 -328 135t-120 372q0 137 59.5 245t169.5 167t246 59q211 0 337 -124.5t126 -337.5zM801 473q0 410 -242 410q-266 0 -266 -414q0 -208 69 -311t187 -103q123 0 187.5 100t64.5 318zM723 1473q38 0 66 -20.5
t28 -51.5q0 -58 -63 -121q-124 -140 -283 -250q-12 -9 -24 -9q-16 0 -28.5 11t-12.5 28q0 11 8 21q120 147 203 291q30 60 52 80.5t54 20.5z" />
    <glyph glyph-name="ocircumflex" unicode="&#xf4;" horiz-adv-x="1094" 
d="M1016 496q0 -243 -130.5 -379.5t-359.5 -136.5q-208 0 -328 135t-120 372q0 137 59.5 245t169.5 167t246 59q211 0 337 -124.5t126 -337.5zM801 473q0 410 -242 410q-266 0 -266 -414q0 -208 69 -311t187 -103q123 0 187.5 100t64.5 318zM520 1210q-81 -85 -202 -187
q-6 -6 -13 -6q-14 0 -27 12t-13 24q0 7 6 13q66 60 130.5 128.5t127.5 134.5q16 16 35 16q18 0 32 -14q137 -137 236 -218q6 -5 6 -13q0 -25 -33 -57t-58 -32q-8 0 -14 4q-60 45 -109.5 93t-103.5 102z" />
    <glyph glyph-name="otilde" unicode="&#xf5;" horiz-adv-x="1094" 
d="M1016 496q0 -243 -130.5 -379.5t-359.5 -136.5q-208 0 -328 135t-120 372q0 137 59.5 245t169.5 167t246 59q211 0 337 -124.5t126 -337.5zM801 473q0 410 -242 410q-266 0 -266 -414q0 -208 69 -311t187 -103q123 0 187.5 100t64.5 318zM287 1062q-27 0 -27 16l1 5
q16 91 67.5 151t120.5 60q39 0 75 -17t69.5 -37t63.5 -36.5t56 -17.5q59 0 88 98q5 17 21 17q10 0 21 -5t11 -12q0 -49 -21 -101.5t-57.5 -87t-80.5 -34.5q-42 0 -81 18.5t-74.5 40t-68 40t-63.5 18.5q-27 0 -51 -27t-39 -72q-8 -17 -31 -17z" />
    <glyph glyph-name="odieresis" unicode="&#xf6;" horiz-adv-x="1094" 
d="M1016 496q0 -243 -130.5 -379.5t-359.5 -136.5q-208 0 -328 135t-120 372q0 137 59.5 245t169.5 167t246 59q211 0 337 -124.5t126 -337.5zM801 473q0 410 -242 410q-266 0 -266 -414q0 -208 69 -311t187 -103q123 0 187.5 100t64.5 318zM350 1107q-47 0 -75.5 32
t-28.5 77q0 43 31.5 71.5t72.5 28.5t73 -29.5t32 -70.5q0 -45 -29.5 -77t-75.5 -32zM754 1107q-45 0 -75 32t-30 77q0 43 32 71.5t73 28.5t72.5 -29.5t31.5 -70.5q0 -45 -28.5 -77t-75.5 -32z" />
    <glyph glyph-name="divide" unicode="&#xf7;" horiz-adv-x="1024" 
d="M106 502h791v-90h-791v90zM502 31q-45 0 -77 31.5t-32 76.5q0 41 32 74t77 33q47 0 76.5 -33t29.5 -74q0 -45 -29.5 -76.5t-76.5 -31.5zM504 680q-45 0 -77 31.5t-32 76.5q0 41 32 74t77 33q47 0 76.5 -33t29.5 -74q0 -45 -29.5 -76.5t-76.5 -31.5z" />
    <glyph glyph-name="oslash" unicode="&#xf8;" horiz-adv-x="1092" 
d="M879 844q137 -125 137 -348q0 -243 -130.5 -379.5t-359.5 -136.5q-174 0 -286 94l-90 -94q-4 -4 -11 -4q-13 0 -28.5 15t-15.5 28l3 8l90 98q-110 128 -110 362q0 209 131 340t344 131q155 0 270 -71l62 71q4 5 10 5q15 0 30.5 -15.5t15.5 -27.5l-3 -9zM801 473
q0 135 -31 240l-430 -516q66 -142 209 -142q123 0 187.5 100.5t64.5 317.5zM293 469q0 -115 20 -195l424 510q-62 99 -178 99q-266 0 -266 -414z" />
    <glyph glyph-name="ugrave" unicode="&#xf9;" horiz-adv-x="1212" 
d="M1016 356q0 -148 12.5 -192.5t43 -61t97.5 -16.5q9 0 14 -9.5t5 -20.5q0 -27 -19 -31q-45 -9 -172.5 -27t-134.5 -18q-37 0 -37 114q0 5 -6 5l-6 -3q-136 -116 -301 -116q-169 0 -242 80t-73 274v231q0 134 -9 178t-33 64t-102 31q-10 0 -15.5 11t-5.5 24q0 30 21 30
q103 7 184 24q89 17 115 17q37 0 37 -39v-491q0 -176 35.5 -239.5t130.5 -63.5q73 0 147 24.5t113 59.5q8 8 8 47v323q0 159 -8.5 196t-30.5 52.5t-90 24.5q-10 2 -15.5 13.5t-5.5 24.5q0 27 21 27q110 7 181 24q73 17 106 17q17 0 26 -12.5t9 -30.5v-545zM723 1060
q0 -14 -11.5 -27.5t-25.5 -13.5q-13 0 -28 11q-151 106 -283 250q-63 66 -63 121q0 30 27.5 51t66.5 21q40 0 62.5 -30.5t43.5 -70.5q93 -159 203 -291q8 -10 8 -21z" />
    <glyph glyph-name="uacute" unicode="&#xfa;" horiz-adv-x="1212" 
d="M1016 356q0 -148 12.5 -192.5t43 -61t97.5 -16.5q9 0 14 -9.5t5 -20.5q0 -27 -19 -31q-45 -9 -172.5 -27t-134.5 -18q-37 0 -37 114q0 5 -6 5l-6 -3q-136 -116 -301 -116q-169 0 -242 80t-73 274v231q0 134 -9 178t-33 64t-102 31q-10 0 -15.5 11t-5.5 24q0 30 21 30
q103 7 184 24q89 17 115 17q37 0 37 -39v-491q0 -176 35.5 -239.5t130.5 -63.5q73 0 147 24.5t113 59.5q8 8 8 47v323q0 159 -8.5 196t-30.5 52.5t-90 24.5q-10 2 -15.5 13.5t-5.5 24.5q0 27 21 27q110 7 181 24q73 17 106 17q17 0 26 -12.5t9 -30.5v-545zM764 1473
q38 0 66 -20.5t28 -51.5q0 -58 -63 -121q-124 -140 -283 -250q-12 -9 -24 -9q-16 0 -28.5 11t-12.5 28q0 11 8 21q120 147 203 291q30 60 52 80.5t54 20.5z" />
    <glyph glyph-name="ucircumflex" unicode="&#xfb;" horiz-adv-x="1212" 
d="M1016 356q0 -148 12.5 -192.5t43 -61t97.5 -16.5q9 0 14 -9.5t5 -20.5q0 -27 -19 -31q-45 -9 -172.5 -27t-134.5 -18q-37 0 -37 114q0 5 -6 5l-6 -3q-136 -116 -301 -116q-169 0 -242 80t-73 274v231q0 134 -9 178t-33 64t-102 31q-10 0 -15.5 11t-5.5 24q0 30 21 30
q103 7 184 24q89 17 115 17q37 0 37 -39v-491q0 -176 35.5 -239.5t130.5 -63.5q73 0 147 24.5t113 59.5q8 8 8 47v323q0 159 -8.5 196t-30.5 52.5t-90 24.5q-10 2 -15.5 13.5t-5.5 24.5q0 27 21 27q110 7 181 24q73 17 106 17q17 0 26 -12.5t9 -30.5v-545zM583 1227
q-81 -85 -202 -187q-6 -6 -13 -6q-14 0 -27 12t-13 24q0 7 6 13q66 60 130.5 128.5t127.5 134.5q16 16 35 16q18 0 32 -14q137 -137 236 -218q6 -5 6 -13q0 -25 -33 -57t-58 -32q-8 0 -14 4q-60 45 -109.5 93t-103.5 102z" />
    <glyph glyph-name="udieresis" unicode="&#xfc;" horiz-adv-x="1212" 
d="M1016 356q0 -148 12.5 -192.5t43 -61t97.5 -16.5q9 0 14 -9.5t5 -20.5q0 -27 -19 -31q-45 -9 -172.5 -27t-134.5 -18q-37 0 -37 114q0 5 -6 5l-6 -3q-136 -116 -301 -116q-169 0 -242 80t-73 274v231q0 134 -9 178t-33 64t-102 31q-10 0 -15.5 11t-5.5 24q0 30 21 30
q103 7 184 24q89 17 115 17q37 0 37 -39v-491q0 -176 35.5 -239.5t130.5 -63.5q73 0 147 24.5t113 59.5q8 8 8 47v323q0 159 -8.5 196t-30.5 52.5t-90 24.5q-10 2 -15.5 13.5t-5.5 24.5q0 27 21 27q110 7 181 24q73 17 106 17q17 0 26 -12.5t9 -30.5v-545zM389 1107
q-47 0 -75.5 32t-28.5 77q0 43 31.5 71.5t72.5 28.5t73 -29.5t32 -70.5q0 -45 -29.5 -77t-75.5 -32zM793 1107q-45 0 -75 32t-30 77q0 43 32 71.5t73 28.5t72.5 -29.5t31.5 -70.5q0 -45 -28.5 -77t-75.5 -32z" />
    <glyph glyph-name="yacute" unicode="&#xfd;" horiz-adv-x="1053" 
d="M591 256q7 0 11 4t46 90.5t76.5 167.5t63 160t28.5 110q0 32 -24 51t-86 27q-10 2 -15.5 11.5t-5.5 19.5t5.5 18.5t15.5 8.5q39 0 80 -5.5t82 -5.5q47 0 96 5.5t78 5.5q20 0 20 -28q0 -11 -5 -20.5t-15 -9.5q-46 -6 -71.5 -27t-44.5 -66l-151 -339q-201 -450 -405 -848
q-53 -94 -90.5 -136.5t-83 -68.5t-96.5 -26q-48 0 -91 25.5t-43 82.5q0 43 27 74t70 31q24 0 48 -22q24 -23 48 -23q30 0 82.5 63.5t119 182.5t105.5 211q10 24 10 44q0 19 -8 35l-145 302q-80 165 -152 331q-40 98 -71.5 130.5t-100.5 43.5q-15 4 -15 27q0 11 5.5 21
t15.5 10q64 0 122.5 -5.5t117.5 -5.5t116.5 5.5t116.5 5.5q21 0 21 -27t-21 -31q-65 -8 -91.5 -24.5t-26.5 -44.5q0 -41 18 -86q90 -240 199 -447q4 -8 14 -8zM751 1473q38 0 66 -20.5t28 -51.5q0 -58 -63 -121q-124 -140 -283 -250q-12 -9 -24 -9q-16 0 -28.5 11t-12.5 28
q0 11 8 21q120 147 203 291q30 60 52 80.5t54 20.5z" />
    <glyph glyph-name="thorn" unicode="&#xfe;" horiz-adv-x="1122" 
d="M389 250q0 -75 61 -131t154 -56q112 0 172 109t60 305q0 174 -47.5 261t-157.5 87q-66 0 -122 -28t-88 -77t-32 -99v-371zM197 1151q0 90 -11.5 120t-42 41t-92.5 13q-10 0 -15 10.5t-5 20.5t4 20t12 10l108 11q62 6 132 22l57 8q42 0 45 -38v-590l2 -5l4 3
q39 65 109.5 113t175.5 48q112 0 195.5 -58t129.5 -165.5t46 -238.5q0 -230 -116 -372t-310 -142q-116 0 -222 34l-8 2q-6 0 -6 -22v-322q0 -51 3 -85.5t19.5 -57.5t51.5 -35t100 -18q23 -4 23 -32q0 -11 -6.5 -20.5t-16.5 -9.5q-92 0 -150.5 7.5t-117.5 7.5
q-62 0 -125.5 -7.5t-128.5 -7.5q-10 0 -16.5 9.5t-6.5 20.5t6.5 20.5t18.5 11.5q57 6 89 18t46.5 33.5t16.5 53.5t2 79v1489z" />
    <glyph glyph-name="ydieresis" unicode="&#xff;" horiz-adv-x="1051" 
d="M591 256q7 0 11 4t46 90.5t76.5 167.5t63 160t28.5 110q0 32 -24 51t-86 27q-10 2 -15.5 11.5t-5.5 19.5t5.5 18.5t15.5 8.5q39 0 80 -5.5t82 -5.5q47 0 96 5.5t78 5.5q20 0 20 -28q0 -11 -5 -20.5t-15 -9.5q-46 -6 -71.5 -27t-44.5 -66l-151 -339q-201 -450 -405 -848
q-53 -94 -90.5 -136.5t-83 -68.5t-96.5 -26q-48 0 -91 25.5t-43 82.5q0 43 27 74t70 31q24 0 48 -22q24 -23 48 -23q30 0 82.5 63.5t119 182.5t105.5 211q10 24 10 44q0 19 -8 35l-145 302q-80 165 -152 331q-40 98 -71.5 130.5t-100.5 43.5q-15 4 -15 27q0 11 5.5 21
t15.5 10q64 0 122.5 -5.5t117.5 -5.5t116.5 5.5t116.5 5.5q21 0 21 -27t-21 -31q-65 -8 -91.5 -24.5t-26.5 -44.5q0 -41 18 -86q90 -240 199 -447q4 -8 14 -8zM378 1107q-47 0 -75.5 32t-28.5 77q0 43 31.5 71.5t72.5 28.5t73 -29.5t32 -70.5q0 -45 -29.5 -77t-75.5 -32z
M782 1107q-45 0 -75 32t-30 77q0 43 32 71.5t73 28.5t72.5 -29.5t31.5 -70.5q0 -45 -28.5 -77t-75.5 -32z" />
    <glyph glyph-name="OE" unicode="&#x152;" horiz-adv-x="1997" 
d="M1835 1376q22 0 33 -4.5t11 -22.5l-1 -10q-4 -21 -4 -75v-33q0 -113 6 -172q0 -17 -33 -17t-35 17q-15 105 -34 148.5t-55.5 61t-163.5 21.5h-123q-104 0 -127 -10.5t-31 -36t-8 -92.5v-358q0 -43 30 -43q113 0 167.5 12t79.5 42t36 130q4 24 37 24q12 0 21.5 -6t9.5 -18
q0 -43 -6 -109q-7 -67 -7 -118q0 -63 6 -112q7 -44 7 -122q0 -19 -30 -19q-13 0 -24.5 6t-13.5 17q-11 104 -34 134t-75 41.5t-174 11.5q-30 0 -30 -37v-271q0 -129 19 -180t68 -70.5t197 -19.5q122 0 186.5 25.5t102.5 81t45 151.5q4 21 37 21q17 0 28 -6t11 -14l-18 -157
q-7 -67 -7 -129v-30q0 -14 -13.5 -21.5t-33.5 -7.5h-743q-97 0 -183 -10t-173 -10q-337 0 -524 183t-187 511q0 224 86.5 392.5t243.5 259.5t356 91q81 0 268 -30l64 -11h735zM344 696q0 -321 114 -475.5t339 -154.5q103 0 151 18t73.5 57t25.5 105v788q0 115 -15 167.5
t-47 76.5q-74 51 -223 51q-124 0 -217.5 -75t-147 -221.5t-53.5 -336.5z" />
    <glyph glyph-name="oe" unicode="&#x153;" horiz-adv-x="1667" 
d="M1008 522q-11 0 -12 -9t-1 -38q0 -184 84 -277.5t213 -93.5q72 0 140.5 23t115.5 90q9 11 22 11t21.5 -9.5t8.5 -18.5l-3 -10q-53 -110 -143 -163.5t-225 -53.5q-225 0 -340 150q-4 5 -8 5q-3 0 -7 -5q-124 -150 -360 -150q-129 0 -229 60.5t-153.5 174.5t-53.5 273
q0 137 57 245t164.5 170t241.5 62q220 0 342 -147l7 -4l7 4q59 70 144 108.5t190 38.5q108 0 193 -50t131.5 -142t46.5 -201q0 -43 -31 -43h-563zM293 463q0 -203 65 -309.5t181 -106.5q119 0 180 105.5t61 345.5q-6 202 -65 293.5t-166 91.5q-124 0 -190 -101.5t-66 -318.5
zM1364 602q27 0 31 16.5t4 45.5q0 92 -51 156.5t-129 64.5q-71 0 -122 -39t-73 -106.5t-22 -117.5q0 -20 8 -20h354z" />
    <glyph glyph-name="Scaron" unicode="&#x160;" horiz-adv-x="1092" 
d="M287 1106q0 -76 44 -130t135 -94q221 -99 301.5 -151t129 -110.5t70.5 -120.5t22 -144q0 -122 -63.5 -208t-175.5 -131.5t-254 -45.5q-58 0 -129.5 17.5t-130.5 52.5q-11 4 -20 8t-23 4q-39 0 -60 -55q-10 -20 -33 -20q-12 0 -21 6.5t-9 15.5q16 120 16 203
q0 116 -14 217v4q0 10 9.5 18t24.5 8q29 0 33 -22q27 -173 130.5 -272t244.5 -99q119 0 199 63.5t80 170.5q0 74 -32 129t-79 95t-104.5 69.5t-108.5 54.5q-68 31 -135.5 63.5t-120.5 78.5t-86 110.5t-33 161.5q0 166 125 258t344 92q58 0 97.5 -7t89.5 -24q58 -18 77 -18
q25 0 35 20q7 14 31 14q10 0 20.5 -4t10.5 -11v-3q-17 -57 -17 -151q0 -54 6.5 -97t10.5 -102q0 -7 -11 -12.5t-22 -5.5q-25 0 -29 18q-28 125 -62.5 185t-93.5 86t-165 26q-114 0 -184 -58t-70 -153zM601 1640q102 102 203 187q6 6 13 6q13 0 26.5 -12t13.5 -25
q0 -6 -6 -12q-99 -90 -258 -262q-16 -17 -35 -17q-18 0 -33 15q-129 129 -235 217q-7 5 -7 14q0 24 34.5 56t57.5 32q31 0 226 -199z" />
    <glyph glyph-name="scaron" unicode="&#x161;" horiz-adv-x="811" 
d="M692 803l4 -146q0 -7 -10.5 -11t-21.5 -4q-19 0 -23 11q-23 109 -74 167.5t-164 58.5q-75 0 -124.5 -38t-49.5 -102q0 -53 41 -81.5t109 -53.5q223 -77 304 -156.5t81 -193.5q0 -126 -97 -200t-266 -74q-53 0 -118.5 12t-114.5 35l-8 1q-28 0 -35 -36q0 -10 -28 -10
q-25 0 -25 12l4 45l4 53q0 80 -10 146l-7 51q0 9 11 13t21 4q23 0 26 -13q30 -128 98 -185t193 -57q73 0 119.5 41t46.5 115q0 65 -46.5 103t-107.5 67l-119 49q-118 47 -157.5 78t-62 75.5t-22.5 110.5q0 121 95 194.5t252 73.5q106 0 198 -61l8 -2q6 0 16.5 4t18.5 33
q3 11 26 11q13 0 22.5 -4t9.5 -9v-2q-17 -56 -17 -125zM464 1155q101 101 202 186q7 5 15 5q14 0 26.5 -11.5t12.5 -23.5q0 -7 -6 -13q-99 -90 -258 -262q-17 -16 -36 -16q-18 0 -32 14q-140 140 -236 217q-6 5 -6 13q0 23 32.5 56t59.5 33q28 0 226 -198z" />
    <glyph glyph-name="Ydieresis" unicode="&#x178;" horiz-adv-x="1427" 
d="M829 264q0 -86 14 -125t51 -56.5t134 -27.5q12 -2 19.5 -13t7.5 -23q0 -13 -7.5 -23t-21.5 -10q-82 0 -156.5 9t-148.5 9q-78 0 -161 -9t-150 -9q-25 0 -25 33q0 32 25 36q96 9 132.5 26.5t50 53.5t13.5 129v268l-143 263q-214 401 -279 471q-26 28 -62 34.5t-89 14.5
q-10 2 -16.5 12t-6.5 23q0 12 6.5 22t16.5 10q82 0 153.5 -6t141.5 -6q75 0 151 6t148 6q26 0 26 -32q0 -13 -7 -23t-19 -12q-78 -8 -110 -26.5t-32 -53.5q0 -39 39 -113l244 -465q6 -10 18 -10q11 0 17 10q130 213 203 362.5t73 201.5q0 42 -19.5 62t-60.5 25l-57 7
q-22 4 -22 35q0 12 6 22t16 10q76 0 132 -6t114 -6q47 0 97 6t110 6q22 0 22 -32q0 -13 -6 -24t-18 -11q-44 -4 -85 -28.5t-70 -60.5t-109.5 -169.5t-299.5 -503.5v-289zM542 1587q-47 0 -75.5 32t-28.5 77q0 43 31.5 71.5t72.5 28.5t73 -29.5t32 -70.5q0 -45 -29.5 -77
t-75.5 -32zM946 1587q-45 0 -75 32t-30 77q0 43 32 71.5t73 28.5t72.5 -29.5t31.5 -70.5q0 -45 -28.5 -77t-75.5 -32z" />
    <glyph glyph-name="Zcaron" unicode="&#x17d;" horiz-adv-x="1165" 
d="M1055 0h-973q-13 0 -21.5 9t-8.5 20q0 10 7 22q169 304 357 603q187 298 360 591q5 10 5 18q0 19 -19 19h-244q-121 0 -188 -24t-106.5 -78.5t-65.5 -157.5q-4 -18 -37 -18q-35 0 -35 20v4q20 158 20 249l-2 60q0 33 50 33h864q48 0 48 -37q0 -14 -9 -30
q-111 -205 -349 -584q-248 -395 -354 -584q-7 -11 -7 -21q0 -26 30 -26h268q166 0 226.5 24t96.5 83t68 196q4 25 38 25q15 0 26.5 -6.5t11.5 -15.5v-3q-18 -118 -25 -323q0 -38 -6 -53t-26 -15zM670 1640q102 102 203 187q6 6 13 6q13 0 26.5 -12t13.5 -25q0 -6 -6 -12
q-99 -90 -258 -262q-16 -17 -35 -17q-18 0 -33 15q-129 129 -235 217q-7 5 -7 14q0 24 34.5 56t57.5 32q31 0 226 -199z" />
    <glyph glyph-name="zcaron" unicode="&#x17e;" horiz-adv-x="854" 
d="M791 0h-730q-21 0 -21 20q0 12 9 27q77 142 256 398q176 253 216 317t40 72q0 15 -40.5 20.5t-133.5 5.5q-87 0 -131.5 -11.5t-70.5 -40.5t-56 -128q-6 -16 -31 -16q-13 0 -21.5 4.5t-8.5 10.5v3q18 124 18 225q0 17 25 17h661q30 0 30 -21q0 -10 -7 -22
q-116 -196 -251 -388q-135 -189 -239 -372q-11 -17 -11 -28q0 -17 36 -23.5t143 -6.5q112 0 159 14.5t74.5 51t55.5 131.5q4 15 32 15q14 0 23.5 -5.5t9.5 -14.5v-3q-20 -122 -20 -229q0 -23 -16 -23zM492 1155q101 101 202 186q7 5 15 5q14 0 26.5 -11.5t12.5 -23.5
q0 -7 -6 -13q-99 -90 -258 -262q-17 -16 -36 -16q-18 0 -32 14q-140 140 -236 217q-6 5 -6 13q0 23 32.5 56t59.5 33q28 0 226 -198z" />
    <glyph glyph-name="florin" unicode="&#x192;" horiz-adv-x="688" 
d="M102 829q-11 0 -17 13t-6 30q0 33 19 33l189 13v110q2 134 53.5 222.5t133 132.5t192.5 44q95 0 166 -40t71 -97q0 -49 -26.5 -81.5t-73.5 -32.5q-53 0 -80 27.5t-27 62.5q0 24 8.5 40.5t8.5 30.5q0 25 -66 25t-99.5 -44t-46 -120t-12.5 -278h244q10 0 16.5 -14.5
t6.5 -30.5q0 -17 -7.5 -31.5t-19.5 -14.5h-240v-817q0 -86 -12.5 -175t-35.5 -162t-61 -117.5t-100.5 -71.5t-125.5 -27q-111 0 -175.5 34.5t-64.5 100.5q0 46 25.5 78.5t72.5 32.5q54 0 80.5 -26.5t26.5 -59.5q0 -29 -10 -43q-11 -14 -11 -27q0 -8 20.5 -16t45.5 -8
q45 0 71.5 28.5t39 78t12.5 180.5v1017h-185z" />
    <glyph glyph-name="circumflex" unicode="&#x2c6;" horiz-adv-x="612" 
d="M276 1227q-81 -85 -202 -187q-6 -6 -13 -6q-14 0 -27 12t-13 24q0 7 6 13q66 60 130.5 128.5t127.5 134.5q16 16 35 16q18 0 32 -14q137 -137 236 -218q6 -5 6 -13q0 -25 -33 -57t-58 -32q-8 0 -14 4q-60 45 -109.5 93t-103.5 102z" />
    <glyph glyph-name="caron" unicode="&#x2c7;" horiz-adv-x="602" 
d="M334 1155q101 101 202 186q7 5 15 5q14 0 26.5 -11.5t12.5 -23.5q0 -7 -6 -13q-99 -90 -258 -262q-17 -16 -36 -16q-18 0 -32 14q-140 140 -236 217q-6 5 -6 13q0 23 32.5 56t59.5 33q28 0 226 -198z" />
    <glyph glyph-name="ring" unicode="&#x2da;" horiz-adv-x="500" 
d="M252 1487q94 0 160.5 -58.5t66.5 -156.5q0 -105 -66.5 -161t-160.5 -56q-98 0 -165 55t-67 160q0 95 67 156t165 61zM250 1427q-55 0 -86 -42t-31 -113q0 -72 31 -115t86 -43t86 43t31 117q0 72 -31 112.5t-86 40.5z" />
    <glyph glyph-name="tilde" unicode="&#x2dc;" horiz-adv-x="637" 
d="M49 1062q-27 0 -27 16l1 5q16 91 67.5 151t120.5 60q39 0 75 -17t69.5 -37t63.5 -36.5t56 -17.5q59 0 88 98q5 17 21 17q10 0 21 -5t11 -12q0 -49 -21 -101.5t-57.5 -87t-80.5 -34.5q-42 0 -81 18.5t-74.5 40t-68 40t-63.5 18.5q-27 0 -51 -27t-39 -72q-8 -17 -31 -17z
" />
    <glyph glyph-name="uni13A0" unicode="&#x13a0;" horiz-adv-x="1532" 
d="M285 1032q0 114 -19 168.5t-61.5 82.5t-120.5 34q-25 4 -25 35q0 12 6.5 21t18.5 9l126 -4l126 -4l162 4l161 4q219 0 391.5 -87t268.5 -245.5t96 -351.5q0 -338 -186 -524t-516 -186q-90 0 -175 8t-153 8q-50 0 -87.5 -1.5t-197.5 -16.5q-12 0 -20 10t-8 24q0 31 28 35
q109 15 146 53.5t39 135.5v788zM508 385q0 -144 17 -201t59.5 -79.5t169.5 -22.5q188 0 293.5 164.5t105.5 447.5q0 215 -59 341t-185.5 188.5t-330.5 62.5q-38 0 -54 -14.5t-16 -54.5v-832z" />
    <glyph glyph-name="uni13A1" unicode="&#x13a1;" horiz-adv-x="1417" 
d="M279 1032q0 112 -17 169.5t-52.5 82t-131.5 33.5q-25 4 -25 35q0 30 25 30l126 -4l128 -4l358 8q135 0 244 -43.5t170 -124t61 -192.5q0 -263 -319 -334q-6 -4 -6 -12q0 -10 6 -10q83 -9 140.5 -52.5t90.5 -120.5t56 -215q15 -88 36 -127.5t56 -39.5q42 0 68.5 20
t44 44.5t28 44.5t20.5 20q33 0 33 -31q0 -106 -70.5 -172t-181.5 -66q-79 0 -128.5 32t-80.5 89t-64 209q-32 144 -64.5 204t-84.5 93t-135 33q-51 0 -79.5 -20t-28.5 -52v-276q0 -79 19.5 -125t62 -69t143.5 -32q12 -2 19.5 -12t7.5 -22q0 -14 -7.5 -24.5t-21.5 -10.5
q-71 0 -179 8t-153 8q-77 0 -153.5 -8t-147.5 -8q-12 0 -19 11.5t-7 25.5q0 28 26 32q88 9 123.5 27.5t49.5 58t14 121.5v768zM502 788q0 -28 12.5 -43t36.5 -21.5t94 -6.5q161 0 225 66.5t64 230.5q0 148 -71 215t-230 67q-82 0 -106.5 -20t-24.5 -84v-404z" />
    <glyph glyph-name="uni13A2" unicode="&#x13a2;" horiz-adv-x="1327" 
d="M770 266q0 -94 12.5 -129.5t46 -52t140.5 -27.5q12 -2 19 -12t7 -22q0 -14 -7 -24.5t-21 -10.5q-82 0 -156.5 8t-148.5 8q-52 0 -160 -8t-152 -8q-24 0 -24 35q0 30 24 34q109 12 141 30t44 54.5t12 124.5v936q0 39 -25.5 56.5t-90 24.5t-198.5 7q-5 0 -14 -23
q-70 -169 -127 -274q-10 -20 -31 -20q-15 0 -26.5 6t-11.5 16q4 48 4 110v34l-4 192q0 29 15 37t50 8h1151q34 0 47.5 -8t13.5 -37l-6 -188q0 -73 11 -150q0 -11 -13 -17.5t-28 -6.5q-18 0 -29 20l-64 120q-94 181 -96 181q-133 0 -193.5 -7t-86 -24t-25.5 -57v-936z" />
    <glyph glyph-name="uni13A3" unicode="&#x13a3;" horiz-adv-x="1608" 
d="M936 895q-19 -449 -141 -682t-342 -233q-173 0 -272 107.5t-99 309.5q0 137 49 238t139 156t203 55q92 0 157.5 -51t100.5 -143t35 -208h16q60 219 60 637q0 131 -39 178t-162 56q-25 4 -25 37q0 11 6.5 20.5t18.5 9.5l150 -6l157 -6l82 2q187 10 225 10q11 0 17 -9
t6 -21q0 -13 -7 -24t-18 -13q-91 -7 -127 -25t-51.5 -57t-15.5 -141q0 -84 24.5 -121t114.5 -86q175 -98 248.5 -204.5t73.5 -234.5q0 -130 -61.5 -237.5t-170.5 -168t-241 -60.5q-10 0 -15.5 10t-5.5 22q0 29 23 33q126 18 186.5 110t60.5 259q0 113 -41.5 209t-126.5 168
t-192 104zM481 741q-91 0 -139.5 -86t-48.5 -245q0 -171 47 -265t133 -94q51 0 104.5 39t88 98t34.5 109q0 199 -58.5 321.5t-160.5 122.5z" />
    <glyph glyph-name="uni13A4" unicode="&#x13a4;" horiz-adv-x="1909" 
d="M760 -20q-321 0 -493.5 186.5t-172.5 540.5q0 204 86 367t240 253t346 90q176 0 307 -73t203 -204t72 -290q0 -91 -30 -184t-71 -121v-4l31 -4q37 0 111 42.5t139.5 107t102 138t36.5 140.5q0 97 -57 158t-148 61h-14h-4q-9 0 -16 8.5t-7 19.5q0 18 15 23q72 35 143 35
q124 0 201.5 -72t77.5 -186q0 -184 -121.5 -325.5t-392.5 -243.5q-24 -9 -25 -13q-60 -230 -197 -340t-362 -110zM768 66q83 0 151 38.5t120 106t88 164.5t36 153q0 412 -99 607.5t-304 195.5q-125 0 -215.5 -80.5t-139.5 -227t-49 -325.5q0 -309 103 -470.5t309 -161.5z
" />
    <glyph glyph-name="uni13A5" unicode="&#x13a5;" horiz-adv-x="774" 
d="M279 836q0 15 35.5 40.5t91 47.5t79.5 22q17 0 17 -14v-680q0 -77 13 -112t46 -53t139 -30q13 -2 20 -12t7 -22q0 -14 -7.5 -24.5t-21.5 -10.5q-81 0 -155.5 8t-149.5 8q-53 0 -160 -8t-151 -8q-12 0 -18.5 10.5t-6.5 24.5q0 12 6.5 22t18.5 12q109 12 141 30t44 54.5
t12 124.5v570zM240 1382q65 0 124.5 -36.5t97.5 -96.5t38 -116q0 -29 -32 -58t-97.5 -55t-94.5 -26q0 261 -61 354q0 12 7 23t18 11z" />
    <glyph glyph-name="uni13A6" unicode="&#x13a6;" horiz-adv-x="1167" 
d="M125 662q0 12 6.5 27.5t15.5 15.5q46 -7 99 -7q102 0 219 35v6q-125 57 -181.5 136t-56.5 188q0 161 126.5 259.5t328.5 98.5q153 0 251.5 -72t98.5 -175q0 -70 -33 -109t-90 -39q-45 0 -72.5 25.5t-27.5 62.5l4 123q0 56 -32.5 83.5t-102.5 27.5q-107 0 -172.5 -64
t-65.5 -172q0 -57 17 -107.5t48 -90.5t73 -66.5t69 -26.5q131 53 238 53q65 0 118.5 -10.5t53.5 -27.5q0 -11 -5 -23t-12 -12l-42 2h-40q-142 0 -223 -43v-4q159 -76 224 -165.5t65 -203.5q0 -119 -63 -209.5t-183.5 -143t-263.5 -52.5q-105 0 -190.5 33.5t-134 92
t-48.5 128.5q0 74 34.5 114.5t94.5 40.5q46 0 75.5 -26.5t29.5 -65.5l-4 -129q0 -59 26 -87t105 -28q132 0 214.5 86t82.5 221q0 56 -22.5 107.5t-64 96.5t-96.5 77.5t-79 32.5l-56 -16q-122 -39 -207 -39q-81 0 -141 24q-8 3 -8 17z" />
    <glyph glyph-name="uni13A7" unicode="&#x13a7;" horiz-adv-x="1538" 
d="M920 694q0 -101 -49 -194t-149 -174.5t-222 -128.5v-7q13 -10 40 -31t68.5 -42.5t98.5 -37.5t131 -16q174 0 268 149t94 421q0 197 -95.5 361t-264 254.5t-387.5 90.5q-11 0 -18 10t-7 27q0 37 35 37q205 0 393.5 -54.5t318.5 -152.5t199.5 -238.5t69.5 -316.5
q0 -214 -80 -365t-225.5 -228.5t-341.5 -77.5q-202 0 -361 85.5t-250.5 241.5t-91.5 332q0 206 118.5 324t324.5 118q109 0 197.5 -47.5t137 -135.5t48.5 -204zM727 696q0 151 -53 233.5t-152 82.5q-100 0 -154.5 -75t-54.5 -208q0 -171 36.5 -285t103.5 -196
q115 81 166.5 142.5t79.5 136.5t28 169z" />
    <glyph glyph-name="uni13A8" unicode="&#x13a8;" horiz-adv-x="1235" 
d="M279 1069q0 103 -17.5 149.5t-58 68.5t-119.5 28q-25 4 -25 37q0 11 6.5 20.5t18.5 9.5l307 -12q88 0 170.5 6t167.5 6q11 0 17 -9t6 -21q0 -13 -7 -24t-18 -13q-91 -7 -142 -38.5t-75 -93.5t-29 -210l6 -2q31 44 69.5 63t88.5 19q170 0 170 -185q0 -59 -19 -168
q-20 -109 -20 -153q0 -41 17 -66.5t69 -25.5q79 0 125.5 76.5t46.5 201.5q0 84 -30.5 129.5t-88.5 48.5q-16 0 -16 29t16 33l35 2q124 0 190 -63.5t66 -178.5q0 -105 -48.5 -188t-131 -129.5t-174.5 -46.5q-111 0 -169 74t-58 239q0 52 5 124l5 91q0 32 -4.5 53t-30.5 21
q-46 0 -72 -89.5t-26 -226.5v-389q0 -74 18 -114t57.5 -60.5t163.5 -34.5q13 -2 20 -12t7 -22q0 -14 -7.5 -24.5t-21.5 -10.5q-55 0 -176 8q-122 8 -170 8q-53 0 -160 -8t-151 -8q-12 0 -18.5 10.5t-6.5 24.5q0 12 6.5 22t18.5 12q109 12 141 30t44 54.5t12 124.5v803z" />
    <glyph glyph-name="uni13A9" unicode="&#x13a9;" horiz-adv-x="1376" 
d="M279 53q62 0 110 12.5t84 32t63 45.5t44.5 52t17.5 38q0 114 -116 428.5t-210 487.5q-42 78 -64.5 104.5t-51.5 45t-66 24.5q-18 4 -18 31q0 28 20 28l268 -10l263 10q20 0 20 -26q0 -29 -22 -33q-54 -6 -83.5 -30.5t-29.5 -61.5q0 -22 14 -66q131 -355 211 -792l10 -2
q67 99 133 262t115 341.5t49 235.5q0 46 -31 72t-112 39q-20 4 -20 31q0 30 22 30l227 -10l195 10q9 0 14.5 -8.5t5.5 -17.5q0 -29 -22 -33q-57 -8 -85.5 -44t-57.5 -130q-100 -316 -191.5 -520.5t-196.5 -351t-223.5 -222t-242.5 -75.5q-93 0 -154 33t-93 88.5t-32 125.5
q0 80 43 128t107 48q52 0 80 -25t28 -63q0 -37 -31 -187q-6 -29 -6 -48q0 -27 15 -27z" />
    <glyph glyph-name="uni13AA" unicode="&#x13aa;" horiz-adv-x="1513" 
d="M498 483q-30 0 -43.5 -13t-38.5 -77t-68 -192q-10 -28 -10 -47q0 -86 160 -97q14 0 20 -11t6 -23q0 -13 -7 -24t-21 -11q-32 0 -113 8q-82 8 -121 8q-54 0 -103 -8t-106 -8q-12 0 -18 12.5t-6 26.5q0 26 24 30q71 9 103.5 27t58 57t49.5 107q214 605 451 1161q7 14 45 14
q37 0 43 -12q186 -405 436 -1178q26 -76 60.5 -115.5t82.5 -48.5l54 -12q22 -6 22 -37q0 -12 -5.5 -22t-16.5 -10q-42 0 -126 8t-136 8q-85 0 -162 -8t-146 -8q-26 0 -26 37q0 28 26 32q74 9 101.5 27.5t27.5 65.5q0 52 -20 121.5t-64 185.5q-11 26 -32 26h-381zM834 563
q40 0 40 23q0 18 -51.5 179t-117.5 320q-6 9 -17 9q-12 0 -16 -9q-98 -239 -185 -485q-4 -8 -4 -22q0 -15 27 -15h324z" />
    <glyph glyph-name="uni13AB" unicode="&#x13ab;" horiz-adv-x="1096" 
d="M829 551q0 -180 -24.5 -281t-75.5 -163.5t-133.5 -94.5t-202.5 -32q-105 0 -184 37t-122.5 101.5t-43.5 139.5t42 124.5t105 49.5q50 0 79.5 -27t29.5 -75l-5 -89l-5 -94q0 -38 8 -65t33 -27q118 0 173.5 31t78 109t22.5 301v573q0 98 -20.5 144.5t-68 69t-144.5 30.5
q-25 4 -25 37q0 32 25 32l348 -12l79 2q172 10 208 10q22 0 22 -30q0 -14 -6.5 -25.5t-17.5 -13.5q-77 -6 -112 -23.5t-49 -55t-14 -165.5v-518z" />
    <glyph glyph-name="uni13AC" unicode="&#x13ac;" horiz-adv-x="1251" 
d="M1116 1376q27 0 35 -7t8 -23v-7q-4 -31 -4 -108l6 -201q0 -16 -33 -16q-24 0 -32 16q-76 141 -128 200.5t-96 59.5h-196q-99 0 -123 -8.5t-33.5 -30t-9.5 -100.5v-358q0 -43 31 -43q132 0 195 14.5t97 49.5t58 120q6 22 37 22q30 0 30 -22l-2 -58q-10 -130 -10 -169
l4 -85q8 -108 8 -149q0 -20 -32 -20q-30 0 -35 20q-22 87 -54.5 124t-96 52t-199.5 15q-31 0 -31 -37v-269q0 -133 14.5 -181t50 -68.5t109.5 -20.5h188q55 0 118 78.5t134 222.5q12 21 37 21q16 0 27.5 -6t11.5 -17q-7 -56 -15.5 -157.5t-8.5 -178.5v-22q0 -13 -13.5 -21
t-34.5 -8h-739q-77 0 -152 -4.5t-135 -7.5q-14 0 -21 11.5t-7 25.5q0 28 26 32q107 13 147 54.5t40 134.5v788q0 112 -16.5 168.5t-54 81.5t-130.5 33q-12 0 -17.5 10t-5.5 21q0 12 6 23t17 11l254 -6h776z" />
    <glyph glyph-name="uni13AD" unicode="&#x13ad;" horiz-adv-x="2003" 
d="M1069 -18q-35 0 -35 36l12 141q25 300 25 476v61h-10q-50 -127 -100 -246t-113 -214q-172 -256 -381 -256q-173 0 -272 107.5t-99 309.5q0 135 48.5 237t134.5 157t190 55q160 0 247 -116.5t87 -334.5l-2 -41h6q23 13 96.5 167.5t112.5 281.5t39 201q0 136 -16.5 194.5
t-56 84.5t-122.5 32q-24 4 -24 37q0 11 6 20.5t18 9.5l307 -12l82 2q187 10 226 10q22 0 22 -30q0 -13 -6.5 -24t-17.5 -13q-85 -7 -124 -27.5t-55 -65t-16 -153.5v-488l2 -370h8q121 135 195.5 256t138.5 270q14 32 14 64q0 38 -26.5 63t-85.5 27q-23 0 -23 35q0 32 19 32
q64 0 132 -7t113 -7q47 0 98 7q50 7 91 7q26 0 26 -30q0 -13 -7 -24t-21 -13q-63 -5 -115 -48.5t-129 -180.5q-191 -340 -391 -601q-26 -33 -33.5 -39t-15.5 -10t-19.5 -7t-179.5 -23zM504 741q-98 0 -147.5 -87t-49.5 -244q0 -359 180 -359q49 0 102 34.5t89.5 86.5
t36.5 90q0 228 -53 353.5t-158 125.5z" />
    <glyph glyph-name="uni13AE" unicode="&#x13ae;" horiz-adv-x="1147" 
d="M403 1417q203 0 348 -55.5t220.5 -158t75.5 -238.5q0 -172 -100 -274.5t-263 -102.5q-89 0 -186 35l-9 -7q-10 -43 -10 -274q0 -151 45.5 -212t171.5 -73q27 -6 27 -37q0 -12 -7.5 -22t-21.5 -10q-81 0 -160 8t-153 8q-54 0 -161 -8t-150 -8q-25 0 -25 32q0 31 25 37
q86 8 125 35t55 86t16 209q0 166 -17.5 235t-57.5 101.5t-113 32.5q-21 0 -21 32q0 15 5.5 28.5t15.5 14.5q83 5 199 5l155 -2q43 -85 97.5 -122.5t132.5 -37.5q84 0 123.5 72.5t39.5 226.5q0 183 -116 275.5t-334 92.5q-3 0 -8 -15q-63 -189 -185 -189q-50 0 -85.5 32.5
t-35.5 83.5q0 49 42.5 86t126.5 57.5t173 20.5z" />
    <glyph glyph-name="uni13AF" unicode="&#x13af;" horiz-adv-x="1776" 
d="M172 422q45 0 73.5 -27.5t28.5 -64.5l-8 -172q0 -90 35 -90q96 0 156.5 39t97 107t55 175t37.5 354q16 224 68 373.5t166 225t288 75.5q253 0 368.5 -181.5t115.5 -537.5q0 -366 -123 -542t-369 -176q-133 0 -212 65.5t-79 173.5q0 82 43.5 133t106.5 51q45 0 70.5 -22.5
t25.5 -61.5q0 -34 -7 -92t-7 -92q0 -67 31 -67q121 0 175 48.5t77 166.5t30 389h-688q-17 -264 -65.5 -406t-138.5 -214t-232 -72q-81 0 -137.5 38t-88.5 100.5t-32 121.5q0 81 33.5 131.5t105.5 50.5zM1112 1321q-87 0 -151 -30.5t-107.5 -88.5t-73 -155t-49.5 -295h686v18
q0 273 -76 412t-229 139z" />
    <glyph glyph-name="uni13B0" unicode="&#x13b0;" horiz-adv-x="958" 
d="M279 1069q0 103 -17.5 149.5t-58 68.5t-119.5 28q-25 4 -25 37q0 11 6.5 20.5t18.5 9.5l307 -12l82 2q187 10 225 10q11 0 17 -9t6 -21q0 -13 -7 -24t-18 -13q-85 -7 -123.5 -27.5t-54.5 -64.5t-16 -154v-268q0 -43 30 -43q114 0 168 12t83 42.5t57 127.5q6 23 37 23
q30 0 30 -23l-2 -58q-10 -130 -10 -169l4 -85q8 -108 8 -149q0 -20 -33 -20q-29 0 -34 20q-24 97 -52.5 131t-81 48t-174.5 14q-30 0 -30 -37v-369q0 -84 12.5 -122t44.5 -56.5t141 -30.5q13 -2 20 -12t7 -22q0 -14 -7.5 -24.5t-21.5 -10.5q-81 0 -155.5 8t-149.5 8
q-53 0 -160 -8t-151 -8q-12 0 -18.5 10.5t-6.5 24.5q0 12 6.5 22t18.5 12q109 12 141 30t44 54.5t12 124.5v803z" />
    <glyph glyph-name="uni13B1" unicode="&#x13b1;" horiz-adv-x="1063" 
d="M283 1106q0 85 -12.5 121.5t-45.5 54.5t-139 33q-14 2 -21.5 13t-7.5 24q0 32 29 32q72 -3 145.5 -8.5t153.5 -5.5h590q34 0 47.5 -8t13.5 -37l-6 -188q0 -27 4 -81.5t6 -68.5q0 -11 -12.5 -17.5t-28.5 -6.5q-17 0 -28 20q-59 104 -114 215q-43 86 -46 86
q-133 0 -193.5 -7t-86 -24t-25.5 -57v-895q0 -108 15.5 -152.5t53.5 -65.5t125 -28q11 -2 18 -13t7 -24q0 -12 -6 -21t-17 -9l-79 2q-185 10 -228 10l-307 -12q-12 0 -18.5 9.5t-6.5 20.5q0 33 25 37q116 9 155.5 57.5t39.5 188.5v805z" />
    <glyph glyph-name="uni13B2" unicode="&#x13b2;" horiz-adv-x="1866" 
d="M358 84q85 0 147.5 16t111.5 47t110 101q-162 146 -265.5 357t-103.5 405t110.5 300.5t317.5 106.5q124 0 220.5 -55.5t150 -160.5t53.5 -245q0 -145 -70 -305t-222 -344q120 -111 187.5 -157.5t132.5 -70.5t132 -24q102 0 159.5 76.5t57.5 206.5q0 98 -34 193t-93.5 158
t-132.5 77q-27 5 -27 35q0 35 21 35q41 0 174 -12l55 -3q45 0 173 13l55 2q18 0 18 -31q0 -29 -18 -33q-84 -10 -84 -55q0 -21 14.5 -54t31.5 -76t31.5 -94.5t14.5 -107.5q0 -115 -54 -207.5t-153.5 -145t-230.5 -52.5q-153 0 -281.5 44t-275.5 162q-91 -100 -197.5 -153
t-218.5 -53q-90 0 -164 37t-115 101.5t-41 139.5q0 79 39 128.5t105 49.5q52 0 85 -26.5t33 -71.5l-4 -145q0 -47 9 -78t36 -31zM786 1339q-102 0 -153 -69t-51 -199q0 -169 79 -373.5t179 -306.5h6l45 84q68 125 93.5 242.5t25.5 283.5q0 149 -62.5 243.5t-161.5 94.5z" />
    <glyph glyph-name="uni13B3" unicode="&#x13b3;" horiz-adv-x="2060" 
d="M1051 920q-9 0 -13 -9l-297 -921q-3 -10 -17.5 -16.5t-31.5 -6.5q-37 0 -43 21q-231 615 -368 1097q-28 97 -55.5 138.5t-70 63.5t-110.5 28q-22 4 -22 37q0 30 22 30q68 0 149 -7q80 -7 140 -7q63 0 147 7t154 7q22 0 22 -30q0 -13 -6.5 -24t-17.5 -13l-57 -3
q-48 -3 -69.5 -24.5t-21.5 -64.5q0 -104 242 -865q6 -12 23 -12q14 0 20 12q153 422 231 715l1 7v9q-8 58 -34 108.5t-67 82t-92 35.5q-11 2 -17 13t-6 24q0 30 23 30q68 0 152 -7t143 -7q51 0 134 8t140 8q11 0 17 -9t6 -21q0 -13 -7 -24t-18 -13q-86 -6 -133 -35t-47 -72
l12 -63q94 -319 252 -801q6 -16 21 -16q11 0 14 10q92 280 152.5 519.5t60.5 328.5q0 64 -29.5 93.5t-103.5 33.5q-27 0 -27 33q0 12 7.5 23t19.5 11q66 0 120.5 -7t112.5 -7q44 0 99 7q54 7 104 7q11 0 18 -11t7 -23q0 -33 -29 -33q-49 -3 -81.5 -28.5t-55.5 -66
t-40.5 -93.5t-35.5 -111l-326 -1028q-3 -11 -17.5 -17t-31.5 -6q-18 0 -33 6t-18 17q-86 229 -156.5 460t-146.5 463q-3 9 -14 9z" />
    <glyph glyph-name="uni13B4" unicode="&#x13b4;" horiz-adv-x="1249" 
d="M621 -20q-156 0 -277.5 58.5t-187.5 165t-66 240.5q0 121 60 222t174 168.5t276 89.5q-85 107 -107 156t-22 94q0 71 42 126t117.5 86t164.5 31q149 0 231 -54t82 -151q0 -58 -30.5 -90t-84.5 -32q-44 0 -72 45t-28 106l4 86q0 16 -8 16q-124 0 -172.5 -24t-48.5 -90
q0 -47 36.5 -110.5t177.5 -251.5q109 -146 161.5 -261t52.5 -213q0 -187 -132 -300t-343 -113zM649 862q-168 -29 -249 -123.5t-81 -263.5q0 -180 86 -299t222 -119q120 0 189 77.5t69 211.5q0 51 -22 121t-64 156t-91 162.5t-59 76.5z" />
    <glyph glyph-name="uni13B5" unicode="&#x13b5;" horiz-adv-x="1278" 
d="M500 283q0 -79 20 -125t64.5 -69t150.5 -32q27 -4 27 -34q0 -35 -29 -35q-65 0 -267 14l-75 2q-77 0 -153.5 -8t-147.5 -8q-12 0 -19.5 11.5t-7.5 25.5q0 28 27 32q87 9 123 27.5t49.5 56.5t13.5 123v559q0 276 116 417.5t362 141.5q135 0 238.5 -45t160.5 -130t57 -206
q0 -168 -104 -270t-283 -102q-60 0 -106.5 43t-46.5 104q0 46 27 76.5t69 30.5q45 0 70.5 -45t29.5 -124l2 -14q54 0 84.5 71.5t30.5 213.5q0 153 -58 234t-171 81q-128 0 -191 -100.5t-63 -329.5v-587z" />
    <glyph glyph-name="uni13B6" unicode="&#x13b6;" horiz-adv-x="1507" 
d="M791 1327q-133 0 -231 -79t-151 -218.5t-53 -306.5q0 -305 119.5 -481t335.5 -176q114 0 213 39t156 108t57 152q0 68 -47 110.5t-117 42.5q-139 0 -158 -211q-4 -26 -30 -26q-11 0 -21 6t-10 18l5 148l5 137q0 88 -3 133.5t-9 97.5v3q0 9 10 15.5t23 6.5q29 0 33 -23
q8 -59 20.5 -74.5t40 -24t129.5 -19.5q305 -33 305 -271q0 -121 -80 -227.5t-222 -169t-318 -62.5q-339 0 -519 191t-180 545q0 212 87 372.5t248 247t368 86.5q162 0 344 -90q46 -24 71 -24q30 0 41 36q5 17 31 17q12 0 21.5 -5t9.5 -14q-15 -62 -15 -137q0 -63 17 -233
q0 -12 -12.5 -20.5t-28.5 -8.5q-27 0 -31 20q-26 174 -146.5 271.5t-307.5 97.5z" />
    <glyph glyph-name="uni13B7" unicode="&#x13b7;" horiz-adv-x="1862" 
d="M311 1382h158q25 0 35 -22l426 -998h12l416 996q11 24 37 24h153q13 0 22 -8.5t9 -23.5l41 -1084q3 -85 19 -122.5t55 -57t125 -29.5q12 -2 19 -12t7 -22q0 -14 -7 -24.5t-21 -10.5q-82 0 -156.5 8t-149.5 8q-53 0 -160 -8t-151 -8q-24 0 -24 35q0 30 24 34
q103 11 137 26.5t48 45.5t14 90l-43 807q0 12 -17 12q-14 0 -20 -12l-295 -694q-43 -99 -119 -328q-4 -12 -28 -12q-27 0 -33 12l-451 1032q-7 13 -18 13q-13 0 -13 -15l-40 -792q0 -64 14.5 -99t45 -53t130.5 -31q20 -4 20 -36q0 -31 -22 -31q-45 0 -99 8t-128 8
q-78 0 -138 -8t-102 -8q-11 0 -17 11t-6 24q0 28 23 32q99 11 127 29t41 57t18 131l52 1076q0 14 10.5 22t19.5 8z" />
    <glyph glyph-name="uni13B8" unicode="&#x13b8;" horiz-adv-x="1079" 
d="M254 721q-35 0 -67.5 -38.5t-43.5 -94.5q-4 -17 -34 -17q-13 0 -22 4.5t-9 10.5l6 164l-6 168q0 11 11.5 16.5t25.5 5.5q30 0 30 -18q0 -88 6 -132.5t29 -44.5q10 0 17 11q106 118 165 118q33 0 37 -30q15 -189 113 -189q46 0 76 82.5t30 198.5q0 215 -84 311t-253 96
q-19 0 -19 -53l8 -78q0 -37 -27 -65.5t-75 -28.5t-80.5 34t-32.5 77q0 87 82 137.5t221 50.5q225 0 343 -129.5t118 -382.5v-592q0 -110 16.5 -154t57 -64t121.5 -25q11 -2 17.5 -13.5t6.5 -25.5q0 -31 -22 -31l-79 2q-185 10 -228 10l-367 -12q-14 0 -21.5 10t-7.5 23
q0 33 29 37q139 8 196.5 62t57.5 181l4 152q6 166 10 184l-6 4q-50 -75 -121 -75q-145 0 -221 133z" />
    <glyph glyph-name="uni13B9" unicode="&#x13b9;" horiz-adv-x="1636" 
d="M47 588q-10 0 -22.5 11.5t-12.5 23.5l4 10q84 95 177 138.5t241 43.5h35q41 25 109 57t124 52q43 15 61.5 46.5t18.5 98.5q0 104 -16 150t-55.5 67.5t-128.5 28.5q-25 4 -25 37q0 11 6 20.5t19 9.5l307 -12l82 2q187 10 225 10q11 0 17 -9t6 -21q0 -13 -7 -24t-18 -13
q-101 -8 -135 -28t-47 -66.5t-13 -155.5q0 -76 24.5 -148.5t68 -115.5t100.5 -43q41 0 111 83q69 83 129 83q73 0 124.5 -89.5t67.5 -228.5q0 -31 -31 -31q-8 0 -17.5 5t-12.5 14q-20 75 -57.5 109t-96.5 34q-22 0 -46 -20t-64 -72q-71 -92 -136 -92q-37 0 -67.5 25.5
t-56 63.5t-46 83t-37.5 83t-30.5 63.5t-24.5 25.5q-141 0 -280 -139q139 -62 214.5 -171.5t75.5 -244.5q0 -165 -95 -263.5t-251 -98.5q-159 0 -252.5 95.5t-93.5 264.5q0 120 35.5 210.5t107.5 170.5l-24 2q-71 0 -135.5 -27.5t-147.5 -103.5zM760 340q0 259 -213 346
q-65 -63 -99 -151.5t-34 -188.5q0 -297 164 -297q83 0 132.5 74.5t49.5 216.5z" />
    <glyph glyph-name="uni13BA" unicode="&#x13ba;" horiz-adv-x="1810" 
d="M1020 592q69 152 148 404.5t79 322.5l-2 67q0 11 21 19t57 8q52 0 106 -18.5t54 -44.5l-2 -101q-13 -298 -13 -463q0 -389 38.5 -544.5t117.5 -155.5q30 0 48 19t36 69q6 16 29 16q14 0 25.5 -6.5t11.5 -15.5q0 -97 -58.5 -151t-163.5 -54q-144 0 -215 129t-71 410
q0 100 5 191q3 62 7 245l-2 106h-8q-134 -513 -318.5 -788.5t-402.5 -275.5q-217 0 -335 191.5t-118 535.5q0 207 63.5 370t179 251.5t261.5 88.5q123 0 218.5 -70t148.5 -201.5t53 -307.5q0 -85 -23 -246h25zM567 66q73 0 139.5 53t108 141t41.5 168q0 449 -65.5 676
t-194.5 227q-113 0 -176.5 -174.5t-63.5 -458.5q0 -301 53 -466.5t158 -165.5z" />
    <glyph glyph-name="uni13BB" unicode="&#x13bb;" horiz-adv-x="1683" 
d="M1133 750q24 0 35.5 8t11.5 33v278q0 103 -17.5 149.5t-58 68.5t-119.5 28q-24 4 -24 37q0 11 6 20.5t18 9.5l307 -12l82 2q187 10 225 10q11 0 17 -9t6 -21q0 -13 -7 -24t-18 -13q-85 -7 -123.5 -27.5t-54.5 -64.5t-16 -154v-803q0 -85 13 -123.5t46 -57t140 -30.5
q12 -2 19 -12t7 -23q0 -12 -7.5 -22t-21.5 -10q-81 0 -155.5 8t-149.5 8q-53 0 -160 -8t-151 -8q-12 0 -18.5 10t-6.5 22q0 31 25 35q105 12 138 29.5t46 53t13 128.5v340q0 28 -10.5 40.5t-34.5 12.5h-590q-23 0 -34 -9t-11 -32v-352q0 -85 13 -123.5t46 -57t139 -30.5
q27 -4 27 -35q0 -12 -7.5 -22t-21.5 -10q-81 0 -156 8t-149 8q-53 0 -160 -8t-151 -8q-25 0 -25 32q0 31 25 35q104 12 137 29t46 53t13 129v803q0 106 -17.5 151t-58 67t-118.5 28q-25 4 -25 37q0 11 6.5 20.5t18.5 9.5l307 -12l82 2q187 10 225 10q11 0 17 -9t6 -21
q0 -13 -7 -24t-18 -13q-85 -7 -123.5 -27.5t-54.5 -64.5t-16 -154v-278q0 -23 11 -32t34 -9h588z" />
    <glyph glyph-name="uni13BC" unicode="&#x13bc;" horiz-adv-x="1278" 
d="M459 1061q0 137 -41 191.5t-160 62.5q-25 4 -25 37q0 11 6.5 20.5t18.5 9.5l307 -12l82 2q187 10 225 10q11 0 17 -9t6 -21q0 -13 -7 -24t-18 -13q-103 -8 -147.5 -59t-44.5 -166v-111q0 -66 43 -70q232 -23 353.5 -141.5t121.5 -308.5q0 -143 -69 -249.5t-206 -168
t-305 -61.5q-153 0 -240 56t-87 159q0 57 34.5 94t90.5 37q49 0 82.5 -30t33.5 -71q0 -40 -7 -76.5t-7 -62.5q0 -39 27 -39q205 0 313.5 98.5t108.5 288.5q0 175 -88.5 285t-227.5 110q-58 0 -104 -22.5t-99 -76.5q-51 -52 -103 -75.5t-118 -23.5q-94 0 -151.5 45t-57.5 112
q0 60 31.5 98t83.5 38q36 0 64 -21.5t28 -50.5l-4 -65l-4 -56q0 -22 8 -22q56 0 100 23t74 52t46 54t16 30v193z" />
    <glyph glyph-name="uni13BD" unicode="&#x13bd;" horiz-adv-x="1564" 
d="M1048 575q12 0 18 11q45 75 91 195.5t84 260.5t38 175q0 46 -39.5 70.5t-117.5 33.5q-19 4 -19 31q0 30 19 30l233 -10q45 0 95.5 5t95.5 5q9 0 14.5 -8.5t5.5 -17.5q0 -29 -22 -33q-56 -8 -85 -43t-59 -131q-65 -218 -146.5 -414t-180.5 -367t-166 -241.5t-147.5 -108.5
t-188.5 -38q-150 0 -235.5 80t-125.5 239q-28 108 -49 140.5t-53.5 49t-88.5 21.5q-19 2 -19 33q0 11 6 19.5t17 8.5q75 0 210 -10l56 -2l138 6l148 6q22 0 22 -28q0 -31 -26 -33q-91 -4 -133.5 -33t-42.5 -90q0 -137 58.5 -221t141.5 -84q85 0 153 40t119.5 125.5
t51.5 125.5q0 16 -6 22q-51 51 -102.5 145t-113.5 244q-79 189 -149 299.5t-158 169t-195 64.5q-17 0 -17 29q0 14 8 24t17 10q133 0 255 -5.5t131 -12.5q127 -101 248 -402q91 -227 138 -306t73 -79z" />
    <glyph glyph-name="uni13BE" unicode="&#x13be;" horiz-adv-x="1511" 
d="M756 -20q-299 0 -457 188t-158 539q0 204 79 366.5t221 253t321 90.5q176 0 315.5 -88t216 -249.5t76.5 -366.5q0 -219 -77 -385.5t-218 -257t-319 -90.5zM764 66q98 0 174.5 78.5t120.5 218t49 311.5h-705q5 -309 97.5 -458.5t263.5 -149.5zM756 1331q-154 0 -247 -156
t-103 -407h700q-13 274 -104 418.5t-246 144.5z" />
    <glyph glyph-name="uni13BF" unicode="&#x13bf;" horiz-adv-x="1200" 
d="M868 156h-10q-33 -82 -115 -133.5t-176 -51.5q-301 0 -301 394l4 573q0 28 -5.5 39.5t-31.5 11.5q-44 0 -116 -10l-17 -2q-13 0 -23.5 25.5t-10.5 56.5q0 15 4.5 28t13.5 13q61 4 154 4q30 0 30 49v203q0 15 71 34t116 19q37 0 37 -12v-254q0 -20 7.5 -27.5t24.5 -7.5
l127 5l94 5q19 0 19 -26q0 -28 -14.5 -57t-28.5 -31q-6 0 -53 -2.5t-146 -2.5q-19 0 -28 -10t-9 -43v-416q0 -177 15 -263t50.5 -125.5t100.5 -39.5q48 0 88 27t67.5 80t27.5 88q0 117 -10.5 161.5t-36.5 66.5t-76 28q-25 4 -25 39q0 12 7 22.5t20 10.5q55 0 99.5 -7.5
t88.5 -7.5q40 0 108 9q68 8 93 8q14 0 21 -12.5t7 -26.5q0 -35 -24 -39q-47 -6 -70 -23.5t-32 -54t-9 -143.5l2 -342q0 -10 -17.5 -15.5t-39.5 -5.5q-40 0 -43 8z" />
    <glyph glyph-name="uni13C0" unicode="&#x13c0;" horiz-adv-x="1528" 
d="M1346 324q0 -219 14 -318q0 -26 -51 -26q-16 0 -31 16.5t-45 69.5l-39 69h-4q-107 -155 -399 -155q-334 0 -515.5 186.5t-181.5 527.5q0 217 90.5 381t257.5 253t381 89q158 0 324 -82l72 -36h4q5 40 18 74t36 70t44 36q31 0 31 -19q-9 -34 -24 -127t-15 -129
q0 -57 8 -114t16 -119q0 -10 -11.5 -15.5t-25.5 -5.5q-28 0 -34 19q-100 358 -455 358q-140 0 -242 -72.5t-157.5 -211.5t-55.5 -316q0 -307 120 -484t335 -177q192 0 273 62.5t81 195.5q0 79 -11.5 112.5t-42 49t-146.5 26.5q-14 2 -20.5 13t-6.5 22t6 22t17 11
q51 0 147 -6q96 -7 137 -7q37 0 99 7q61 6 120 6q10 0 15.5 -10t5.5 -21t-6 -23t-19 -14q-61 -5 -87.5 -46t-26.5 -142z" />
    <glyph glyph-name="uni13C1" unicode="&#x13c1;" horiz-adv-x="1671" 
d="M170 422q46 0 75 -26.5t29 -63.5q0 -43 -4 -101l-4 -67q0 -96 37 -96q75 0 123.5 47.5t77.5 137.5t50 290l21 200q23 229 75 377t153 222.5t246 74.5q132 0 207.5 -42.5t116 -131.5t40.5 -233v-752q0 -85 11 -120.5t39.5 -52.5t138.5 -30q12 -2 19 -12t7 -23
q0 -12 -7.5 -22t-21.5 -10q-55 0 -151 8t-143 8q-53 0 -171 -8q-119 -8 -163 -8q-25 0 -25 32q0 31 25 35q67 8 110 16t67 28t33 57t9 102v717q0 180 -43 263t-141 83q-119 0 -195.5 -75.5t-113 -223.5t-56.5 -371q-21 -236 -57.5 -381.5t-111.5 -217.5t-189 -72
q-78 0 -133.5 37t-86 98t-30.5 127q0 87 37 133.5t100 46.5z" />
    <glyph glyph-name="uni13C2" unicode="&#x13c2;" horiz-adv-x="1389" 
d="M242 1069q0 103 -15 148t-51 67.5t-108 30.5q-25 4 -25 37q0 30 25 30q66 0 139 -6t147 -6l82 2q187 10 226 10q22 0 22 -30q0 -13 -7 -24t-18 -13q-85 -7 -123.5 -27.5t-54.5 -64.5t-16 -154v-262h8q61 49 146.5 83t164.5 34q187 0 287 -100.5t100 -286.5v-273
q0 -79 10 -117.5t35 -57.5t107 -32q12 -2 18.5 -12t6.5 -22q0 -13 -6.5 -23t-18.5 -10l-125 7q-73 7 -125 7q-46 0 -149 -8q-67 -6 -129 -6q-13 0 -20 10.5t-7 24.5q0 30 27 34q86 13 110 32t33.5 58t9.5 113v215q0 166 -50 243t-165 77q-168 0 -268 -88v-443
q0 -82 12 -120.5t42 -57t124 -29.5q12 -2 19.5 -12t7.5 -22q0 -14 -7.5 -24.5t-21.5 -10.5q-55 0 -146 8t-139 8q-77 0 -149.5 -8t-140.5 -8q-25 0 -25 35q0 30 25 34q105 14 130.5 30t35.5 50t10 127v803z" />
    <glyph glyph-name="uni13C3" unicode="&#x13c3;" horiz-adv-x="1176" 
d="M770 1284h-190q-147 0 -223 -23t-121 -77t-72 -160q-4 -18 -37 -18q-35 0 -35 24q21 165 21 234v147q0 43 47 43q23 0 32 -7t9 -13q0 -62 26 -62h867q23 0 33 -14t10 -31q0 -37 -41 -43q-95 -12 -119 -65l-569 -1131h264q151 0 215 21.5t102 78t74 203.5q6 25 39 25
q37 0 37 -25q-13 -78 -36.5 -252t-31.5 -248q-2 -11 -16 -17.5t-31 -6.5q-33 0 -33 33v18q0 49 -13 65.5t-40 16.5h-848q-31 0 -31 37q0 42 29 45q31 4 52 14t36 26t39 62z" />
    <glyph glyph-name="uni13C4" unicode="&#x13c4;" horiz-adv-x="1278" 
d="M979 264q0 -55 2.5 -92.5t18.5 -61.5t50.5 -36t98.5 -17q11 -2 18 -13.5t7 -25.5q0 -12 -6 -21t-17 -9q-65 0 -133 7t-135 7q-66 0 -167 -7q-102 -7 -159 -7q-12 0 -18.5 10t-6.5 22q0 13 6.5 24t18.5 13q100 7 147 45.5t68 122t21 252.5q-54 -74 -129.5 -113.5
t-159.5 -39.5q-138 0 -226.5 75t-111.5 201q-15 80 -36 103.5t-79 29.5q-24 4 -24 31q0 12 6 21.5t18 9.5q49 0 103 -5q53 -6 120 -6q62 0 104 6q42 5 85 5q14 0 21.5 -9t7.5 -20t-7.5 -20t-19.5 -11q-58 -5 -79 -15t-29.5 -31.5t-8.5 -65.5q0 -85 58.5 -146t140.5 -61
q75 0 133.5 54.5t90.5 157.5t32 246q0 204 -73.5 336.5t-194.5 132.5q-92 0 -144.5 -43t-52.5 -116q0 -76 27.5 -107t87.5 -37q28 -5 28 -28q0 -31 -28 -31l-65 4q-74 8 -120 8q-48 0 -173 -10l-54 -2q-23 0 -23 31q0 25 21 28q51 5 81.5 31.5t35.5 71.5q10 85 62.5 146
t136 94.5t184.5 33.5q142 0 250.5 -61t169.5 -184t61 -271q0 -123 -20 -332q-21 -210 -21 -305z" />
    <glyph glyph-name="uni13C5" unicode="&#x13c5;" horiz-adv-x="1769" 
d="M1397 369q-113 0 -170.5 91t-57.5 298q0 75 6 152l5 114q0 40 -4.5 65t-30.5 25q-38 0 -59 -47t-30 -128.5t-9 -285.5q0 -188 -58.5 -343t-164 -242.5t-242.5 -87.5q-141 0 -249 85.5t-168.5 248t-60.5 358.5q0 218 60 387t173 262.5t265 93.5q98 0 181.5 -50t138 -138
t69.5 -195h6q13 77 61 120.5t122 43.5q90 0 135 -55.5t45 -173.5q0 -73 -19 -208q-20 -135 -20 -190q0 -63 20.5 -88.5t65.5 -25.5q78 0 130 79.5t52 188.5q0 51 -14.5 93.5t-39.5 65t-53 29.5q-14 4 -19 11t-5 22q0 12 7.5 20.5t21.5 8.5q27 0 79 -9.5t93.5 -36t66.5 -73
t25 -121.5q0 -105 -48 -187.5t-131.5 -129.5t-174.5 -47zM582 66q138 0 216.5 166t78.5 464q0 275 -74 452t-203 177q-115 0 -180.5 -173.5t-65.5 -479.5q0 -265 62.5 -435.5t165.5 -170.5z" />
    <glyph glyph-name="uni13C6" unicode="&#x13c6;" horiz-adv-x="1483" 
d="M188 0q-21 0 -34 8t-13 21v22q0 102 -24 336q0 11 11.5 17t27.5 6q25 0 37 -21q149 -301 251 -301h17q76 0 111 14.5t49 50.5t14 134v870q0 60 -7.5 85.5t-27 36.5t-78.5 11h-96q-41 0 -94 -69t-129 -213q-8 -17 -33 -17q-12 0 -22.5 4.5t-10.5 12.5l6 223q0 77 -4 108
l-1 9q0 14 8.5 21t35.5 7h1131q27 0 35 -7t8 -23v-7q-4 -31 -4 -108l6 -223q0 -8 -10.5 -12.5t-22.5 -4.5q-25 0 -33 17q-77 144 -129.5 213t-93.5 69h-96q-60 0 -79.5 -11.5t-26.5 -38.5t-7 -83v-870q0 -96 13.5 -132.5t48 -51.5t112.5 -15h17q53 0 114.5 76t137.5 225
q12 21 36 21q16 0 27.5 -6t11.5 -17q-7 -56 -15.5 -157.5t-8.5 -178.5v-22q0 -14 -13.5 -21.5t-33.5 -7.5h-1119z" />
    <glyph glyph-name="uni13C7" unicode="&#x13c7;" horiz-adv-x="2042" 
d="M1356 -20q-321 0 -375 345h-6q-49 -169 -162 -257t-307 -88q-126 0 -221.5 53t-147 153.5t-51.5 242.5q0 148 61.5 261t179.5 181.5t248 68.5q11 0 19 -8.5t8 -22.5q0 -20 -14 -26q-131 -38 -201 -148t-70 -270q0 -184 64 -277.5t181 -93.5q80 0 145.5 28.5t117 81
t86 127t34.5 121.5l-2 19l-4 47q0 123 105 123q42 0 66 -29.5t24 -80.5q0 -34 -12 -62.5t-70 -106.5q22 -106 60 -166.5t90.5 -89t156.5 -28.5q115 0 180 50.5t94.5 160.5t29.5 305q0 381 -149 554t-467 173q-83 0 -129 -13.5t-46 -33.5q0 -48 6.5 -86t6.5 -72
q0 -40 -34.5 -67t-82.5 -27q-54 0 -86.5 34.5t-32.5 94.5q0 68 58.5 130.5t160 99t230.5 36.5q200 0 355.5 -53t255.5 -148.5t155 -239.5t55 -339q0 -200 -71 -351.5t-197 -228.5t-295 -77z" />
    <glyph glyph-name="uni13C8" unicode="&#x13c8;" horiz-adv-x="1667" 
d="M700 1208q-65 61 -128 89t-142 28q-117 0 -183.5 -78.5t-66.5 -224.5q0 -134 53 -184q0 -15 -8 -26.5t-20 -11.5l-6 1q-71 18 -117.5 80.5t-46.5 146.5q0 116 54.5 204.5t153.5 136.5t222 48q112 0 198 -27.5t160 -82.5q128 110 338 110q135 0 244 -51t168 -141.5
t59 -206.5q0 -150 -87 -247.5t-226 -106.5q-9 0 -15 7.5t-6 18.5q0 13 13 19q159 75 159 307q0 93 -39 168.5t-111 117t-171 41.5q-72 0 -140 -26.5t-116 -71.5q186 -191 263 -365t77 -366q0 -251 -112.5 -395t-311.5 -144q-195 0 -302.5 131.5t-107.5 366.5
q0 190 78.5 382.5t222.5 352.5zM815 53q98 0 151.5 90t53.5 252q0 221 -56 391.5t-194 335.5q-91 -111 -144 -282t-53 -344q0 -209 62.5 -326t179.5 -117z" />
    <glyph glyph-name="uni13C9" unicode="&#x13c9;" horiz-adv-x="1946" 
d="M438 985l-8 -2q-2 -162 -70.5 -258t-192.5 -96q-69 0 -118 41t-49 118q0 59 31.5 89t72.5 30q86 0 86 -82q0 -30 -8 -58t-8 -34t8 -6q191 0 191 328q0 113 -50.5 180.5t-144.5 77.5q-24 4 -24 35q0 30 24 30l189 -6l118 6q16 0 20.5 -5t10.5 -19q73 -235 186 -535
t205 -520q4 -10 15 -10q12 0 16 10q125 318 183.5 496t64.5 274q-59 13 -102.5 72t-43.5 119q0 63 35 101t90 38q44 0 71.5 -24.5t27.5 -67.5q0 -47 -8.5 -87.5t-8.5 -66.5q0 -37 8 -37q53 0 105.5 35t117.5 111q66 75 123.5 110t120.5 35q102 0 163 -59.5t61 -157.5
q0 -121 -77 -195.5t-208 -74.5q-63 0 -111.5 27t-77 72t-28.5 87q-20 -22 -57 -35.5t-61 -13.5h-5q-44 -89 -201 -499.5t-211 -571.5q-6 -21 -47 -21q-40 0 -49 23q-95 222 -210 535.5t-165 461.5zM1690 1303q-40 0 -80.5 -32t-40.5 -54q0 -232 121 -232q49 0 82.5 46.5
t33.5 117.5q0 69 -32 111.5t-84 42.5z" />
    <glyph glyph-name="uni13CA" unicode="&#x13ca;" horiz-adv-x="1935" 
d="M1159 943q93 0 146.5 -50.5t53.5 -142.5q0 -73 -30 -114t-80 -41q-42 0 -67.5 21t-25.5 63q0 48 21 140l4 34q0 24 -9 24q-213 0 -213 -357q0 -458 312 -458q150 0 236.5 147.5t86.5 399.5q0 512 -330 696q-14 8 -22.5 15.5t-8.5 21.5q0 15 8.5 29.5t23.5 14.5
q280 -84 426.5 -282.5t146.5 -494.5q0 -189 -69.5 -332t-200.5 -220t-302 -77q-125 0 -221.5 51t-156.5 146h-9q-65 -107 -152 -152t-200 -45q-125 0 -220.5 52.5t-147.5 152t-52 241.5q0 144 61.5 257t184.5 182.5t254 69.5q10 0 15 -10.5t5 -22.5q0 -20 -15 -24
q-132 -38 -202.5 -148t-70.5 -278q0 -172 55.5 -265t158.5 -93q86 0 163 42.5t131 118.5q-48 127 -48 255q0 138 44 234.5t125 147.5t191 51z" />
    <glyph glyph-name="uni13CB" unicode="&#x13cb;" horiz-adv-x="1137" 
d="M350 1094q0 -260 277 -260l254 4q12 0 19 -17t7 -37q0 -17 -6 -31t-18 -14q-200 0 -287 -20t-138 -61.5t-78.5 -109.5t-27.5 -167q0 -90 40 -156.5t112.5 -101.5t161.5 -35q137 0 236 72.5t99 185.5q0 8 -18.5 9.5t-45.5 1.5q-104 0 -144.5 23.5t-40.5 70.5
q0 43 33.5 73.5t86.5 30.5q102 0 163 -60.5t61 -154.5q0 -106 -66 -190t-181 -130.5t-249 -46.5q-141 0 -251.5 46t-172 133.5t-61.5 207.5q0 137 95.5 239t264.5 151v10q-169 25 -252.5 104t-83.5 219q0 159 126.5 246.5t357.5 87.5q86 0 171.5 -21t141 -54t55.5 -60
q0 -24 -19.5 -40.5t-49.5 -16.5q-9 0 -29.5 14.5t-55.5 31.5t-88 31.5t-128 14.5q-139 0 -205 -52.5t-66 -170.5z" />
    <glyph glyph-name="uni13CC" unicode="&#x13cc;" horiz-adv-x="1632" 
d="M1382 547q0 -291 -134 -429t-412 -138q-287 0 -422 125t-135 397v567q0 103 -17.5 149.5t-58 68.5t-119.5 28q-25 4 -25 37q0 11 6.5 20.5t18.5 9.5q57 0 150 -7t157 -7q71 0 155 7t152 7q11 0 17 -9t6 -21q0 -13 -7 -24t-18 -13q-85 -7 -123.5 -27.5t-54.5 -64.5
t-16 -154v-244q0 -9 1.5 -14.5t12.5 -5.5h754q8 0 9 4t1 10v66q0 173 -9.5 243t-27.5 107t-50.5 55t-84.5 25q-9 2 -15 13t-6 24q0 12 7 21t18 9q50 0 103 -7t110 -7q43 0 108 7q64 7 117 7q25 0 25 -32q0 -31 -25 -35q-68 -8 -104 -40t-50 -113.5t-14 -280.5v-334zM877 111
q210 0 306.5 113t96.5 333v154q0 12 -12 12h-750q-16 0 -16 -16v-168q0 -222 89 -325t286 -103z" />
    <glyph glyph-name="uni13CD" unicode="&#x13cd;" horiz-adv-x="2220" 
d="M1335 553q0 -160 16 -240t45.5 -130t74.5 -77.5t112 -27.5q154 0 219.5 111t65.5 370q0 394 -182.5 578t-573.5 184q-100 0 -155.5 -12.5t-55.5 -34.5q0 -47 6 -85.5t6 -72.5q0 -41 -34.5 -67.5t-81.5 -26.5q-54 0 -86.5 34.5t-32.5 94.5q0 65 69.5 128t188 100.5
t260.5 37.5q294 0 506.5 -95t317 -270.5t104.5 -422.5q0 -183 -75.5 -335.5t-207.5 -233t-305 -80.5q-202 0 -309 96.5t-107 288.5v43l2 43l-8 4q-32 -34 -78.5 -52t-97.5 -18q-44 0 -82 10q-1 -127 -51.5 -221t-138 -144t-191.5 -50q-196 0 -294.5 109t-98.5 312
q0 131 48 229.5t145 154t217 55.5q134 0 222.5 -72t125.5 -215q9 -41 48.5 -68.5t92.5 -27.5q62 0 96.5 38.5t34.5 104.5q0 157 -14 202.5t-48 65t-112 25.5q-25 4 -25 37q0 11 6.5 21t18.5 10q66 0 139 -6.5t148 -6.5q60 0 145 7q84 6 141 6q11 0 17 -9.5t6 -21.5
q0 -13 -7 -24t-18 -13q-65 -5 -96.5 -17t-47 -36.5t-23 -73t-7.5 -213.5zM508 772q-99 0 -152 -94t-53 -262q0 -173 49 -268t142 -95q98 0 157.5 93t59.5 255q0 186 -52 278.5t-151 92.5z" />
    <glyph glyph-name="uni13CE" unicode="&#x13ce;" horiz-adv-x="1194" 
d="M823 1409q29 0 29 -16v-811q0 -25 4 -33t18 -8q70 0 108.5 9.5t57 29t29.5 82.5q4 20 37 20q31 0 31 -20q0 -45 -6.5 -99.5t-6.5 -103.5q0 -44 6.5 -85.5t6.5 -92.5q0 -10 -9.5 -15.5t-21.5 -5.5t-23.5 6t-13.5 19q-10 55 -27 74.5t-52.5 27.5t-115.5 8q-11 0 -16.5 -17
t-5.5 -77q0 -104 16 -150t54.5 -67.5t124.5 -28.5q11 -2 17.5 -13t6.5 -24q0 -30 -22 -30l-79 2q-185 10 -229 10l-307 -12q-12 0 -18 9.5t-6 20.5q0 33 24 37q73 5 113.5 24.5t59.5 59t22 125.5v55q0 48 -11 62t-32 14h-494q-18 0 -33.5 24.5t-15.5 49.5q0 21 10 31
l735 897q14 12 35 12zM604 541q19 0 22 4t3 28v484l-426 -516h401z" />
    <glyph glyph-name="uni13CF" unicode="&#x13cf;" horiz-adv-x="1354" 
d="M279 1069q0 103 -17.5 149.5t-58 68.5t-119.5 28q-25 4 -25 37q0 11 6.5 20.5t18.5 9.5l307 -12l82 2q187 10 225 10q11 0 17 -9t6 -21q0 -13 -7 -24t-18 -13q-84 -7 -122.5 -27t-54 -63.5t-15.5 -155.5v-156q0 -21 11.5 -26.5t31.5 -5.5q217 0 349.5 -29t215 -84.5
t126.5 -141.5t44 -202q0 -214 -154 -325t-462 -111q-70 0 -139 8t-134 8q-53 0 -160 -8t-151 -8q-12 0 -18.5 10.5t-6.5 24.5q0 12 6.5 22t18.5 12q109 12 141 30t44 54.5t12 124.5v803zM504 229q0 -92 33.5 -130t121.5 -38q183 0 284 104t101 290q0 167 -114.5 252
t-376.5 90q-24 0 -36.5 -13t-12.5 -34v-521z" />
    <glyph glyph-name="uni13D0" unicode="&#x13d0;" horiz-adv-x="1051" 
d="M424 1069q0 103 -17.5 149.5t-58 68.5t-119.5 28q-24 4 -24 37q0 11 6 20.5t18 9.5l150 -6l158 -6l81 2q190 10 226 10q22 0 22 -30q0 -13 -6.5 -24t-17.5 -13q-85 -7 -124 -27.5t-55 -65t-16 -153.5q-3 -59 -5 -115t-11 -116q76 26 141 26q131 0 205 -59.5t74 -169.5
q0 -74 -40 -119t-100 -45q-49 0 -74.5 24t-25.5 58q0 26 7.5 40t17 24t17 21.5t7.5 33.5q0 49 -30 82.5t-80 33.5q-45 0 -65.5 -27t-29 -98t-8.5 -350v-47q0 -85 12.5 -122.5t45 -56t141.5 -30.5q12 -2 19 -12t7 -22q0 -14 -7 -24.5t-21 -10.5q-82 0 -156.5 8t-148.5 8
q-80 0 -162 -8t-150 -8q-24 0 -24 35q0 30 24 34q109 12 141 30t44 54.5t12 124.5q0 302 14 414q-85 -29 -155 -29q-133 0 -208 59t-75 169q0 73 39.5 118t99.5 45q50 0 75.5 -23t25.5 -58q0 -26 -8 -40t-17 -24t-17 -21t-8 -32q0 -55 33.5 -87t95.5 -32q43 0 65 25t31 82.5
t9 236.5z" />
    <glyph glyph-name="uni13D1" unicode="&#x13d1;" horiz-adv-x="1346" 
d="M635 1104q0 -60 -17.5 -123t-46.5 -129.5t-110 -210.5l4 -4q79 27 149 27q99 0 166 -41.5t102.5 -116t35.5 -176.5q0 -168 -95.5 -261.5t-267.5 -93.5q-159 0 -252.5 90.5t-93.5 247.5q0 97 29 200.5t98 249.5l74 159l-4 4q-27 -8 -76 -8q-128 0 -201.5 66t-73.5 183
q0 68 35 125t100 91t154 34q187 0 256 -145h6q66 73 150 109t170 36q179 0 280 -83t101 -220q0 -139 -91.5 -227t-230.5 -88q-55 0 -105 20.5t-86 51.5t-36 47q0 14 10 24t23 10q6 0 23 -11q91 -64 167 -64q74 0 106.5 56.5t32.5 172.5q0 109 -53 172t-149 63
q-85 0 -160 -42t-129 -119q6 -37 6 -76zM578 590q-72 0 -138 -27q-39 -74 -39 -211q0 -139 45.5 -227t120.5 -88q73 0 118.5 78t45.5 200q0 116 -42 195.5t-111 79.5zM373 985q14 0 43 8q16 70 16 140q0 109 -30 165t-85 56q-50 0 -79 -49.5t-29 -126.5q0 -87 45.5 -140
t118.5 -53z" />
    <glyph glyph-name="uni13D2" unicode="&#x13d2;" horiz-adv-x="1382" 
d="M508 283q0 -83 16 -127.5t54 -67t135 -31.5q12 -2 19 -12t7 -22q0 -14 -7 -24.5t-21 -10.5q-72 0 -169 8q-98 8 -143 8q-77 0 -153 -8t-148 -8q-12 0 -19 11.5t-7 25.5q0 28 26 32q88 9 123.5 27.5t49.5 58t14 121.5v768q0 116 -18 172t-54.5 79t-128.5 32
q-12 2 -18.5 13t-6.5 24q0 12 6.5 21t18.5 9l126 -4l128 -4l358 8q203 0 323 -96t120 -266q0 -132 -80.5 -220.5t-224.5 -119.5q-17 -3 -17 -14t14 -17q149 -67 229.5 -164t108.5 -256q18 -95 53 -129.5t117 -40.5q13 -2 20 -12t7 -22q0 -14 -7.5 -24.5t-21.5 -10.5
q-52 0 -178 8l-100 4q-77 0 -117 -6t-59 -6q-8 0 -14.5 11t-6.5 22q0 22 10 26q44 18 55 28.5t17 26t6 41.5q0 240 -239 498q-19 20 -19 25q0 27 23 39q107 53 149.5 121t42.5 186q0 155 -58.5 218.5t-209.5 63.5q-82 0 -106.5 -20t-24.5 -84v-909z" />
    <glyph glyph-name="uni13D3" unicode="&#x13d3;" horiz-adv-x="1339" 
d="M481 516q0 -210 59 -318.5t189 -138.5v7q-55 152 -55 266q0 116 39 199t107.5 127t154.5 44q137 0 218 -87t81 -228q0 -194 -125.5 -300.5t-355.5 -106.5q-267 0 -402 136.5t-135 430.5v522q0 103 -17.5 149.5t-58 68.5t-119.5 28q-24 4 -24 37q0 11 6 20.5t18 9.5
l150 -6l158 -6q88 0 173.5 6t170.5 6q22 0 22 -30q0 -13 -6.5 -24t-17.5 -13q-102 -7 -147 -26.5t-64 -62t-19 -132.5v-578zM961 567q-84 0 -131.5 -70t-47.5 -198q0 -100 33 -246q150 0 227.5 73t77.5 218q0 103 -43 163t-116 60z" />
    <glyph glyph-name="uni13D4" unicode="&#x13d4;" horiz-adv-x="1878" 
d="M1219 1386q27 0 51 -9.5t24 -26.5l-250 -516l201 -515q5 -10 17 -10q13 0 18 10q185 446 395 1027q8 20 32 30t52 10t50 -10t22 -28q0 -37 -158.5 -396t-439.5 -952q-12 -27 -51 -27q-34 0 -45 25l-213 584h-4l-250 -582q-12 -27 -52 -27q-17 0 -30.5 8t-18.5 19
l-116 316q-212 583 -353 886q-21 47 -59 105q-23 33 -23 47q0 11 8 17.5t17 6.5h221q20 0 25 -8.5t10 -19.5q101 -258 192.5 -515.5t192.5 -517.5q4 -10 18 -10q13 0 17 10l155 371l-190 512q-15 42 -30.5 66.5t-29 40t-22 25.5t-8.5 22q0 24 24 24h213q10 0 20 -9.5
t13 -18.5l137 -400h9l135 412q9 24 74 24z" />
    <glyph glyph-name="uni13D5" unicode="&#x13d5;" horiz-adv-x="1174" 
d="M758 731v-8q99 -41 159.5 -89.5t92.5 -111t32 -135.5q0 -117 -66.5 -207t-195 -144t-274.5 -54q-105 0 -190.5 33.5t-134 92t-48.5 128.5q0 74 34.5 114.5t94.5 40.5q46 0 75.5 -26.5t29.5 -65.5l-5 -129q0 -61 27.5 -88t104.5 -27q90 0 164.5 38.5t116.5 109t42 159.5
q0 57 -18 110t-50.5 100t-78.5 86.5t-58 39.5q-135 0 -240.5 41t-165 119t-59.5 191q0 112 58 195t162.5 128t232.5 45q177 0 285 -73.5t108 -194.5q0 -10 86 -10q23 0 23 -31q0 -12 -4.5 -21.5t-13.5 -9.5h-3l-116 2l-162 -2q-8 0 -13.5 10.5t-5.5 18.5l2 8q39 55 39 107
q0 55 -54 91t-169 36q-112 0 -179 -69.5t-67 -188.5q0 -126 94 -205.5t236 -79.5q51 0 197 8q145 8 192 8q14 0 21.5 -10.5t7.5 -24.5q0 -41 -27 -41q-207 0 -319 -14z" />
    <glyph glyph-name="uni13D6" unicode="&#x13d6;" horiz-adv-x="1606" 
d="M549 1153q0 34 -6.5 59t-37.5 42t-94.5 25.5t-177.5 8.5q-5 0 -14 -23q-70 -169 -127 -274q-10 -20 -31 -20q-38 0 -38 22q4 48 4 109v35l-4 192q0 29 15 37t50 8h961q18 0 18 -28q0 -31 -18 -35q-106 -6 -144 -19t-63.5 -39.5t-40.5 -72.5t-22 -118t-7 -163v-414
q0 -207 61.5 -317.5t180.5 -110.5q145 0 222 111.5t77 308.5q0 154 -77.5 255t-217.5 122q-14 4 -14 29q0 14 5.5 27.5t14.5 13.5q148 0 258 -56.5t169.5 -157.5t59.5 -229q0 -134 -65.5 -250.5t-182.5 -183.5t-264 -67q-231 0 -340.5 128t-109.5 381v664z" />
    <glyph glyph-name="uni13D7" unicode="&#x13d7;" horiz-adv-x="1473" 
d="M293 57q113 0 224 80.5t213.5 241t169.5 363.5t67 352q0 112 -53.5 161t-182.5 60q-24 4 -24 37q0 11 6 20.5t18 9.5l348 -12l82 2q187 10 225 10q11 0 17 -9t6 -21q0 -13 -7 -24t-18 -13q-85 -7 -123.5 -27.5t-54.5 -64.5t-16 -154v-803q0 -85 12.5 -122.5t45 -56
t141.5 -30.5q12 -2 19 -12t7 -22q0 -14 -7.5 -24.5t-21.5 -10.5q-81 0 -154.5 8t-139.5 8q-47 0 -144 -8q-98 -8 -137 -8q-12 0 -18.5 10.5t-6.5 24.5q0 12 6.5 22t18.5 12q85 12 110.5 29t35.5 52t10 128l6 443l-6 2q-118 -343 -301 -537t-390 -194q-113 0 -177 63.5
t-64 181.5q0 80 43 128t106 48q53 0 81 -25.5t28 -62.5q0 -32 -10 -90q-11 -59 -11 -86q0 -22 6 -51t15 -29z" />
    <glyph glyph-name="uni13D8" unicode="&#x13d8;" horiz-adv-x="1487" 
d="M293 57q70 0 155 46t167.5 128.5t155 192.5t126.5 233t69 206.5t15 234.5q0 89 -29 127.5t-105 53.5t-312 15q-5 0 -15 -23t-27 -62.5t-41.5 -94t-58.5 -117.5q-10 -20 -31 -20q-15 0 -26.5 6t-11.5 16q4 48 4 109v35l-4 192q0 29 15 37t50 8h987q19 0 19 -28
q0 -31 -19 -35q-74 -4 -106 -19.5t-49 -47t-17 -85.5v-899q0 -85 12.5 -122.5t45 -56t141.5 -30.5q12 -2 19.5 -12t7.5 -22q0 -14 -7.5 -24.5t-21.5 -10.5q-82 0 -155.5 8t-139.5 8q-47 0 -144 -8q-98 -8 -137 -8q-24 0 -24 35q0 30 24 34q85 12 110.5 29t35.5 52t10 128
q0 244 8 369l-12 4q-71 -183 -191.5 -338.5t-253 -238t-256.5 -82.5q-113 0 -177 63.5t-64 181.5q0 80 43 128t106 48q53 0 81 -25.5t28 -62.5q0 -32 -10 -90q-11 -59 -11 -86q0 -22 6 -51t15 -29z" />
    <glyph glyph-name="uni13D9" unicode="&#x13d9;" horiz-adv-x="1575" 
d="M63 1350q0 12 6.5 22t18.5 10q77 0 151 -6t146 -6q75 0 157 6t156 6q16 0 23.5 -10t7.5 -22q0 -13 -8.5 -24t-22.5 -11q-68 0 -110.5 -22t-42.5 -62q0 -95 82.5 -343.5t224.5 -578.5q7 -10 14 -10q11 0 15 10q73 199 128.5 349.5t92.5 259t55.5 180t18.5 112.5
q0 59 -36.5 82t-105.5 23q-28 0 -28 35q0 12 6 22t18 10q66 0 125.5 -6t118.5 -6q57 0 109.5 6t115.5 6q11 0 17 -9t6 -21q0 -33 -33 -37q-64 -6 -104 -32t-66.5 -66t-44 -91t-35.5 -108q-151 -458 -389 -1024q-6 -14 -18.5 -21.5t-24.5 -7.5q-31 0 -43 29
q-221 498 -428 1096q-34 103 -61.5 139.5t-70 56t-116.5 29.5q-25 4 -25 35z" />
    <glyph glyph-name="uni13DA" unicode="&#x13da;" horiz-adv-x="1083" 
d="M290 1119q0 -54 26.5 -96.5t75.5 -80t187 -105.5q73 -36 147 -76.5t133.5 -94.5t97 -127t37.5 -174q0 -117 -58 -203t-172 -134t-257 -48q-148 0 -277 77q-24 14 -36 14q-13 0 -43 -41q-31 -42 -49 -42q-27 0 -27 20q6 92 6 187q0 113 -6 239q0 15 11.5 23t25.5 8
q11 0 23 -6t15 -17q45 -185 139 -280.5t230 -95.5q128 0 203.5 61.5t75.5 162.5q0 64 -29 114.5t-83.5 94.5t-190.5 113q-71 36 -142 75t-128 89.5t-92.5 117.5t-35.5 159q0 111 57 189.5t159 119.5t239 41q138 0 244 -67q19 -13 30 -13q6 0 39 35q33 34 42 34q12 0 21 -6
t9 -16q-4 -94 -4 -197q0 -123 3 -183q0 -8 -12 -13.5t-24 -5.5q-31 0 -37 18q-65 193 -132 260.5t-178 67.5q-121 0 -192 -54.5t-71 -143.5z" />
    <glyph glyph-name="uni13DB" unicode="&#x13db;" horiz-adv-x="1724" 
d="M500 1182q156 -71 277 -180.5t189 -244t68 -272.5q0 -255 -120.5 -379t-362.5 -124q-225 0 -350 150t-125 415q0 242 95.5 450t256 319t354.5 111q207 0 316 -141q49 69 117.5 100t162.5 31q142 0 233 -85.5t91 -213.5q0 -89 -46 -164.5t-125 -118t-165 -42.5
q-81 0 -144 42t-63 65q0 12 12 21t25 9q8 0 16 -8q31 -32 61 -44t68 -12q79 0 132 66t53 172q0 108 -51 176t-136 68q-83 0 -147.5 -65.5t-101.5 -195.5q-6 -8 -31 -8q-27 0 -31 13q-21 125 -87 190.5t-165 65.5q-75 0 -146.5 -42.5t-129.5 -123.5zM582 51q122 0 184.5 99.5
t62.5 295.5q0 123 -52 259.5t-139.5 248t-180.5 160.5q-72 -100 -117 -249t-45 -304q0 -230 77 -370t210 -140z" />
    <glyph glyph-name="uni13DC" unicode="&#x13dc;" horiz-adv-x="1468" 
d="M766 254q0 106 76.5 184t201.5 101q-191 137 -397 245q-108 -50 -203.5 -121.5t-154.5 -144.5l45 2q149 0 233 -73t84 -197q0 -121 -89 -195.5t-232 -74.5q-138 0 -216.5 69.5t-78.5 196.5q0 175 148.5 328.5t402.5 250.5q-131 91 -176 154.5t-45 155.5q0 120 112 197
t287 77q150 0 245 -68.5t95 -173.5q0 -163 -258 -276q318 -164 459 -309t141 -289q0 -142 -97 -227.5t-251 -85.5q-153 0 -242.5 72.5t-89.5 201.5zM745 1339q-83 0 -127.5 -38.5t-44.5 -106.5q0 -76 63 -155.5t148 -108.5q55 13 89 79t34 150q0 81 -44 130.5t-118 49.5z
M956 262q0 -80 43 -146.5t105 -66.5q59 0 92 54t33 135q0 66 -36.5 135.5t-98.5 120.5q-73 -35 -105.5 -93t-32.5 -139zM463 225q0 101 -52 164.5t-139 63.5h-14q-49 -54 -49 -179q0 -60 20 -110t54 -80.5t67 -30.5q57 0 85 46t28 126z" />
    <glyph glyph-name="uni13DD" unicode="&#x13dd;" horiz-adv-x="1280" 
d="M283 694q0 358 144 547t421 189q177 0 276 -69t99 -192q0 -63 -32.5 -104t-94.5 -41q-47 0 -81 36t-34 87q0 42 10 110l2 32q0 21 -41.5 35.5t-124.5 14.5q-117 0 -187 -61t-102 -180.5t-32 -354.5v-399q0 -131 40.5 -194.5t133.5 -63.5h254q17 0 129 217l80 156
q10 20 37 20q15 0 27 -5.5t12 -16.5q-9 -70 -17 -197.5t-8 -208.5v-22q0 -14 -13.5 -21.5t-33.5 -7.5h-762q-80 0 -153.5 -5.5t-145.5 -8.5q-29 0 -29 32q0 13 7.5 24t21.5 13q64 9 102.5 17.5t59.5 29t28 58t7 104.5v430z" />
    <glyph glyph-name="uni13DE" unicode="&#x13de;" horiz-adv-x="1260" 
d="M283 1069q0 103 -17.5 149.5t-58 68.5t-119.5 28q-25 4 -25 37q0 11 6.5 20.5t18.5 9.5l307 -12l82 2q187 10 225 10q11 0 17 -9t6 -21q0 -13 -7 -24t-18 -13q-85 -7 -123.5 -27.5t-54.5 -64.5t-16 -154v-713q0 -157 33.5 -213.5t111.5 -56.5h277q10 0 61.5 98t140.5 275
q12 20 37 20q39 0 39 -22q-8 -66 -19 -203t-11 -203v-22q-3 -29 -48 -29h-743q-80 0 -153.5 -5.5t-145.5 -8.5q-29 0 -29 32q0 13 7.5 24t21.5 13q64 9 102.5 17.5t59.5 29t28 58t7 104.5v805z" />
    <glyph glyph-name="uni13DF" unicode="&#x13df;" horiz-adv-x="1432" 
d="M801 1417q157 0 323 -82q22 -9 42 -18.5t34 -9.5q32 0 43 39q6 16 31 16q31 0 31 -19q-15 -60 -15 -139q0 -80 25 -274q0 -10 -10.5 -15.5t-24.5 -5.5q-32 0 -37 19q-52 190 -170 294.5t-285 104.5q-211 0 -321.5 -160t-110.5 -456q0 -266 121 -419t328 -153
q183 0 299 74.5t176 226.5q7 19 35 19q15 0 28 -9t13 -22q-18 -134 -92 -234t-198 -157t-271 -57q-333 0 -517 186t-184 522q0 222 86.5 388t248 253.5t372.5 87.5z" />
    <glyph glyph-name="uni13E0" unicode="&#x13e0;" horiz-adv-x="1438" 
d="M1141 471q0 -491 -463 -491q-165 0 -250.5 81.5t-85.5 233.5q0 167 51 348q-156 20 -240.5 91t-84.5 177q0 77 36.5 134t100 88.5t137.5 31.5q135 0 212 -74t77 -200q0 -70 -23 -149l-14 -50q170 11 324 68v315q0 101 -17 145.5t-57.5 65.5t-120.5 27q-12 2 -18.5 13
t-6.5 24q0 12 6.5 22t18.5 10l307 -12l82 2q187 10 225 10q11 0 17 -9t6 -21q0 -14 -7 -25.5t-18 -13.5q-91 -7 -128 -27t-51.5 -64t-14.5 -147v-252q99 38 205 88q7 4 18 4q22 0 35.5 -18.5t13.5 -38.5q0 -33 -8.5 -49t-26.5 -23q-112 -35 -237 -63v-252zM918 678
q-193 -35 -340 -41q-43 -179 -43 -315q0 -151 36 -210t117 -59q115 0 172.5 75t57.5 239v311zM219 926q0 -96 53.5 -156t141.5 -76q28 112 28 191q0 217 -98 217q-56 0 -90.5 -49.5t-34.5 -126.5z" />
    <glyph glyph-name="uni13E1" unicode="&#x13e1;" horiz-adv-x="1821" 
d="M584 1346q-64 0 -122 -43.5t-92 -118t-34 -158.5q0 -57 9 -86.5t31 -45t87 -28.5q22 -4 22 -32q0 -35 -24 -35q-53 0 -102.5 7t-102.5 7q-43 0 -97 -7t-96 -7q-20 0 -20 35q0 28 20 32q48 9 67 25.5t28 66.5q37 220 153.5 339.5t302.5 119.5q113 0 198.5 -26t164.5 -84
q128 110 328 110q211 0 346 -110.5t135 -288.5q0 -151 -88 -248t-225 -106q-21 0 -21 26q0 13 12 19q160 75 160 307q0 95 -39.5 169.5t-114.5 116t-178 41.5q-67 0 -131.5 -26.5t-113.5 -71.5q159 -164 249 -355t90 -376q0 -254 -112.5 -396.5t-310.5 -142.5
q-195 0 -302.5 131.5t-107.5 366.5q0 190 78.5 382.5t222.5 352.5q-67 69 -101.5 91.5t-74.5 34.5t-94 12zM969 53q98 0 151.5 90t53.5 252q0 222 -62.5 400t-191.5 323q-89 -109 -141 -280t-52 -342q0 -215 63 -329t179 -114z" />
    <glyph glyph-name="uni13E2" unicode="&#x13e2;" horiz-adv-x="1221" 
d="M508 315q0 -84 14.5 -133t44 -75.5t73.5 -35.5t103 -14q14 0 20.5 -11t6.5 -23q0 -35 -29 -35q-65 0 -267 14l-75 2q-77 0 -153 -8t-148 -8q-12 0 -19 11.5t-7 25.5q0 28 26 32q88 9 123.5 27.5t49.5 58t14 121.5v764q0 102 -10.5 151.5t-33.5 81t-63 39.5q-57 14 -94 17
q-25 4 -25 35q0 12 6.5 21t18.5 9l66 -2q152 -10 188 -10l358 12q124 0 225 -45.5t158.5 -130t57.5 -198.5q0 -225 -142 -331t-454 -106q-14 0 -21 -9.5t-9.5 -36t-2.5 -210.5zM508 678q0 -17 9 -21t34 -4q197 0 277.5 77.5t80.5 258.5q0 147 -73.5 229t-196.5 82
q-82 0 -106.5 -20t-24.5 -84v-518z" />
    <glyph glyph-name="uni13E3" unicode="&#x13e3;" horiz-adv-x="1440" 
d="M356 686q0 -277 118.5 -448.5t328.5 -171.5q399 0 399 409l-100 -8q-121 0 -121 121q0 59 40 92t114 33q102 0 167.5 -71t65.5 -177q0 -138 -70.5 -250t-199.5 -173.5t-301 -61.5q-336 0 -519.5 190t-183.5 535q0 206 92 369t260 253t379 90q305 0 422 -239
q28 -59 45.5 -74t59.5 -21q18 -4 18 -28q0 -13 -5.5 -23t-14.5 -10l-191 8l-221 -6q-25 0 -25 29q0 11 6.5 20.5t18.5 11.5q88 14 106 21.5t26.5 20t8.5 34.5q0 82 -65 126t-193 44q-220 0 -342.5 -174.5t-122.5 -470.5z" />
    <glyph glyph-name="uni13E4" unicode="&#x13e4;" horiz-adv-x="1696" 
d="M772 1196v-262q0 -555 -8 -809l16 -4q261 420 399 700.5t138 386.5q0 54 -39 77t-125 28q-14 0 -20.5 9.5t-6.5 20.5q0 14 7.5 25.5t19.5 11.5q59 0 159 -7q99 -7 150 -7q44 0 99 7q54 7 104 7q21 0 21 -30q0 -13 -6.5 -24t-18.5 -13q-67 -9 -98.5 -28t-59.5 -77
q-105 -221 -254.5 -494t-400.5 -691q-20 -35 -60 -35l-217 4l-280 -4q-25 0 -25 35q0 30 25 34q152 12 205 43.5t53 104.5v954q0 61 -19 86t-68 35t-196 10q-5 0 -14 -23q-70 -169 -127 -274q-10 -20 -31 -20q-19 0 -29 6t-10 14l4 146l-4 192q0 29 15.5 37t50.5 8
q547 0 823 4q9 0 14 -8.5t5 -19.5q0 -31 -19 -35q-82 -8 -112 -21t-45 -36t-15 -64z" />
    <glyph glyph-name="uni13E5" unicode="&#x13e5;" horiz-adv-x="1497" 
d="M242 1069q0 103 -15 148t-51 67.5t-108 30.5q-25 4 -25 37q0 30 25 30q66 0 139 -6t147 -6l82 2q187 10 226 10q22 0 22 -30q0 -13 -7 -24t-18 -13q-85 -7 -123.5 -27.5t-54.5 -64.5t-16 -154v-416h8q127 131 327 218t392 87q133 0 207 -51.5t74 -140.5q0 -60 -30 -94.5
t-83 -34.5t-82 33.5t-29 95.5l2 102q0 17 -80 17q-46 0 -109 -9t-114 -26v-4q110 -41 159.5 -132t49.5 -263v-187q0 -79 10 -117.5t35 -57.5t107 -32q24 -4 24 -34q0 -33 -24 -33q-59 0 -123.5 7t-126.5 7q-68 0 -132 -7t-132 -7q-13 0 -20 10t-7 23q0 30 27 34
q78 12 100.5 29.5t30.5 56.5t8 119v129q0 120 -15.5 198.5t-35.5 124.5t-39 64.5t-25 18.5q-27 0 -130 -63.5t-163.5 -120t-60.5 -87.5v-258q0 -74 13.5 -115t44 -61.5t120.5 -32.5q12 -2 19.5 -12t7.5 -22q0 -14 -7.5 -24.5t-21.5 -10.5q-55 0 -146 8t-139 8
q-77 0 -149.5 -8t-140.5 -8q-25 0 -25 35q0 30 25 34q102 14 129 30.5t37 51.5t10 127v801z" />
    <glyph glyph-name="uni13E6" unicode="&#x13e6;" horiz-adv-x="1505" 
d="M279 1069q0 103 -17.5 149.5t-58 68.5t-119.5 28q-25 4 -25 37q0 11 6.5 20.5t18.5 9.5q57 0 150 -7t157 -7q69 0 146 7t143 7q12 0 18.5 -10t6.5 -22q0 -13 -6 -24t-17 -11q-79 -6 -115 -24.5t-50.5 -57.5t-14.5 -164v-367q0 -28 20 -28q17 0 41 24q261 263 389 476
q29 44 29 77q0 29 -28.5 44.5t-88.5 19.5q-28 4 -28 35q0 12 6 22t18 10q59 0 128 -7q68 -7 118 -7q56 0 115 7t122 7q21 0 21 -32q0 -31 -21 -35q-101 -12 -147.5 -37.5t-89.5 -81.5q-212 -275 -371 -434q-10 -10 -10 -21q0 -9 1 -16t15 -12q108 -35 201.5 -122.5
t204.5 -278.5l59 -101q48 -78 101 -112.5t131 -43.5q24 -4 24 -35q0 -12 -6 -22t-18 -10q-60 0 -152 8t-143 8q-52 0 -136 -8t-139 -8q-14 0 -21 10.5t-7 24.5q0 28 28 32q101 5 101 68q0 30 -13 63q-56 149 -85 201.5t-65.5 93.5t-82 72t-75.5 41t-70 10q-76 0 -76 -80
v-258q0 -100 11 -135t41 -51t114 -25q12 -2 19 -12t7 -23q0 -12 -7 -22t-21 -10q-56 0 -140 8t-133 8q-53 0 -160 -8t-151 -8q-12 0 -18.5 10t-6.5 22q0 31 25 35q111 14 142.5 32.5t43 56.5t11.5 122v803z" />
    <glyph glyph-name="uni13E7" unicode="&#x13e7;" horiz-adv-x="1339" 
d="M1083 516q0 -274 -120.5 -405t-350.5 -131q-219 0 -338.5 95t-119.5 267q0 207 181 327t505 124q11 0 14.5 5.5t3.5 22.5v273q0 101 -15.5 140.5t-54 57.5t-122.5 23q-11 2 -18 13t-7 24q0 12 6 21t17 9l79 -2q185 -10 228 -10l307 12q12 0 18.5 -9.5t6.5 -20.5
q0 -33 -25 -37q-116 -9 -155.5 -57.5t-39.5 -188.5v-553zM858 692q0 15 -24 15q-204 0 -318.5 -96t-114.5 -269q0 -145 50 -217t155 -72q125 0 188.5 105.5t63.5 310.5v223z" />
    <glyph glyph-name="uni13E8" unicode="&#x13e8;" horiz-adv-x="1622" 
d="M774 -20q-333 0 -506.5 177.5t-173.5 518.5q0 225 88.5 393.5t252.5 258t379 89.5q107 0 196.5 -45t136.5 -121h6q44 80 78 133q5 5 16 5q31 0 37 -13q43 -73 66 -132l19 -47h4q23 79 50 139l19 44q3 6 18 6q13 0 26 -3.5t15 -8.5q41 -71 58 -110.5t53 -145.5
q-2 -11 -30.5 -29t-49.5 -18q-20 0 -23 16q-8 31 -14 55t-13.5 46t-16.5 42.5t-21 43.5q-19 -31 -32 -71l-32 -91q-4 -12 -27.5 -27.5t-41.5 -15.5q-20 0 -23 18q-31 106 -80 193q-78 -148 -96 -197q-3 -8 -13 -14t-20 -6q-12 0 -12 16v11q0 56 -37.5 113t-98.5 91.5
t-138 34.5q-131 0 -229 -71t-153 -216.5t-55 -334.5q0 -186 55 -335t151 -226.5t225 -77.5q118 0 192 68t74 169v12q0 17 12 17q9 0 19.5 -6.5t13.5 -14.5q25 -69 74 -156l22 -40q50 88 80 192q3 19 22 19q18 0 42 -15.5t28 -27.5q19 -50 32 -90.5t32 -71.5q21 40 32.5 72.5
t32.5 113.5q3 17 23 17q19 0 48 -17.5t31 -29.5l-28 -82q-12 -37 -27 -72.5t-55 -101.5q-2 -5 -15.5 -9t-25.5 -4q-15 0 -19 6l-18 45q-34 79 -49 139h-4l-19 -47q-29 -70 -67 -133q-6 -12 -37 -12q-12 0 -16 4q-39 61 -78 133q-43 -68 -147.5 -116.5t-217.5 -48.5z" />
    <glyph glyph-name="uni13E9" unicode="&#x13e9;" horiz-adv-x="1665" 
d="M1321 272q0 -96 29.5 -140t89.5 -44q90 0 135 59q7 9 16 9q14 0 23.5 -10t9.5 -17q0 -40 -69 -94.5t-181 -54.5q-77 0 -127.5 31t-85.5 116h-6q-76 -80 -164.5 -113.5t-222.5 -33.5q-324 0 -499 184t-175 532q0 220 92 384t261 250.5t393 86.5q216 0 352.5 -67.5
t136.5 -192.5q0 -63 -32.5 -104t-94.5 -41q-49 0 -82 37.5t-33 85.5q0 30 7 77l6 52q0 8 -44 25.5t-104.5 27.5t-132.5 10q-223 0 -343 -160.5t-120 -437.5q0 -313 112 -486t316 -173q168 0 255 65.5t87 190.5q0 98 -18 145.5t-60.5 72.5t-117.5 31q-27 4 -27 35q0 11 6 22
t17 11l147 -6l137 -6l55 2q130 10 185 10q9 0 14.5 -11t5.5 -22q0 -28 -24 -32q-49 -5 -75.5 -25.5t-38 -58t-11.5 -136.5v-86z" />
    <glyph glyph-name="uni13EA" unicode="&#x13ea;" horiz-adv-x="2312" 
d="M412 53q70 0 131 29t119 82t147 170q-168 190 -238.5 344.5t-70.5 310.5q0 124 53 221.5t147 152t209 54.5q118 0 215 -53.5t150 -151.5t53 -225q0 -96 -32 -185.5t-93 -178t-188 -220.5q100 -138 177.5 -206.5t163 -104t183.5 -35.5q200 0 309 178.5t113 509.5
q-84 -51 -191 -51q-149 0 -235 99t-86 270q0 103 44.5 184t123.5 125.5t172 44.5q119 0 206.5 -71.5t136 -215t48.5 -329.5q0 -191 -47 -340.5t-136.5 -255.5t-220 -165.5t-270.5 -59.5q-194 0 -334 59.5t-288 212.5q-126 -144 -239 -208t-236 -64q-113 0 -195.5 45.5
t-127 125t-44.5 177.5q0 111 64.5 183.5t164.5 72.5q65 0 101.5 -29.5t36.5 -77.5q0 -41 -23 -69.5t-57 -28.5q-35 0 -71 7t-71 7q-7 0 -11.5 -24t-4.5 -56q0 -71 30.5 -131.5t86 -94.5t125.5 -34zM1102 975q0 184 -48.5 274t-148.5 90q-86 0 -135 -84.5t-49 -230.5
q0 -128 57.5 -258.5t169.5 -280.5q81 115 117.5 234.5t36.5 255.5zM1780 1339q-75 0 -116.5 -69.5t-41.5 -204.5q0 -124 54 -193t157 -69q80 0 125 24q-5 207 -24.5 308.5t-58.5 152.5t-95 51z" />
    <glyph glyph-name="uni13EB" unicode="&#x13eb;" horiz-adv-x="1606" 
d="M803 -20q-344 0 -521.5 175.5t-177.5 516.5q0 206 93 378t257.5 269.5t364.5 97.5q199 0 355 -83t241.5 -236.5t85.5 -354.5q0 -228 -89 -402t-249 -267.5t-360 -93.5zM803 1331q-86 0 -167.5 -27t-123.5 -71q34 6 74 6q167 0 274 -104.5t107 -260.5q0 -66 -24 -118.5
t-53 -99t-53 -90.5t-24 -93q0 -103 65 -175.5t154 -72.5q102 0 162.5 145.5t60.5 344.5q0 181 -54 322t-155 217.5t-243 76.5zM811 66q96 0 166.5 20.5t128.5 73.5l-84 -4q-184 0 -289.5 72t-105.5 192q0 65 24 125t52.5 118t52.5 116.5t24 121.5q0 122 -57 201.5t-152 79.5
q-104 0 -162.5 -121t-58.5 -328q0 -314 119.5 -490.5t341.5 -176.5z" />
    <glyph glyph-name="uni13EC" unicode="&#x13ec;" horiz-adv-x="2126" 
d="M950 1016q0 -178 -189 -385q-123 -134 -156.5 -181.5t-33.5 -84.5q0 -6 11 -30.5t37.5 -57t69.5 -69t107 -67.5t150 -51t199 -20q207 0 372.5 90.5t246.5 253t81 387.5q0 252 -91 395t-251 143q-225 0 -225 -194q0 -73 22 -150.5t51 -129.5l13 -29q0 -32 -23.5 -58
t-70.5 -26q-80 0 -128 74t-48 190q0 115 49 206.5t140 142t214 50.5q251 0 397 -162.5t146 -439.5q0 -185 -63 -337t-189.5 -262.5t-303.5 -172t-345 -61.5q-222 0 -405 66t-320.5 199.5t-217 322t-79.5 362.5q0 229 117 358t321 129q113 0 207 -52t141 -142t47 -207z
M766 1022q0 144 -62 230.5t-159 86.5q-98 0 -153.5 -79.5t-55.5 -217.5q0 -83 23.5 -198.5t64.5 -220t92 -172.5l12 2q6 60 35 124.5t92 158.5q55 83 83 153t28 133z" />
    <glyph glyph-name="uni13ED" unicode="&#x13ed;" horiz-adv-x="1307" 
d="M248 643q47 0 70.5 -26t23.5 -58q0 -5 -13.5 -29.5t-29.5 -65.5t-29.5 -95.5t-13.5 -118.5q0 -99 57 -149t166 -50q91 0 160.5 26.5t120 71.5t89 118.5t64.5 197.5l-31 15q-286 120 -442.5 271.5t-156.5 313.5q0 99 46.5 177t140.5 124.5t200 46.5q254 0 379 -147
t125 -445q0 -246 -87.5 -438.5t-248.5 -297.5t-363 -105q-124 0 -215 51t-139.5 142.5t-48.5 205.5q0 117 48.5 190.5t127.5 73.5zM954 891q0 201 -72 322.5t-199 121.5q-189 0 -189 -213q0 -69 22.5 -127t59.5 -107.5t83 -92.5t92.5 -82.5t89.5 -76.5t74 -75l13 2
q18 107 22 181t4 147z" />
    <glyph glyph-name="uni13EE" unicode="&#x13ee;" horiz-adv-x="1202" 
d="M979 975q-98 0 -98 102q0 37 5 94q5 58 5 111q0 34 -11 51t-26 17q-135 0 -233.5 -55.5t-156 -169.5t-81.5 -308q50 14 121.5 24.5t120.5 10.5q235 -2 366 -114.5t131 -309.5q0 -132 -51.5 -231t-157 -155t-237.5 -56q-158 0 -282 79.5t-192.5 227t-68.5 344.5
q0 236 82.5 413.5t234.5 272t349 94.5q155 0 240 -70.5t85 -197.5q0 -69 -42 -121.5t-103 -52.5zM377 701q0 -277 81.5 -451t217.5 -174q115 0 163 77t48 257q0 120 -38 191.5t-114 104.5t-213 33q-82 0 -145 -12v-26z" />
    <glyph glyph-name="uni13EF" unicode="&#x13ef;" horiz-adv-x="2417" 
d="M987 924q102 0 169 -44t108 -132h4q86 180 243 180q83 0 169 -78q51 -46 77.5 -62t52.5 -16q54 0 119 72q4 4 15 4t20.5 -8t9.5 -21q0 -17 -44.5 -71.5t-98 -85.5t-105.5 -31q-32 0 -60.5 17t-67.5 60q-38 40 -73 58t-75 18q-34 0 -75.5 -29t-76.5 -79l50 -149
q83 -257 179.5 -355t246.5 -98q159 0 237 142.5t78 430.5q0 324 -209.5 499t-603.5 175q-103 0 -162 -13.5t-59 -33.5q0 -47 6 -85.5t6 -72.5q0 -41 -34.5 -67.5t-82.5 -26.5q-54 0 -86.5 34.5t-32.5 94.5q0 64 70 127.5t188 101t261 37.5q271 0 492.5 -100t350.5 -283
t129 -403q0 -305 -160 -478t-446 -173q-142 0 -243.5 45.5t-172.5 145.5t-141 314h-4q-218 -505 -582 -505q-138 0 -250 62t-175.5 177t-63.5 273q0 127 53.5 224.5t162 158.5t230.5 67q13 0 22 -11.5t9 -25.5t-14 -18q-95 -25 -142 -67.5t-74.5 -115.5t-27.5 -190
q0 -200 82.5 -320t222.5 -120q92 0 187.5 57t185.5 172t145 256q-50 147 -92.5 192.5t-111.5 45.5q-70 0 -123 -50.5t-84 -142.5q-3 -8 -19 -8q-14 0 -27.5 7t-13.5 18q17 146 103 224.5t229 78.5z" />
    <glyph glyph-name="uni13F0" unicode="&#x13f0;" horiz-adv-x="1393" 
d="M449 127q20 76 20 186q0 90 -19 310q-20 219 -20 364q0 197 122.5 313.5t326.5 116.5q110 0 207.5 -37.5t153.5 -106t56 -159.5q0 -75 -67 -136t-187 -105l-59 -21q-37 -15 -37 -39q0 -32 45 -51q146 -64 202.5 -112t87 -115t30.5 -160q0 -115 -66 -202.5t-196 -140
t-277 -52.5q-85 0 -139 8q-11 -109 -34 -191.5t-69 -161.5q-15 -26 -71.5 -64t-116.5 -64.5t-74 -26.5q-22 0 -22 18q84 154 126 274t64 259q-115 37 -209.5 97.5t-157.5 137t-63 111.5q0 32 32 61t68 29q44 0 64 -45q40 -91 114 -169t165 -126zM1073 1116
q0 100 -59.5 158.5t-171.5 58.5q-114 0 -167.5 -67.5t-53.5 -202.5q0 -211 15 -474q15 -262 15 -360q0 -89 -10 -157q48 -13 121 -13q162 0 234.5 81.5t72.5 256.5q0 221 -168 312q-59 32 -59 86q0 71 96 116q65 33 89 57.5t35 59.5t11 88z" />
    <glyph glyph-name="uni13F1" unicode="&#x13f1;" horiz-adv-x="1808" 
d="M315 53q88 0 181.5 78t183.5 231t149.5 334.5t59.5 300.5q0 144 -19 200t-64 84t-128 36q-19 4 -19 35q0 12 5 22t14 10q53 0 153 -7q99 -7 164 -7l82 2q187 10 226 10q22 0 22 -30q0 -13 -7 -24t-18 -13q-102 -8 -148 -59.5t-46 -176.5q0 -68 11 -95t35.5 -45t66.5 -24
q161 -26 277.5 -92.5t173 -163.5t56.5 -217q0 -131 -61.5 -234.5t-179.5 -164.5t-248 -61q-159 0 -253.5 86t-94.5 233q0 116 56.5 182t158.5 66q66 0 101.5 -30.5t35.5 -80.5q0 -42 -25 -69t-67 -27q-14 0 -67 17q-53 16 -81 16q-15 0 -24.5 -12t-9.5 -23q0 -150 68 -221.5
t190 -71.5q128 0 199 99.5t71 271.5q0 123 -64.5 221t-189.5 159.5t-256 61.5q-6 0 -20 -38l-36 -99q-145 -396 -300 -569.5t-330 -173.5q-125 0 -195.5 70t-70.5 208q0 74 40 122t101 48q113 0 113 -109q0 -45 -5.5 -92t-5.5 -88q0 -86 39 -86z" />
    <glyph glyph-name="uni13F2" unicode="&#x13f2;" horiz-adv-x="1364" 
d="M242 686q0 295 59.5 449t189 224.5t340.5 70.5q177 0 276 -69t99 -192q0 -63 -32.5 -104t-94.5 -41q-46 0 -80 36.5t-34 86.5q0 42 10 110l2 19q0 3 -0.5 13t-14.5 21.5t-48.5 20t-102.5 8.5q-90 0 -151 -19.5t-99.5 -55.5t-58 -86t-28 -110.5t-9 -130t-0.5 -144.5h10
q52 54 139 92.5t164 38.5q393 0 393 -410v-250q0 -79 10 -117.5t35 -57.5t107 -32q12 -2 18.5 -12t6.5 -22q0 -13 -6.5 -23t-18.5 -10l-115 6q-83 8 -135 8q-54 0 -139 -8q-39 -6 -139 -6q-13 0 -20 10.5t-7 24.5q0 30 27 34q86 13 110 32t33.5 58t9.5 113v172
q0 152 -21 222.5t-67.5 105.5t-126.5 35q-167 0 -268 -101v-430q0 -82 12 -120.5t42 -57t124 -29.5q12 -2 19.5 -12t7.5 -22q0 -14 -7.5 -24.5t-21.5 -10.5q-55 0 -146 8t-139 8q-77 0 -149.5 -8t-140.5 -8q-25 0 -25 35q0 30 25 34q105 14 130.5 30t35.5 50t10 127v420z
" />
    <glyph glyph-name="uni13F3" unicode="&#x13f3;" horiz-adv-x="1655" 
d="M1004 1061q-13 0 -13 16v10q0 54 -37.5 111.5t-98 93t-130.5 35.5q-112 0 -197 -74.5t-134.5 -217t-49.5 -308.5q0 -307 120 -484t335 -177q192 0 273 62.5t81 195.5q0 79 -11.5 112t-42 49t-147.5 27q-26 4 -26 35q0 11 5.5 22t16.5 11q52 0 148 -6q96 -7 137 -7
q59 0 126 6.5t148 6.5q10 0 15.5 -10t5.5 -21t-6 -23t-19 -14q-90 -8 -130 -55.5t-40 -132.5q0 -212 15 -318q0 -26 -52 -26q-16 0 -32 18.5t-43 67.5l-39 69h-4q-105 -155 -400 -155q-333 0 -514.5 185.5t-181.5 528.5q0 207 85 373.5t235 258t333 91.5q108 0 204.5 -47
t135.5 -121h2q44 80 78 133q4 4 16 4q31 0 37 -12q47 -76 88 -180h4l17 53q17 54 49 131q3 6 18 6q13 0 26 -3.5t15 -8.5q30 -48 46.5 -82.5t35.5 -91.5h4q9 112 34.5 152.5t47.5 40.5q19 0 35.5 -16t16.5 -32q0 -10 -9 -16q-34 -29 -64 -81.5t-36 -129.5q-2 -11 -30.5 -29
t-49.5 -18q-19 0 -22 16q-26 99 -37 128t-27 59h-2q-19 -31 -32 -71.5t-31 -90.5q-7 -15 -30 -29t-40 -14q-20 0 -23 18q-34 117 -77 193h-2q-9 -17 -22 -40.5t-26.5 -49.5t-26.5 -54t-22 -53q-3 -8 -13 -14t-19 -6z" />
    <glyph glyph-name="uni13F4" unicode="&#x13f4;" horiz-adv-x="1325" 
d="M502 815q0 -26 9.5 -39.5t43.5 -13.5h43q187 0 272.5 68.5t85.5 203.5q0 127 -78 194.5t-223 67.5h-96q-34 0 -45.5 -15t-11.5 -79v-387zM502 403q0 -162 14.5 -220t50 -78.5t138.5 -20.5q140 0 208 67.5t68 204.5q0 154 -95 237t-280 83h-39q-44 0 -54.5 -16t-10.5 -66
v-191zM279 1032q0 112 -17 169.5t-52.5 82t-131.5 33.5q-23 4 -23 35q0 12 6 21t17 9l126 -4l130 -4l309 8q262 0 401.5 -84.5t139.5 -246.5q0 -110 -72.5 -187.5t-208.5 -113.5q-10 -3 -10 -13t10 -10q330 -57 330 -360q0 -185 -118.5 -279t-346.5 -94l-186 5l-201 5
q-52 0 -105 -2t-182 -14q-24 0 -24 37q0 28 22 32q110 13 148.5 53t38.5 136v786z" />
    <glyph glyph-name="endash" unicode="&#x2013;" horiz-adv-x="1024" 
d="M61 391q-14 0 -21 17.5t-7 39.5q0 21 7 38.5t21 17.5h902q26 0 26 -56q0 -57 -26 -57h-902z" />
    <glyph glyph-name="emdash" unicode="&#x2014;" horiz-adv-x="2048" 
d="M61 391q-14 0 -21 17.5t-7 39.5q0 21 7 38.5t21 17.5h1926q26 0 26 -56q0 -57 -26 -57h-1926z" />
    <glyph glyph-name="quoteleft" unicode="&#x2018;" horiz-adv-x="387" 
d="M316 1420q9 0 16 -10.5t8 -20.5q0 -8 -6 -13q-65 -48 -93 -84t-28 -82q0 -27 15 -43.5t49 -29.5q63 -26 63 -101q0 -48 -32 -81t-93 -33q-67 0 -107 49t-40 123q0 85 42 158t114 120.5t92 47.5z" />
    <glyph glyph-name="quoteright" unicode="&#x2019;" horiz-adv-x="387" 
d="M71 929q-10 0 -17 11t-7 20q0 8 6 13q70 51 95.5 88t25.5 78q0 45 -40 63q-48 21 -60.5 33.5t-19.5 32.5t-7 45q0 48 32 81t93 33q65 0 106 -47.5t41 -124.5q0 -85 -40 -156.5t-114 -120.5t-94 -49z" />
    <glyph glyph-name="quotesinglbase" unicode="&#x201a;" horiz-adv-x="387" 
d="M71 -248q-10 0 -17 11t-7 20q0 8 6 13q70 51 95.5 88t25.5 78q0 45 -40 63q-48 21 -60.5 33.5t-19.5 32.5t-7 45q0 48 32 81t93 33q65 0 106 -47.5t41 -124.5q0 -85 -40 -156.5t-114 -120.5t-94 -49z" />
    <glyph glyph-name="quotedblleft" unicode="&#x201c;" horiz-adv-x="727" 
d="M656 1420q9 0 16 -10.5t8 -20.5q0 -8 -6 -13q-65 -48 -93 -84t-28 -82q0 -27 15 -43.5t49 -29.5q63 -26 63 -101q0 -48 -32 -81t-93 -33q-67 0 -107 49t-40 123q0 85 42 158t114 120.5t92 47.5zM316 1420q9 0 16 -10.5t8 -20.5q0 -8 -6 -13q-65 -48 -93 -84t-28 -82
q0 -27 15 -43.5t49 -29.5q63 -26 63 -101q0 -48 -32 -81t-93 -33q-67 0 -107 49t-40 123q0 85 42 158t114 120.5t92 47.5z" />
    <glyph glyph-name="quotedblright" unicode="&#x201d;" horiz-adv-x="727" 
d="M411 929q-10 0 -17 11t-7 20q0 8 6 13q70 51 95.5 88t25.5 78q0 45 -40 63q-48 21 -60.5 33.5t-19.5 32.5t-7 45q0 48 32 81t93 33q65 0 106 -47.5t41 -124.5q0 -85 -40 -156.5t-114 -120.5t-94 -49zM71 929q-10 0 -17 11t-7 20q0 8 6 13q70 51 95.5 88t25.5 78
q0 45 -40 63q-48 21 -60.5 33.5t-19.5 32.5t-7 45q0 48 32 81t93 33q65 0 106 -47.5t41 -124.5q0 -85 -40 -156.5t-114 -120.5t-94 -49z" />
    <glyph glyph-name="quotedblbase" unicode="&#x201e;" horiz-adv-x="727" 
d="M71 -248q-10 0 -17 11t-7 20q0 8 6 13q70 51 95.5 88t25.5 78q0 45 -40 63q-48 21 -60.5 33.5t-19.5 32.5t-7 45q0 48 32 81t93 33q65 0 106 -47.5t41 -124.5q0 -85 -40 -156.5t-114 -120.5t-94 -49zM411 -248q-10 0 -17 11t-7 20q0 8 6 13q70 51 95.5 88t25.5 78
q0 45 -40 63q-48 21 -60.5 33.5t-19.5 32.5t-7 45q0 48 32 81t93 33q65 0 106 -47.5t41 -124.5q0 -85 -40 -156.5t-114 -120.5t-94 -49z" />
    <glyph glyph-name="dagger" unicode="&#x2020;" horiz-adv-x="1024" 
d="M827 850q0 27 17.5 47.5t46.5 20.5q61 0 61 -66q0 -46 -29.5 -73t-72.5 -27q-38 0 -96 31q-58 30 -90 30q-42 0 -72.5 -23.5t-44.5 -62.5l65 -68q-14 -153 -25 -316t-42 -792q-15 -8 -28 -8q-12 0 -21 8q-51 651 -67 808t-36 300l64 68q-18 35 -53.5 62.5t-67.5 27.5
q-30 0 -51 -10t-40.5 -21.5t-40.5 -21.5t-50 -10q-45 0 -76 27t-31 71q0 27 18.5 45t49.5 18q59 0 59 -65l-4 -31q0 -10 12 -10q17 0 27 18l22 37l34 48q19 28 54 28q27 0 47.5 -17t37 -37.5t29.5 -37.5t26 -17q16 0 16 25q0 17 -28 95q-29 77 -29 118q0 67 22 110
q23 44 23 62q0 11 -16 38q-17 26 -17 58q0 31 22.5 50.5t51.5 19.5q24 0 45.5 -19.5t21.5 -46.5q0 -39 -16 -58t-16 -42q0 -19 22 -62q23 -44 23 -110q0 -43 -28 -120q-28 -75 -28 -93q0 -27 19 -27q10 0 23.5 17.5t30.5 38t38.5 38t46.5 17.5q31 0 50 -28l34 -48
q12 -20 23.5 -37.5t25.5 -17.5q13 0 13 10z" />
    <glyph glyph-name="daggerdbl" unicode="&#x2021;" horiz-adv-x="1024" 
d="M383 1098q20 0 45 -11v22q0 62 21 93q10 17 17 27t7 20q0 11 -4 16q-26 33 -30.5 42t-4.5 22q0 27 19.5 47.5t46.5 20.5q22 0 42.5 -19.5t20.5 -44.5t-20 -49q-4 -6 -11.5 -14t-7.5 -17q0 -16 7.5 -23t15.5 -24q22 -31 22 -119q25 11 45 11q41 0 69 -19.5t52 -48.5
q16 -24 29 -24q14 0 14 26q4 29 13.5 47.5t44.5 18.5q30 0 44.5 -22.5t14.5 -51.5q0 -37 -25.5 -60.5t-60.5 -23.5q-42 0 -102 35q-23 12 -48.5 22.5t-60.5 10.5q-31 0 -61 -13l61 -65l-78 -459l76 -459l-61 -65q30 -13 61 -13q52 0 109 35q61 33 102 33q35 0 60.5 -23.5
t25.5 -60.5q0 -29 -14.5 -51.5t-44.5 -22.5q-35 0 -44.5 18.5t-13.5 47.5q0 27 -14 27q-12 0 -29 -25q-24 -29 -52 -48.5t-69 -19.5q-20 0 -45 11q0 -88 -22 -119q-8 -15 -15.5 -23t-7.5 -24q0 -8 7.5 -16.5t11.5 -14.5q20 -24 20 -49t-20.5 -44.5t-42.5 -19.5
q-27 0 -46.5 20.5t-19.5 47.5q0 24 25 51q14 19 14 29t-7 21l-18 26q-20 33 -20 94v21q-25 -11 -45 -11q-43 0 -70.5 21.5t-52.5 52.5q-6 6 -12 12.5t-17 6.5q-10 0 -11 -14.5t-4 -32t-12 -32t-36 -14.5q-35 0 -50.5 21.5t-15.5 52.5q0 41 28 62.5t65 21.5q38 0 96 -33
q60 -35 108 -35q33 0 62 13l-60 65l74 457l-72 461l60 65q-29 13 -62 13q-42 0 -108 -33q-57 -35 -96 -35q-37 0 -65 21.5t-28 62.5q0 31 15.5 52.5t50.5 21.5q27 0 36 -14.5t12 -32t4 -31.5t11 -14q11 0 17 6l12 12q25 31 52.5 52.5t70.5 21.5z" />
    <glyph glyph-name="bullet" unicode="&#x2022;" horiz-adv-x="678" 
d="M336 471q-86 0 -147.5 63.5t-61.5 147.5q0 55 29.5 104t80.5 76t105 27q84 0 146.5 -59.5t62.5 -147.5q0 -85 -62 -148t-153 -63z" />
    <glyph glyph-name="ellipsis" unicode="&#x2026;" horiz-adv-x="2048" 
d="M287 -27q-47 0 -82 34t-35 81t31.5 83t79.5 36q47 0 84.5 -31t37.5 -82q0 -47 -32.5 -84t-83.5 -37zM1024 -27q-47 0 -82 34t-35 81t32 83t79 36t85 -31t38 -82q0 -47 -33 -84t-84 -37zM1761 -27q-47 0 -81.5 34t-34.5 81t31.5 83t78.5 36t85 -31t38 -82q0 -47 -33 -84
t-84 -37z" />
    <glyph glyph-name="perthousand" unicode="&#x2030;" horiz-adv-x="2431" 
d="M432 590q-161 0 -250.5 97t-89.5 271q0 150 102 251.5t250 101.5q163 0 244 -125q57 -19 158 -19q111 0 201 55t141 126q7 10 24 10q15 0 25.5 -7t11.5 -17l-2 -7l-729 -1477q-7 -11 -25 -11q-16 0 -30 8.5t-14 18.5l2 7l629 1296q0 7 -8 7l-5 -2q-114 -64 -229 -64
q-67 0 -123 16q33 -87 33 -168q0 -98 -39.5 -184t-111.5 -135t-165 -49zM1309 -102q-157 0 -254 90t-97 278q0 98 46.5 179.5t128.5 127t178 45.5q142 0 222.5 -100.5t80.5 -265.5q0 -96 -38.5 -178.5t-108 -129t-158.5 -46.5zM1317 -51q100 0 163.5 84t63.5 219
q0 147 -58.5 229t-182.5 82q-88 0 -137.5 -76.5t-49.5 -220.5q0 -140 51.5 -228.5t149.5 -88.5zM451 641q100 0 163.5 90t63.5 227q0 297 -236 297q-94 0 -143 -79.5t-49 -217.5q0 -137 51.5 -227t149.5 -90zM2048 -102q-156 0 -253 90t-97 278q0 151 101 251.5t251 100.5
q142 0 222.5 -99t80.5 -267q0 -95 -38.5 -177.5t-107.5 -129.5t-159 -47zM2056 -51q100 0 164 84t64 219q0 311 -242 311q-90 0 -138.5 -79.5t-48.5 -217.5q0 -140 51.5 -228.5t149.5 -88.5z" />
    <glyph glyph-name="guilsinglleft" unicode="&#x2039;" horiz-adv-x="647" 
d="M82 469q0 35 12 43q181 119 385 344q7 7 16 7q15 0 28 -9.5t13 -20.5l-1 -4q-71 -135 -198 -277l-67 -77q70 -88 140.5 -181t126.5 -204l1 -4q0 -14 -14.5 -27.5t-29.5 -13.5q-11 0 -19 10q-207 251 -381 373q-12 8 -12 41z" />
    <glyph glyph-name="guilsinglright" unicode="&#x203a;" horiz-adv-x="647" 
d="M154 46q-16 0 -30.5 12.5t-14.5 23.5q0 12 52.5 100.5t215.5 292.5l-67 77q-89 100 -144 184.5t-55 98.5q0 9 12.5 18t26.5 10q10 0 18 -7q204 -225 385 -344q12 -8 12 -43q0 -33 -12 -41q-174 -122 -381 -373q-7 -9 -18 -9z" />
    <glyph glyph-name="fraction" unicode="&#x2044;" horiz-adv-x="92" 
d="M-478 -180q-16 0 -32.5 12.5t-16.5 24.5l3 8l1212 1614q4 4 10 4q13 0 31 -14.5t18 -26.5l-2 -6l-1212 -1612q-4 -4 -11 -4z" />
    <glyph glyph-name="fraction" unicode="&#x2215;" horiz-adv-x="92" 
d="M-478 -180q-16 0 -32.5 12.5t-16.5 24.5l3 8l1212 1614q4 4 10 4q13 0 31 -14.5t18 -26.5l-2 -6l-1212 -1612q-4 -4 -11 -4z" />
    <glyph glyph-name="uni2074" unicode="&#x2074;" horiz-adv-x="627" 
d="M486 1422q30 0 30 -11v-463q0 -14 1 -16t9 -2h78q9 0 9 -43t-13 -43h-66q-14 0 -16 -3.5t-2 -25.5v-166h-154v176q0 14 -2 16.5t-12 2.5h-312q-12 0 -17.5 13t-5.5 25l1 13l448 518q7 9 24 9zM352 930q10 0 10 12v256l-229 -268h219z" />
    <glyph glyph-name="Euro" unicode="&#x20ac;" 
d="M340 535q15 -175 96 -283.5t195 -108.5q109 0 174.5 26t124.5 87q8 9 20 9q15 -1 28 -12.5t13 -24.5l-2 -9q-50 -119 -153 -182.5t-236 -63.5q-138 0 -242.5 65t-167 191t-75.5 308h-72q-19 0 -19 35q0 19 8 37t23 18h51l-2 39v79l2 33h-63q-19 0 -19 34q0 20 9 39t26 19
h60q40 247 178 384t348 137q152 0 248 -79.5t96 -209.5q0 -57 -27 -94t-79 -37t-79.5 24t-27.5 70q0 30 21 67q20 36 20 54q0 129 -180 129q-124 0 -204.5 -122t-92.5 -323h375q21 0 21 -32q0 -23 -11 -41.5t-25 -18.5h-364q-4 -18 -4 -93v-33l2 -25h321q16 0 16 -27
q0 -25 -11.5 -45t-24.5 -20h-295z" />
    <glyph glyph-name="trademark" unicode="&#x2122;" horiz-adv-x="1602" 
d="M1137 911l182 437q27 6 98.5 13t126.5 7q12 0 12 -23q0 -22 -8 -24q-52 -4 -68 -29t-16 -102v-359q0 -37 5 -55.5t17.5 -26.5t63.5 -12q12 -2 12 -18q0 -25 -16 -25q-48 0 -123 7l-26 1q-39 0 -77 -4t-77 -4q-11 0 -11 26q0 15 9 17q53 4 65 12t15.5 27.5t3.5 54.5v347
l-143 -340q-17 -35 -28 -68t-26 -70q-5 -12 -27 -12t-28 12l-205 486v-344q0 -38 6 -58.5t19 -30t55 -14.5q10 -1 10 -24q0 -21 -12 -21q-28 0 -54 4t-56 4q-35 0 -69 -4t-65 -4q-14 0 -14 28q0 15 12 17q46 4 58.5 12t18 28t5.5 63v399v8q0 36 -16.5 51.5t-63.5 20.5
q-12 1 -12 24t12 23l32 -1q213 0 220 -15zM418 836q0 -43 5 -61.5t17.5 -26t61.5 -11.5q11 -2 11 -18q0 -25 -13 -25q-39 0 -76 4t-74 4l-151 -8q-14 0 -14 25q0 16 12 18q46 4 58.5 11t18 23.5t5.5 64.5v428q0 36 -15.5 43.5t-50.5 7.5q-70 0 -101.5 -21t-37.5 -100
q-1 -14 -20 -14q-27 0 -27 16v162q0 8 18 9t39 1h528q23 0 40.5 -1t17.5 -11v-162q0 -6 -8.5 -10t-18.5 -4q-25 0 -25 18q-7 69 -35 93t-96 24q-36 0 -52.5 -7.5t-16.5 -43.5v-428z" />
    <glyph glyph-name="glyph222" horiz-adv-x="612" 
d="M348 1640q102 102 203 187q6 6 13 6q13 0 26.5 -12t13.5 -25q0 -6 -6 -12q-99 -90 -258 -262q-16 -17 -35 -17q-18 0 -33 15q-129 129 -235 217q-7 5 -7 14q0 24 34.5 56t57.5 32q31 0 226 -199z" />
    <glyph glyph-name="glyph223" horiz-adv-x="541" 
d="M522 1561q0 -17 -13.5 -28.5t-26.5 -11.5q-16 0 -110 35t-185.5 84.5t-126.5 79.5t-35 70q0 31 28.5 57.5t63.5 26.5q30 0 58 -22.5t50 -45.5q135 -125 281 -217q16 -10 16 -28z" />
    <glyph glyph-name="glyph224" horiz-adv-x="541" 
d="M430 1874q34 0 63 -27t29 -57q0 -64 -98 -113q-107 -66 -222 -111t-137 -45q-16 0 -28 11.5t-12 28.5q0 18 16 28q146 92 281 217q62 68 108 68z" />
    <glyph glyph-name="uni13D9.aalt" horiz-adv-x="1575" 
d="M1522 23q0 -13 -6.5 -23t-18.5 -10q-77 0 -151 6t-146 6q-75 0 -157 -6t-156 -6q-31 0 -31 33q0 12 8.5 23t22.5 11q68 0 110.5 22t42.5 62q0 99 -87 355.5t-220 566.5q-7 10 -14 10q-11 0 -14 -10q-205 -552 -250 -697t-45 -204t36 -82t105 -23q29 0 29 -34
q0 -13 -6.5 -23t-18.5 -10q-66 0 -125.5 6t-118.5 6q-56 0 -109 -6t-116 -6q-11 0 -17 9t-6 21q0 33 33 37q64 6 104 32t66.5 66t44 91t35.5 108q154 465 389 1024q6 14 19.5 21.5t25.5 7.5q33 0 45 -29q238 -536 432 -1095q19 -55 34.5 -94t39.5 -65.5t62.5 -42
t103.5 -24.5q12 -2 18.5 -12t6.5 -22z" />
    <glyph glyph-name="uni13DA.aalt" horiz-adv-x="1573" 
d="M1102 1317q-97 0 -143.5 -66.5t-47.5 -207.5q0 -82 11 -196q22 -254 22 -346q0 -273 -112 -393t-347 -120q-152 0 -240.5 104.5t-88.5 278.5q0 9 -2.5 14t-16.5 10q-29 6 -82 23q-12 5 -12 28q0 31 16 31l35 -2q112 -10 189 -10t182 10l31 2q20 0 20 -27q0 -32 -14 -34
q-44 -10 -135 -25q-29 -4 -29 -24q2 -123 21 -180.5t57.5 -90.5t103.5 -33q100 0 148 71t48 219q0 85 -7.5 181.5t-14 173t-6.5 137.5q0 34 1.5 108.5t21 160t67.5 150t129.5 102t208.5 37.5q131 0 213 -72.5t111 -228.5q4 -26 22.5 -37.5t73.5 -24.5q13 -4 13 -31
q0 -28 -23 -28q-50 0 -101 6t-104 6t-102.5 -6t-95.5 -6q-26 0 -26 25q0 30 19.5 35.5t116.5 23.5q15 2 21 9t6 29q0 85 -42 149.5t-116 64.5z" />
    <glyph glyph-name="glyph313" horiz-adv-x="650" 
 />
    </font>
</defs>
</svg>
